<?xml version="1.0" encoding="utf-8"?>
<!-- Generator: Adobe Illustrator 16.0.0, SVG Export Plug-In . SVG Version: 6.00 Build 0)  -->
<!DOCTYPE svg PUBLIC "-//W3C//DTD SVG 1.1//EN" "http://www.w3.org/Graphics/SVG/1.1/DTD/svg11.dtd">
<svg version="1.1" id="Layer_1" xmlns="http://www.w3.org/2000/svg" xmlns:xlink="http://www.w3.org/1999/xlink" x="0px" y="0px"
	 width="21.667px" height="41.667px" viewBox="0 0 21.667 41.667" enable-background="new 0 0 21.667 41.667" xml:space="preserve">
<path fill-rule="evenodd" clip-rule="evenodd" fill="#F5953D" d="M10.623,39.798c-0.243-0.197-0.506-0.376-0.727-0.597
	c-2.816-2.807-5.629-5.616-8.431-8.438c-0.184-0.185-0.326-0.454-0.385-0.708c-0.082-0.354,0.113-0.635,0.425-0.819
	c0.305-0.18,0.611-0.159,0.897,0.03c0.157,0.104,0.293,0.242,0.427,0.377c2.238,2.235,4.475,4.472,6.709,6.71
	c0.107,0.107,0.19,0.239,0.284,0.36c0.034-0.016,0.069-0.032,0.104-0.049c0.009-0.103,0.026-0.205,0.026-0.308
	c0.001-8.194,0.008-16.388-0.002-24.581C9.946,8.502,9.907,5.228,9.874,1.955c-0.005-0.542,0.155-0.964,0.673-1.197
	c0.127,0,0.254,0,0.382,0c0.574,0.189,0.741,0.616,0.739,1.183c-0.008,3.52-0.011,7.039-0.002,10.559
	c0.021,7.939,0.05,15.877,0.076,23.815c0,0.11,0.011,0.219,0.021,0.403c0.151-0.141,0.261-0.236,0.363-0.338
	c2.294-2.29,4.587-4.578,6.877-6.871c0.309-0.309,0.643-0.498,1.09-0.324c0.517,0.201,0.721,0.843,0.4,1.295
	c-0.108,0.153-0.248,0.289-0.382,0.423c-2.767,2.769-5.532,5.538-8.304,8.302c-0.221,0.22-0.484,0.397-0.728,0.595
	C10.929,39.798,10.775,39.798,10.623,39.798z"/>
</svg>
