<?xml version="1.0" encoding="utf-8"?>
<!-- Generator: Adobe Illustrator 16.0.0, SVG Export Plug-In . SVG Version: 6.00 Build 0)  -->
<!DOCTYPE svg PUBLIC "-//W3C//DTD SVG 1.1//EN" "http://www.w3.org/Graphics/SVG/1.1/DTD/svg11.dtd">
<svg version="1.1" id="Layer_1" xmlns="http://www.w3.org/2000/svg" xmlns:xlink="http://www.w3.org/1999/xlink" x="0px" y="0px"
	 width="159.667px" height="355px" viewBox="0 0 159.667 355" enable-background="new 0 0 159.667 355" xml:space="preserve">
<image overflow="visible" enable-background="new    " width="1920" height="2900" xlink:href="../../../../Projects/Shola Pith/contact-us.png"  transform="matrix(1 0 0 1 1236.3188 -1113.3657)">
</image>
<g>
	<g>
		<path fill="#C2C2C2" d="M34.09,3h-4c-0.552,0-1-0.448-1-1s0.448-1,1-1h4c0.552,0,1,0.448,1,1S34.643,3,34.09,3z"/>
	</g>
	<g>
		<path fill="#C2C2C2" d="M94.535,3H86.98c-0.552,0-1-0.448-1-1s0.448-1,1-1h7.555c0.553,0,1,0.448,1,1S95.087,3,94.535,3z
			 M79.424,3h-7.556c-0.552,0-1-0.448-1-1s0.448-1,1-1h7.556c0.552,0,1,0.448,1,1S79.976,3,79.424,3z M64.313,3h-7.555
			c-0.552,0-1-0.448-1-1s0.448-1,1-1h7.555c0.552,0,1,0.448,1,1S64.865,3,64.313,3z M49.202,3h-7.556c-0.552,0-1-0.448-1-1
			s0.448-1,1-1h7.556c0.552,0,1,0.448,1,1S49.754,3,49.202,3z"/>
	</g>
	<g>
		<path fill="#C2C2C2" d="M106.089,7c-0.551,0-1-0.448-1-1V3h-3c-0.551,0-1-0.448-1-1s0.449-1,1-1h4c0.553,0,1,0.448,1,1v4
			C107.089,6.552,106.643,7,106.089,7z"/>
	</g>
	<g>
		<path fill="#C2C2C2" d="M106.089,100.23c-0.551,0-1-0.448-1-1v-7.769c0-0.552,0.449-1,1-1c0.553,0,1,0.448,1,1v7.769
			C107.089,99.783,106.643,100.23,106.089,100.23z M106.089,84.692c-0.551,0-1-0.448-1-1v-7.769c0-0.552,0.449-1,1-1
			c0.553,0,1,0.448,1,1v7.769C107.089,84.244,106.643,84.692,106.089,84.692z M106.089,69.154c-0.551,0-1-0.448-1-1v-7.77
			c0-0.552,0.449-1,1-1c0.553,0,1,0.448,1,1v7.77C107.089,68.706,106.643,69.154,106.089,69.154z M106.089,53.615
			c-0.551,0-1-0.448-1-1v-7.769c0-0.552,0.449-1,1-1c0.553,0,1,0.448,1,1v7.769C107.089,53.167,106.643,53.615,106.089,53.615z
			 M106.089,38.077c-0.551,0-1-0.448-1-1v-7.769c0-0.552,0.449-1,1-1c0.553,0,1,0.448,1,1v7.769
			C107.089,37.629,106.643,38.077,106.089,38.077z M106.089,22.538c-0.551,0-1-0.448-1-1v-7.769c0-0.552,0.449-1,1-1
			c0.553,0,1,0.448,1,1v7.769C107.089,22.09,106.643,22.538,106.089,22.538z"/>
	</g>
	<g>
		<path fill="#C2C2C2" d="M106.089,112c-0.551,0-1-0.448-1-1v-4c0-0.552,0.449-1,1-1c0.553,0,1,0.448,1,1v4
			C107.089,111.552,106.643,112,106.089,112z"/>
	</g>
</g>
<g>
	<g>
		<path fill="#C2C2C2" d="M51.59,163.5h-4c-0.552,0-1-0.448-1-1s0.448-1,1-1h4c0.552,0,1,0.448,1,1S52.143,163.5,51.59,163.5z"/>
	</g>
	<g>
		<path fill="#C2C2C2" d="M39.59,163.5h-8c-0.552,0-1-0.448-1-1s0.448-1,1-1h8c0.552,0,1,0.448,1,1S40.143,163.5,39.59,163.5z
			 M23.59,163.5h-8c-0.552,0-1-0.448-1-1s0.448-1,1-1h8c0.552,0,1,0.448,1,1S24.143,163.5,23.59,163.5z"/>
	</g>
	<g>
		<path fill="#C2C2C2" d="M3.59,167.5c-0.552,0-1-0.448-1-1v-4c0-0.552,0.448-1,1-1h4c0.552,0,1,0.448,1,1s-0.448,1-1,1h-3v3
			C4.59,167.052,4.143,167.5,3.59,167.5z"/>
	</g>
	<g>
		<path fill="#C2C2C2" d="M3.59,343.021c-0.552,0-1-0.447-1-1v-7.979c0-0.554,0.448-1,1-1c0.552,0,1,0.446,1,1v7.979
			C4.59,342.574,4.143,343.021,3.59,343.021z M3.59,327.064c-0.552,0-1-0.447-1-1v-7.979c0-0.551,0.448-1,1-1c0.552,0,1,0.449,1,1
			v7.979C4.59,326.617,4.143,327.064,3.59,327.064z M3.59,311.108c-0.552,0-1-0.448-1-1v-7.979c0-0.551,0.448-1,1-1
			c0.552,0,1,0.449,1,1v7.979C4.59,310.66,4.143,311.108,3.59,311.108z M3.59,295.151c-0.552,0-1-0.448-1-1v-7.979
			c0-0.551,0.448-1,1-1c0.552,0,1,0.449,1,1v7.979C4.59,294.705,4.143,295.151,3.59,295.151z M3.59,279.195c-0.552,0-1-0.447-1-1
			v-7.979c0-0.551,0.448-1,1-1c0.552,0,1,0.449,1,1v7.979C4.59,278.748,4.143,279.195,3.59,279.195z M3.59,263.238
			c-0.552,0-1-0.447-1-1v-7.979c0-0.551,0.448-1,1-1c0.552,0,1,0.449,1,1v7.979C4.59,262.791,4.143,263.238,3.59,263.238z
			 M3.59,247.283c-0.552,0-1-0.449-1-1v-7.98c0-0.551,0.448-1,1-1c0.552,0,1,0.449,1,1v7.98
			C4.59,246.833,4.143,247.283,3.59,247.283z M3.59,231.326c-0.552,0-1-0.447-1-1v-7.979c0-0.553,0.448-1,1-1c0.552,0,1,0.447,1,1
			v7.979C4.59,230.878,4.143,231.326,3.59,231.326z M3.59,215.369c-0.552,0-1-0.447-1-1v-7.978c0-0.552,0.448-1,1-1
			c0.552,0,1,0.448,1,1v7.978C4.59,214.921,4.143,215.369,3.59,215.369z M3.59,199.414c-0.552,0-1-0.449-1-1v-7.979
			c0-0.553,0.448-1,1-1c0.552,0,1,0.447,1,1v7.979C4.59,198.964,4.143,199.414,3.59,199.414z M3.59,183.457c-0.552,0-1-0.449-1-1
			v-7.979c0-0.552,0.448-1,1-1c0.552,0,1,0.448,1,1v7.979C4.59,183.007,4.143,183.457,3.59,183.457z"/>
	</g>
	<g>
		<path fill="#C2C2C2" d="M3.59,355c-0.263,0-0.515-0.104-0.703-0.289c-0.19-0.188-0.297-0.443-0.297-0.711v-4c0-0.554,0.448-1,1-1
			c0.552,0,1,0.446,1,1v2.986l2.987-0.037c0.004,0,0.009,0,0.013,0c0.546,0,0.993,0.438,1,0.986
			c0.007,0.552-0.435,1.006-0.987,1.014l-4,0.051C3.599,355,3.595,355,3.59,355z"/>
	</g>
	<g>
		<path fill="#C2C2C2" d="M16.051,354.841c-0.546,0-0.993-0.439-1-0.987c-0.007-0.552,0.435-1.006,0.987-1.013l8.461-0.107
			c0.556,0.008,1.006,0.436,1.013,0.987c0.007,0.552-0.435,1.006-0.987,1.013l-8.461,0.107
			C16.06,354.841,16.056,354.841,16.051,354.841z M32.975,354.626c-0.546,0-0.992-0.439-1-0.987
			c-0.007-0.552,0.435-1.007,0.987-1.013l8.461-0.108c0.57,0.039,1.006,0.435,1.013,0.987c0.007,0.552-0.435,1.006-0.987,1.013
			l-8.461,0.108C32.983,354.626,32.979,354.626,32.975,354.626z M49.897,354.41c-0.546,0-0.993-0.438-1-0.986
			c-0.007-0.553,0.435-1.006,0.987-1.014l8.462-0.106c0.552,0.015,1.006,0.437,1.013,0.987c0.007,0.553-0.435,1.006-0.987,1.013
			l-8.462,0.106C49.906,354.41,49.902,354.41,49.897,354.41z M66.821,354.195c-0.546,0-0.993-0.439-1-0.986
			c-0.007-0.554,0.435-1.006,0.987-1.014l8.461-0.107c0.004,0,0.009,0,0.013,0c0.546,0,0.993,0.439,1,0.988
			c0.007,0.551-0.435,1.006-0.987,1.012l-8.461,0.107C66.83,354.195,66.825,354.195,66.821,354.195z M83.744,353.98
			c-0.545,0-0.992-0.439-1-0.986c-0.007-0.553,0.436-1.007,0.987-1.014l8.461-0.107c0.55,0.012,1.005,0.436,1.013,0.986
			c0.008,0.553-0.435,1.006-0.986,1.014l-8.461,0.107C83.753,353.98,83.75,353.98,83.744,353.98z M100.667,353.765
			c-0.547,0-0.994-0.439-1-0.987c-0.008-0.552,0.435-1.006,0.986-1.013l8.463-0.107c0.576-0.013,1.006,0.437,1.012,0.987
			c0.008,0.551-0.435,1.006-0.986,1.013l-8.462,0.107C100.675,353.765,100.671,353.765,100.667,353.765z"/>
	</g>
	<g>
		<path fill="#C2C2C2" d="M117.589,353.55c-0.545,0-0.992-0.439-1-0.987c-0.006-0.552,0.436-1.006,0.988-1.013l4-0.051
			c0.574,0.018,1.006,0.436,1.012,0.986c0.008,0.551-0.435,1.006-0.986,1.014l-4,0.051
			C117.599,353.55,117.595,353.55,117.589,353.55z"/>
	</g>
</g>
<circle fill="#0631A7" cx="103.75" cy="164.75" r="54.25"/>
<g>
	<circle fill="#0732A7" cx="103.75" cy="164.75" r="39.136"/>
	<path fill="#0732A7" d="M130.229,138.707c0,0,1.272-5.356-1.021-7.683c-1.364-1.207-2.812,0.117-2.291,0.972
		C126.916,132.879,130.462,135.259,130.229,138.707z"/>
	<path fill="#FFFFFF" d="M129.767,139.172c0,0,1.271-5.356-1.021-7.684c-1.363-1.208-2.813,0.119-2.293,0.971
		C126.453,133.344,129.998,135.724,129.767,139.172z"/>
	<path fill="#FFFFFF" d="M126.386,138.614c0,0-1.363-5.592-5.088-7.298c-1.738-0.554-2.684,1.138-1.861,1.707
		C119.792,133.834,125.207,135.366,126.386,138.614z"/>
	<path fill="#FFFFFF" d="M133.146,152.286c0,0,1.646-11.516-10.576-13.631c-12.867-2.586-23.09,7.285-18.331,18.331
		c5.171,11.518,19.271,14.432,15.628,24.305c-4.029,10.92-26.908,19.387-40.071,1.291c-5.989-8.636-6.613-12.979-6.88-18.734
		c-0.229-4.974,7.615-10.152,3.829-13.976c-3.024-1.596-4.945,4.434-4.945,4.434s-1.341,0.305-2.248,8.63
		c-1.195,10.913,1.626,24.361,18.06,34.004c20.681,10.557,42.257-1.49,44.126-12.947c1.484-11.301-6.181-14.876-9.049-17.391
		c-3.988-3.499-19.271-6.796-14.454-19.017c0,0,2.446-6.376,10.343-4.229c0,0-3.058,6.344,1.408,9.517
		c4.523,3.114,8.227,0.825,8.227,0.825s-1.409,7.989,3.525,8.459c0,0-2.229-3.071-0.705-4.818
		C132.912,154.987,133.146,152.286,133.146,152.286z"/>
	<circle fill="#0732A7" cx="124.628" cy="148.644" r="1.939"/>
	<path fill="#0732A7" d="M133.087,144.418c0,0,3.324-4.525,1.736-7.381c-0.99-1.528-2.587-0.476-2.65,0.373
		C131.936,138.261,134.234,141.159,133.087,144.418z"/>
	<path fill="#FFFFFF" d="M132.625,144.882c0,0,3.322-4.526,1.735-7.381c-0.991-1.529-2.588-0.475-2.651,0.373
		C131.472,138.727,133.771,141.622,132.625,144.882z"/>
	<path fill="#FFFFFF" d="M117.937,173.786c0,0.7-0.016,1.345,0.004,1.99c0.178,5.997-3.891,11.429-8.501,13.095
		c-4.89,1.771-9.676,1.494-14.269-1.055c-4.611-2.561-7.184-7.982-6.252-13.176c0.403-2.252,1.699-3.38,3.572-3.101
		c1.182,0.177,2.033,0.914,2.438,1.934c0.743,1.879,1.519,3.796,1.88,5.769c0.691,3.799,3.914,6.891,8.259,7.639
		c5.188,0.889,10.604-3.039,11.808-7.574C117.347,177.532,117.578,175.697,117.937,173.786z"/>
	<path fill="#F48723" d="M115.553,172.691c0.639,3.264,0.217,6.083-1.667,8.568c-1.452,1.914-3.383,3.17-5.766,3.654
		c-1.684,0.34-3.082-0.24-3.521-1.416c-0.415-1.109,0.188-2.344,1.744-3.154c0.99-0.514,2.074-0.924,3.164-1.163
		C113.677,178.269,114.833,177.113,115.553,172.691z"/>
	<path fill="#0732A7" d="M114.097,170.942c0.709,2.063,0.627,3.853-0.713,5.487c-0.907,1.109-3.002,1.455-4.178,0.657
		c-1.07-0.73-1.265-1.97-0.248-2.773c0.679-0.537,1.596-0.917,2.455-1.049C113.019,173.02,113.65,172.619,114.097,170.942z"/>
	<path fill="#FFFFFF" d="M74.981,156.182c0,0,4.146-1.644,4.483-5.593c0.278-3.517-2.022-4.19,0.204-7.218
		c0.854-1.157,4.344-5.481,2.5-6.64c-1.603-0.929-3.773,0.316-4.784,0.72c-0.485,0.21-1.619,0.771-1.69,0.952
		c-0.073,0.181,0.691,0.063,0.752,0.206c0.026,0.198-0.435,0.779-0.271,0.836c0.143,0.049,0.8-0.375,1.534-0.822
		c0.732-0.447,4.269-1.985,3.474,0.042c-0.602,1.535-2.179,2.495-3.532,3.645c-1.794,1.215-3.558,3.97-3.638,5.364
		c-0.082,1.395-0.578-2.549-1.285-2.126c-0.23,0.138,0.092,1.059-0.205,1.946c-0.624,1.87-1.778,5.122,0.215,7.726
		C73.468,155.445,74.981,156.182,74.981,156.182z"/>
	<path fill="#0732A7" d="M69.415,156.241c0,0-2.285,22.608,16.088,32.209l-4.174-27.055L69.415,156.241z"/>
	<path fill="#0732A7" d="M76.612,179.996c-4.567-6.09-6.234-11.773-6.583-18.472c-0.193-3.729,0.326-7.214,2.576-10.444
		c0.182-0.264,1.355-2.019,3.501-1.517c1.044,0.299,1.808,1.439,1.71,2.459c-0.467,2.217-1.179,4.395-1.941,6.536
		c-2.428,6.824-2.175,13.289,0.397,20.068C76.37,178.882,76.595,179.908,76.612,179.996z"/>
	<path fill="#FFFFFF" d="M76.217,178.982c-3.638-5.159-5.366-10.965-5.69-17.203c-0.182-3.475,0.021-6.915,2.116-9.924
		c0.17-0.245,1.497-2.506,3.404-1.871c1.236,0.536,1.782,1.756,1.528,2.96c-0.438,2.065-1.099,4.094-1.81,6.089
		c-2.263,6.356-2.272,12.677,0.124,18.991C75.979,178.261,76.2,178.899,76.217,178.982z"/>
	<path fill="#F48723" d="M105.757,191.312c-1.528,0.139-3.059,0.393-4.586,0.395c-6.641,0.008-12.459-2.207-17.359-6.707
		c-2.594-2.379-4.026-5.518-5.414-8.662c-1.303-2.953-2.337-5.986-2.294-9.273c0.022-1.733,0.451-3.34,1.663-4.65
		c1.502-1.619,3.48-1.64,5.005-0.011c1.399,1.494,1.776,3.37,1.962,5.346c0.297,3.188,0.426,6.427,1.119,9.535
		c1.752,7.852,8.137,13.155,16.173,13.743c1.229,0.091,2.474,0.015,3.712,0.015C105.742,191.13,105.751,191.221,105.757,191.312z"/>
</g>
</svg>
