<?xml version="1.0" encoding="utf-8"?>
<!-- Generator: Adobe Illustrator 16.0.0, SVG Export Plug-In . SVG Version: 6.00 Build 0)  -->
<!DOCTYPE svg PUBLIC "-//W3C//DTD SVG 1.1//EN" "http://www.w3.org/Graphics/SVG/1.1/DTD/svg11.dtd">
<svg version="1.1" id="Layer_1" xmlns="http://www.w3.org/2000/svg" xmlns:xlink="http://www.w3.org/1999/xlink" x="0px" y="0px"
	 width="263.725px" height="109.818px" viewBox="0 0 263.725 109.818" enable-background="new 0 0 263.725 109.818"
	 xml:space="preserve">
<g>
	<path fill="#C2C2C2" d="M164.5,55.509h-8c-0.553,0-1-0.447-1-1c0-0.552,0.447-1,1-1h8c0.554,0,1,0.448,1,1
		C165.5,55.061,165.053,55.509,164.5,55.509z M148.5,55.509h-8c-0.553,0-1-0.447-1-1c0-0.552,0.447-1,1-1h8c0.554,0,1,0.448,1,1
		C149.5,55.061,149.053,55.509,148.5,55.509z M132.5,55.509h-8c-0.553,0-1-0.447-1-1c0-0.552,0.447-1,1-1h8c0.554,0,1,0.448,1,1
		C133.5,55.061,133.053,55.509,132.5,55.509z M116.5,55.509h-8c-0.553,0-1-0.447-1-1c0-0.552,0.447-1,1-1h8c0.554,0,1,0.448,1,1
		C117.5,55.061,117.053,55.509,116.5,55.509z M167.486,50.495c-0.553,0-1-0.448-1-1v-8c0-0.552,0.447-1,1-1s1,0.448,1,1v8
		C168.486,50.047,168.039,50.495,167.486,50.495z M167.486,34.495c-0.553,0-1-0.448-1-1v-8c0-0.552,0.447-1,1-1s1,0.448,1,1v8
		C168.486,34.047,168.039,34.495,167.486,34.495z M167.486,18.495c-0.553,0-1-0.448-1-1v-8c0-0.552,0.447-1,1-1s1,0.448,1,1v8
		C168.486,18.047,168.039,18.495,167.486,18.495z M262.724,9.732h-8c-0.554,0-1-0.448-1-1s0.446-1,1-1h8c0.553,0,1,0.448,1,1
		S263.276,9.732,262.724,9.732z M246.724,9.732h-8c-0.554,0-1-0.448-1-1s0.446-1,1-1h8c0.553,0,1,0.448,1,1
		S247.276,9.732,246.724,9.732z M230.724,9.732h-8c-0.554,0-1-0.448-1-1s0.446-1,1-1h8c0.553,0,1,0.448,1,1
		S231.276,9.732,230.724,9.732z M214.724,9.732h-8c-0.554,0-1-0.448-1-1s0.446-1,1-1h8c0.553,0,1,0.448,1,1
		S215.276,9.732,214.724,9.732z M198.724,9.732h-8c-0.554,0-1-0.448-1-1s0.446-1,1-1h8c0.553,0,1,0.448,1,1
		S199.276,9.732,198.724,9.732z M182.724,9.732h-8c-0.554,0-1-0.448-1-1s0.446-1,1-1h8c0.553,0,1,0.448,1,1
		S183.276,9.732,182.724,9.732z"/>
</g>
<image overflow="visible" enable-background="new    " width="1920" height="2900" xlink:href="../../../../Projects/Shola Pith/contact-us.png"  transform="matrix(1 0 0 1 1236.3191 -1113.3655)">
</image>
<circle fill="#0631A7" cx="54.25" cy="55.568" r="54.25"/>
<g>
	<circle fill="#0732A7" cx="54.25" cy="55.568" r="39.136"/>
	<path fill="#0732A7" d="M80.73,29.525c0,0,1.271-5.356-1.021-7.684c-1.363-1.207-2.811,0.117-2.292,0.973
		C77.417,23.697,80.964,26.077,80.73,29.525z"/>
	<path fill="#FFFFFF" d="M80.268,29.99c0,0,1.271-5.356-1.021-7.684c-1.363-1.208-2.813,0.118-2.292,0.971
		C76.954,24.162,80.499,26.542,80.268,29.99z"/>
	<path fill="#FFFFFF" d="M76.888,29.432c0,0-1.363-5.593-5.09-7.299c-1.737-0.554-2.682,1.139-1.859,1.707
		C70.294,24.652,75.707,26.184,76.888,29.432z"/>
	<path fill="#FFFFFF" d="M83.647,43.104c0,0,1.646-11.517-10.575-13.631c-12.869-2.586-23.09,7.284-18.331,18.331
		c5.171,11.518,19.271,14.432,15.627,24.304C66.338,83.029,43.46,91.495,30.297,73.4c-5.987-8.636-6.611-12.979-6.879-18.735
		c-0.229-4.974,7.614-10.151,3.829-13.976c-3.024-1.597-4.944,4.434-4.944,4.434s-1.342,0.305-2.249,8.63
		c-1.194,10.913,1.626,24.361,18.06,34.004c20.68,10.558,42.257-1.489,44.126-12.946c1.484-11.302-6.181-14.877-9.048-17.392
		c-3.99-3.499-19.273-6.796-14.455-19.017c0,0,2.447-6.376,10.342-4.229c0,0-3.056,6.345,1.41,9.518
		c4.523,3.114,8.225,0.825,8.225,0.825s-1.407,7.988,3.526,8.459c0,0-2.228-3.071-0.705-4.818
		C83.413,45.805,83.647,43.104,83.647,43.104z"/>
	<circle fill="#0732A7" cx="75.129" cy="39.461" r="1.939"/>
	<path fill="#0732A7" d="M83.59,35.236c0,0,3.324-4.525,1.736-7.381c-0.99-1.528-2.588-0.477-2.652,0.373
		C82.437,29.079,84.736,31.977,83.59,35.236z"/>
	<path fill="#FFFFFF" d="M83.125,35.7c0,0,3.323-4.526,1.737-7.381c-0.991-1.529-2.589-0.476-2.651,0.373
		C81.974,29.544,84.272,32.439,83.125,35.7z"/>
	<path fill="#FFFFFF" d="M68.438,64.604c0,0.7-0.017,1.345,0.004,1.989c0.177,5.997-3.893,11.43-8.502,13.096
		c-4.89,1.77-9.675,1.494-14.269-1.056c-4.611-2.56-7.184-7.982-6.251-13.176c0.403-2.252,1.699-3.38,3.572-3.101
		c1.18,0.177,2.032,0.914,2.438,1.934c0.742,1.879,1.519,3.796,1.88,5.769c0.692,3.8,3.915,6.891,8.26,7.639
		c5.188,0.889,10.604-3.039,11.807-7.574C67.848,68.35,68.079,66.515,68.438,64.604z"/>
	<path fill="#F48723" d="M66.055,63.509c0.639,3.265,0.217,6.083-1.667,8.568c-1.452,1.915-3.385,3.17-5.767,3.654
		c-1.683,0.34-3.081-0.24-3.521-1.415c-0.416-1.11,0.187-2.344,1.744-3.154c0.989-0.514,2.073-0.924,3.163-1.164
		C64.178,69.087,65.336,67.931,66.055,63.509z"/>
	<path fill="#0732A7" d="M64.598,61.76c0.71,2.063,0.628,3.854-0.711,5.487c-0.909,1.109-3.004,1.455-4.18,0.657
		c-1.069-0.73-1.264-1.97-0.247-2.773c0.678-0.537,1.596-0.917,2.453-1.049C63.52,63.837,64.151,63.437,64.598,61.76z"/>
	<path fill="#FFFFFF" d="M25.482,47c0,0,4.146-1.644,4.483-5.593c0.278-3.517-2.022-4.19,0.203-7.218
		c0.854-1.157,4.345-5.481,2.5-6.641c-1.603-0.929-3.772,0.316-4.782,0.721c-0.486,0.21-1.62,0.771-1.691,0.952
		c-0.072,0.181,0.691,0.063,0.753,0.205c0.025,0.198-0.435,0.779-0.271,0.837c0.145,0.049,0.802-0.375,1.535-0.822
		c0.732-0.447,4.27-1.985,3.475,0.042c-0.603,1.535-2.181,2.495-3.532,3.645c-1.795,1.215-3.558,3.971-3.639,5.364
		c-0.081,1.396-0.578-2.549-1.285-2.126c-0.23,0.138,0.093,1.059-0.205,1.946c-0.623,1.87-1.778,5.122,0.216,7.726
		C23.969,46.263,25.482,47,25.482,47z"/>
	<path fill="#0732A7" d="M19.916,47.059c0,0-2.284,22.607,16.088,32.209L31.83,52.214L19.916,47.059z"/>
	<path fill="#0732A7" d="M27.114,70.813c-4.567-6.09-6.234-11.773-6.583-18.472c-0.193-3.729,0.326-7.214,2.575-10.443
		c0.182-0.265,1.355-2.02,3.502-1.518c1.044,0.3,1.807,1.439,1.71,2.459c-0.467,2.218-1.179,4.396-1.941,6.536
		c-2.428,6.824-2.176,13.289,0.396,20.068C26.872,69.701,27.096,70.725,27.114,70.813z"/>
	<path fill="#FFFFFF" d="M26.719,69.8c-3.64-5.158-5.367-10.965-5.691-17.202c-0.182-3.476,0.021-6.915,2.116-9.925
		c0.171-0.245,1.498-2.506,3.404-1.871c1.235,0.536,1.782,1.757,1.527,2.961c-0.438,2.064-1.099,4.094-1.81,6.089
		c-2.263,6.355-2.272,12.677,0.124,18.99C26.481,69.08,26.701,69.717,26.719,69.8z"/>
	<path fill="#F48723" d="M56.26,82.129c-1.529,0.139-3.06,0.393-4.587,0.395c-6.641,0.009-12.46-2.206-17.359-6.707
		c-2.594-2.378-4.026-5.518-5.413-8.661c-1.303-2.953-2.338-5.986-2.294-9.273c0.021-1.732,0.45-3.34,1.663-4.649
		c1.501-1.619,3.479-1.641,5.004-0.011c1.399,1.493,1.777,3.369,1.962,5.346c0.297,3.188,0.427,6.427,1.119,9.535
		c1.753,7.852,8.137,13.154,16.174,13.742c1.229,0.092,2.472,0.015,3.712,0.015C56.244,81.949,56.253,82.039,56.26,82.129z"/>
</g>
</svg>
