<?xml version="1.0" encoding="utf-8"?>
<!-- Generator: Adobe Illustrator 16.0.0, SVG Export Plug-In . SVG Version: 6.00 Build 0)  -->
<!DOCTYPE svg PUBLIC "-//W3C//DTD SVG 1.1//EN" "http://www.w3.org/Graphics/SVG/1.1/DTD/svg11.dtd">
<svg version="1.1" id="Layer_1" xmlns="http://www.w3.org/2000/svg" xmlns:xlink="http://www.w3.org/1999/xlink" x="0px" y="0px"
	 width="262.667px" height="303.557px" viewBox="0 0 262.667 303.557" enable-background="new 0 0 262.667 303.557"
	 xml:space="preserve">
<image overflow="visible" enable-background="new    " width="1920" height="2900" xlink:href="../../../../Projects/Shola Pith/contact-us.png"  transform="matrix(1 0 0 1 1236.3188 -1113.365)">
</image>
<g>
	<g>
		<path fill="#C2C2C2" d="M2.467,302.004c-0.552,0-1-0.448-1-1v-4c0-0.552,0.448-1,1-1c0.552,0,1,0.448,1,1v4
			C3.467,301.557,3.019,302.004,2.467,302.004z"/>
	</g>
	<g>
		<path fill="#C2C2C2" d="M2.467,290.414c-0.552,0-1-0.448-1-1v-7.591c0-0.553,0.448-1,1-1c0.552,0,1,0.447,1,1v7.591
			C3.467,289.966,3.019,290.414,2.467,290.414z M2.467,275.231c-0.552,0-1-0.447-1-1v-7.591c0-0.552,0.448-1,1-1
			c0.552,0,1,0.448,1,1v7.591C3.467,274.784,3.019,275.231,2.467,275.231z M2.467,260.05c-0.552,0-1-0.448-1-1v-7.591
			c0-0.552,0.448-1,1-1c0.552,0,1,0.448,1,1v7.591C3.467,259.602,3.019,260.05,2.467,260.05z M2.467,244.868c-0.552,0-1-0.448-1-1
			v-7.592c0-0.552,0.448-1,1-1c0.552,0,1,0.448,1,1v7.592C3.467,244.42,3.019,244.868,2.467,244.868z M2.467,229.686
			c-0.552,0-1-0.447-1-1v-7.591c0-0.552,0.448-1,1-1c0.552,0,1,0.448,1,1v7.591C3.467,229.239,3.019,229.686,2.467,229.686z"/>
	</g>
	<g>
		<path fill="#C2C2C2" d="M2.467,214.503c-0.552,0-1-0.448-1-1v-4c0-0.267,0.106-0.521,0.294-0.708
			c0.188-0.188,0.438-0.299,0.709-0.292l4,0.016c0.552,0.002,0.998,0.452,0.996,1.004c-0.002,0.553-0.451,1.021-1.004,0.996
			l-2.996-0.012v2.996C3.467,214.056,3.019,214.503,2.467,214.503z"/>
	</g>
	<g>
		<path fill="#C2C2C2" d="M119.4,210.958c-0.001,0-0.002,0-0.004,0l-8.066-0.031c-0.552-0.002-0.998-0.452-0.996-1.004
			c0.002-0.551,0.45-0.996,1-0.996c0.001,0,0.002,0,0.004,0l8.066,0.031c0.552,0.002,0.998,0.452,0.996,1.004
			C120.398,210.512,119.95,210.958,119.4,210.958z M103.267,210.895c-0.001,0-0.002,0-0.004,0l-8.067-0.031
			c-0.552-0.003-0.998-0.452-0.996-1.005c0.002-0.551,0.45-0.995,1-0.995c0.001,0,0.002,0,0.004,0l8.067,0.031
			c0.552,0.002,0.998,0.452,0.996,1.004S103.817,210.895,103.267,210.895z M87.133,210.832c-0.001,0-0.002,0-0.004,0l-8.067-0.031
			c-0.552-0.002-0.998-0.452-0.996-1.004c0.002-0.551,0.45-0.996,1-0.996c0.001,0,0.002,0,0.004,0l8.067,0.031
			c0.552,0.002,0.998,0.452,0.996,1.004C88.131,210.387,87.684,210.832,87.133,210.832z M71,210.77c-0.001,0-0.002,0-0.004,0
			l-8.067-0.03c-0.552-0.003-0.998-0.452-0.996-1.005c0.001-0.553,0.442-1.029,1.004-0.995l8.067,0.03
			c0.552,0.002,0.998,0.452,0.996,1.004C71.998,210.324,71.55,210.77,71,210.77z M54.867,210.707c-0.001,0-0.002,0-0.004,0
			l-8.067-0.031c-0.552-0.002-0.998-0.452-0.996-1.004c0.002-0.551,0.45-0.996,1-0.996c0.001,0,0.002,0,0.004,0l8.067,0.031
			c0.552,0.002,0.998,0.452,0.996,1.004C55.865,210.262,55.417,210.707,54.867,210.707z M38.733,210.644c-0.001,0-0.002,0-0.004,0
			l-8.067-0.031c-0.552-0.002-0.998-0.451-0.996-1.004c0.002-0.551,0.45-0.996,1-0.996c0.001,0,0.002,0,0.004,0l8.067,0.031
			c0.552,0.002,0.998,0.452,0.996,1.004S39.284,210.644,38.733,210.644z M22.6,210.582c-0.001,0-0.002,0-0.004,0l-8.067-0.031
			c-0.552-0.002-0.998-0.452-0.996-1.004c0.002-0.553,0.472-1.026,1.004-0.996l8.067,0.031c0.552,0.002,0.998,0.452,0.996,1.004
			C23.598,210.136,23.15,210.582,22.6,210.582z"/>
	</g>
	<g>
		<path fill="#C2C2C2" d="M131.467,211.004c-0.001,0-0.002,0-0.004,0l-4-0.017c-0.552-0.002-0.998-0.451-0.996-1.004
			c0.002-0.551,0.45-0.996,1-0.996c0.001,0,0.002,0,0.004,0l4,0.017c0.552,0.002,0.998,0.452,0.995,1.004
			C132.464,210.559,132.017,211.004,131.467,211.004z"/>
	</g>
</g>
<circle fill="#0631A7" cx="187.958" cy="199.639" r="54.25"/>
<g>
	<circle fill="#0732A7" cx="187.958" cy="199.64" r="39.136"/>
	<path fill="#0732A7" d="M214.438,173.596c0,0,1.272-5.355-1.021-7.683c-1.364-1.207-2.812,0.117-2.293,0.972
		C211.125,167.768,214.671,170.148,214.438,173.596z"/>
	<path fill="#FFFFFF" d="M213.976,174.061c0,0,1.271-5.355-1.021-7.685c-1.363-1.207-2.813,0.119-2.291,0.972
		C210.662,168.234,214.208,170.614,213.976,174.061z"/>
	<path fill="#FFFFFF" d="M210.596,173.503c0,0-1.363-5.593-5.089-7.299c-1.738-0.555-2.682,1.139-1.86,1.707
		C204.003,168.724,209.416,170.255,210.596,173.503z"/>
	<path fill="#FFFFFF" d="M217.356,187.175c0,0,1.646-11.517-10.576-13.631c-12.868-2.586-23.09,7.284-18.331,18.33
		c5.172,11.518,19.271,14.432,15.629,24.305c-4.031,10.921-26.91,19.387-40.072,1.292c-5.988-8.636-6.612-12.979-6.879-18.735
		c-0.229-4.974,7.615-10.151,3.828-13.975c-3.023-1.597-4.945,4.434-4.945,4.434s-1.34,0.306-2.248,8.631
		c-1.194,10.913,1.627,24.359,18.061,34.004c20.68,10.557,42.256-1.489,44.125-12.947c1.484-11.301-6.18-14.877-9.048-17.391
		c-3.989-3.499-19.272-6.797-14.454-19.018c0,0,2.446-6.377,10.342-4.229c0,0-3.057,6.345,1.409,9.517
		c4.524,3.115,8.226,0.825,8.226,0.825s-1.408,7.989,3.525,8.46c0,0-2.228-3.072-0.705-4.818
		C217.121,189.876,217.356,187.175,217.356,187.175z"/>
	<circle fill="#0732A7" cx="208.837" cy="183.533" r="1.939"/>
	<path fill="#0732A7" d="M217.298,179.307c0,0,3.324-4.524,1.736-7.381c-0.99-1.528-2.589-0.476-2.652,0.373
		C216.146,173.15,218.444,176.048,217.298,179.307z"/>
	<path fill="#FFFFFF" d="M216.833,179.771c0,0,3.324-4.524,1.736-7.381c-0.99-1.529-2.589-0.475-2.65,0.373
		C215.682,173.616,217.981,176.511,216.833,179.771z"/>
	<path fill="#FFFFFF" d="M202.146,208.675c0,0.699-0.016,1.346,0.004,1.99c0.178,5.996-3.893,11.428-8.501,13.095
		c-4.89,1.771-9.676,1.494-14.269-1.055c-4.612-2.561-7.184-7.983-6.252-13.176c0.403-2.253,1.699-3.381,3.572-3.102
		c1.18,0.176,2.033,0.913,2.438,1.935c0.741,1.879,1.519,3.795,1.879,5.768c0.692,3.8,3.915,6.891,8.26,7.639
		c5.188,0.89,10.604-3.039,11.808-7.573C201.556,212.421,201.787,210.586,202.146,208.675z"/>
	<path fill="#F48723" d="M199.763,207.581c0.639,3.264,0.217,6.083-1.667,8.566c-1.452,1.915-3.384,3.171-5.765,3.654
		c-1.685,0.34-3.082-0.24-3.522-1.414c-0.415-1.11,0.187-2.344,1.744-3.154c0.989-0.514,2.075-0.924,3.165-1.164
		C197.886,213.158,199.044,212.001,199.763,207.581z"/>
	<path fill="#0732A7" d="M198.306,205.832c0.71,2.063,0.628,3.854-0.711,5.485c-0.908,1.109-3.002,1.455-4.18,0.657
		c-1.069-0.729-1.264-1.97-0.246-2.771c0.678-0.537,1.595-0.917,2.453-1.05C197.228,207.909,197.86,207.507,198.306,205.832z"/>
	<path fill="#FFFFFF" d="M159.19,191.073c0,0,4.146-1.646,4.483-5.595c0.279-3.517-2.022-4.189,0.203-7.219
		c0.854-1.156,4.345-5.479,2.5-6.64c-1.602-0.93-3.772,0.315-4.782,0.72c-0.486,0.211-1.619,0.771-1.691,0.952
		c-0.071,0.181,0.691,0.063,0.753,0.206c0.026,0.196-0.435,0.777-0.271,0.836c0.143,0.049,0.8-0.375,1.534-0.822
		c0.731-0.447,4.269-1.985,3.474,0.042c-0.603,1.535-2.181,2.495-3.532,3.646c-1.794,1.215-3.558,3.969-3.638,5.362
		c-0.082,1.396-0.578-2.549-1.285-2.126c-0.229,0.139,0.092,1.061-0.205,1.946c-0.624,1.869-1.778,5.122,0.215,7.727
		C157.677,190.334,159.19,191.073,159.19,191.073z"/>
	<path fill="#0732A7" d="M153.625,191.13c0,0-2.285,22.606,16.088,32.209l-4.174-27.054L153.625,191.13z"/>
	<path fill="#0732A7" d="M160.822,214.884c-4.566-6.09-6.234-11.773-6.583-18.471c-0.192-3.73,0.326-7.215,2.576-10.445
		c0.183-0.264,1.354-2.018,3.501-1.516c1.044,0.299,1.809,1.438,1.71,2.459c-0.467,2.217-1.179,4.395-1.94,6.534
		c-2.428,6.824-2.176,13.289,0.396,20.068C160.58,213.772,160.804,214.796,160.822,214.884z"/>
	<path fill="#FFFFFF" d="M160.427,213.872c-3.639-5.159-5.367-10.966-5.691-17.202c-0.182-3.476,0.021-6.915,2.117-9.925
		c0.17-0.245,1.497-2.506,3.404-1.871c1.236,0.536,1.781,1.756,1.527,2.96c-0.438,2.064-1.099,4.094-1.81,6.09
		c-2.263,6.354-2.272,12.677,0.123,18.991C160.189,213.152,160.41,213.789,160.427,213.872z"/>
	<path fill="#F48723" d="M189.968,226.201c-1.529,0.139-3.059,0.392-4.586,0.395c-6.641,0.009-12.461-2.207-17.361-6.707
		c-2.594-2.378-4.025-5.517-5.413-8.661c-1.303-2.953-2.337-5.984-2.294-9.272c0.021-1.733,0.451-3.34,1.663-4.649
		c1.501-1.619,3.479-1.641,5.005-0.012c1.4,1.494,1.777,3.37,1.961,5.346c0.297,3.189,0.428,6.428,1.119,9.535
		c1.753,7.852,8.137,13.154,16.174,13.743c1.23,0.091,2.473,0.015,3.712,0.015C189.953,226.02,189.962,226.11,189.968,226.201z"/>
</g>
<g>
	<g>
		<path fill="#C2C2C2" d="M187.958,146.389c-0.553,0-1-0.448-1-1v-4c0-0.552,0.447-1,1-1c0.551,0,1,0.448,1,1v4
			C188.958,145.941,188.509,146.389,187.958,146.389z"/>
	</g>
	<g>
		<path fill="#C2C2C2" d="M187.958,134.521c-0.553,0-1-0.447-1-1v-7.868c0-0.552,0.447-1,1-1c0.551,0,1,0.448,1,1v7.868
			C188.958,134.074,188.509,134.521,187.958,134.521z M187.958,118.786c-0.553,0-1-0.448-1-1v-7.868c0-0.552,0.447-1,1-1
			c0.551,0,1,0.448,1,1v7.868C188.958,118.338,188.509,118.786,187.958,118.786z M187.958,103.051c-0.553,0-1-0.448-1-1v-7.867
			c0-0.552,0.447-1,1-1c0.551,0,1,0.448,1,1v7.867C188.958,102.603,188.509,103.051,187.958,103.051z M187.958,87.316
			c-0.553,0-1-0.447-1-1v-7.867c0-0.553,0.447-1,1-1c0.551,0,1,0.447,1,1v7.867C188.958,86.868,188.509,87.316,187.958,87.316z
			 M187.958,71.581c-0.553,0-1-0.448-1-1v-7.868c0-0.552,0.447-1,1-1c0.551,0,1,0.448,1,1v7.868
			C188.958,71.133,188.509,71.581,187.958,71.581z M187.958,55.845c-0.553,0-1-0.448-1-1v-7.868c0-0.552,0.447-1,1-1
			c0.551,0,1,0.448,1,1v7.868C188.958,55.397,188.509,55.845,187.958,55.845z M187.958,40.11c-0.553,0-1-0.447-1-1v-7.866
			c0-0.553,0.447-1,1-1c0.551,0,1,0.447,1,1v7.866C188.958,39.662,188.509,40.11,187.958,40.11z M187.958,24.375
			c-0.553,0-1-0.448-1-1v-7.868c0-0.552,0.447-1,1-1c0.551,0,1,0.448,1,1v7.868C188.958,23.927,188.509,24.375,187.958,24.375z"/>
	</g>
	<g>
		<path fill="#C2C2C2" d="M187.958,8.64c-0.553,0-1-0.448-1-1v-4c0-0.267,0.105-0.521,0.295-0.709
			c0.188-0.186,0.439-0.291,0.705-0.291c0.002,0,0.004,0,0.006,0l4,0.027c0.553,0.004,0.998,0.455,0.994,1.007
			c-0.004,0.55-0.451,0.993-1,0.993c-0.002,0-0.004,0-0.008,0l-2.992-0.021V7.64C188.958,8.192,188.509,8.64,187.958,8.64z"/>
	</g>
	<g>
		<path fill="#C2C2C2" d="M249.751,5.063c-0.002,0-0.004,0-0.008,0l-7.224-0.049c-0.552-0.004-0.997-0.455-0.993-1.007
			c0.004-0.55,0.451-0.993,1-0.993c0.002,0,0.004,0,0.008,0l7.223,0.049c0.553,0.004,0.998,0.455,0.994,1.007
			C250.748,4.62,250.3,5.063,249.751,5.063z M235.303,4.964c-0.003,0-0.005,0-0.007,0l-7.225-0.049
			c-0.552-0.004-0.996-0.455-0.992-1.007c0.004-0.551,0.45-0.993,1-0.993c0.002,0,0.004,0,0.006,0l7.225,0.049
			c0.552,0.004,0.997,0.455,0.993,1.007C236.298,4.521,235.853,4.964,235.303,4.964z M220.854,4.865c-0.002,0-0.004,0-0.007,0
			l-7.225-0.05c-0.552-0.004-0.996-0.455-0.992-1.007c0.004-0.55,0.451-0.993,1-0.993c0.002,0,0.004,0,0.007,0l7.224,0.05
			c0.553,0.004,0.997,0.454,0.993,1.007C221.851,4.421,221.404,4.865,220.854,4.865z M206.406,4.766c-0.002,0-0.004,0-0.007,0
			l-7.224-0.049c-0.553-0.004-0.997-0.455-0.993-1.007c0.004-0.55,0.45-0.993,1-0.993c0.002,0,0.004,0,0.007,0l7.225,0.049
			c0.551,0.004,0.996,0.455,0.992,1.007C207.402,4.323,206.957,4.766,206.406,4.766z"/>
	</g>
	<g>
		<path fill="#C2C2C2" d="M260.976,5.14c-0.002,0-0.004,0-0.007,0l-4-0.027c-0.55-0.004-0.994-0.45-0.993-1c0-0.002,0-0.004,0-0.006
			c0.004-0.55,0.451-0.992,1-0.992c0.002,0,0.004,0,0.007,0l4,0.026c0.55,0.004,0.994,0.451,0.993,1c0,0.002,0,0.004,0,0.006
			C261.972,4.698,261.525,5.14,260.976,5.14z"/>
	</g>
	<g>
		<path fill="#C2C2C2" d="M249.753,5.063c-0.002,0-0.004,0-0.008,0l-7.222-0.049c-0.552-0.004-0.997-0.455-0.993-1.007
			c0.004-0.55,0.451-0.993,1-0.993c0.002,0,0.004,0,0.008,0l7.222,0.049c0.552,0.004,0.997,0.455,0.993,1.007
			C250.75,4.62,250.303,5.063,249.753,5.063z M235.309,4.964c-0.002,0-0.004,0-0.007,0l-7.223-0.049
			c-0.552-0.004-0.996-0.455-0.992-1.007c0.004-0.551,0.451-0.993,1-0.993c0.002,0,0.004,0,0.007,0l7.222,0.049
			c0.553,0.004,0.997,0.455,0.993,1.007C236.305,4.521,235.858,4.964,235.309,4.964z M220.864,4.865c-0.002,0-0.004,0-0.007,0
			l-7.223-0.051c-0.551-0.004-0.996-0.455-0.992-1.007c0.004-0.55,0.451-0.993,1-0.993c0.002,0,0.004,0,0.007,0l7.222,0.051
			c0.553,0.004,0.998,0.454,0.993,1.007C221.86,4.422,221.414,4.865,220.864,4.865z M206.419,4.766c-0.002,0-0.004,0-0.006,0
			l-7.223-0.049c-0.552-0.004-0.997-0.455-0.993-1.007c0.005-0.55,0.451-0.993,1-0.993c0.003,0,0.005,0,0.007,0l7.223,0.049
			c0.552,0.004,0.996,0.455,0.992,1.007C207.416,4.323,206.969,4.766,206.419,4.766z"/>
	</g>
	<g>
		<path fill="#C2C2C2" d="M187.976,8.64c-0.553,0-1-0.448-1-1v-4c0-0.267,0.105-0.521,0.295-0.709s0.438-0.323,0.711-0.291l4,0.027
			c0.553,0.004,0.997,0.455,0.993,1.007c-0.004,0.55-0.451,0.993-1,0.993c-0.002,0-0.004,0-0.007,0l-2.993-0.021V7.64
			C188.976,8.192,188.528,8.64,187.976,8.64z"/>
	</g>
	<g>
		<path fill="#C2C2C2" d="M187.976,133.346c-0.553,0-1-0.448-1-1v-7.794c0-0.552,0.447-1,1-1c0.552,0,1,0.448,1,1v7.794
			C188.976,132.898,188.528,133.346,187.976,133.346z M187.976,117.757c-0.553,0-1-0.448-1-1v-7.794c0-0.552,0.447-1,1-1
			c0.552,0,1,0.448,1,1v7.794C188.976,117.31,188.528,117.757,187.976,117.757z M187.976,102.169c-0.553,0-1-0.448-1-1v-7.794
			c0-0.552,0.447-1,1-1c0.552,0,1,0.448,1,1v7.794C188.976,101.722,188.528,102.169,187.976,102.169z M187.976,86.581
			c-0.553,0-1-0.448-1-1v-7.794c0-0.553,0.447-1,1-1c0.552,0,1,0.447,1,1v7.794C188.976,86.133,188.528,86.581,187.976,86.581z
			 M187.976,70.993c-0.553,0-1-0.448-1-1v-7.794c0-0.553,0.447-1,1-1c0.552,0,1,0.447,1,1v7.794
			C188.976,70.545,188.528,70.993,187.976,70.993z M187.976,55.404c-0.553,0-1-0.447-1-1V46.61c0-0.552,0.447-1,1-1
			c0.552,0,1,0.448,1,1v7.794C188.976,54.957,188.528,55.404,187.976,55.404z M187.976,39.816c-0.553,0-1-0.447-1-1v-7.794
			c0-0.552,0.447-1,1-1c0.552,0,1,0.448,1,1v7.794C188.976,39.368,188.528,39.816,187.976,39.816z M187.976,24.228
			c-0.553,0-1-0.447-1-1v-7.794c0-0.552,0.447-1,1-1c0.552,0,1,0.448,1,1v7.794C188.976,23.781,188.528,24.228,187.976,24.228z"/>
	</g>
	<g>
		<path fill="#C2C2C2" d="M187.976,145.14c-0.553,0-1-0.448-1-1v-4c0-0.552,0.447-1,1-1c0.552,0,1,0.448,1,1v4
			C188.976,144.692,188.528,145.14,187.976,145.14z"/>
	</g>
</g>
</svg>
