<?xml version="1.0" encoding="utf-8"?>
<!-- Generator: Adobe Illustrator 16.0.0, SVG Export Plug-In . SVG Version: 6.00 Build 0)  -->
<!DOCTYPE svg PUBLIC "-//W3C//DTD SVG 1.1//EN" "http://www.w3.org/Graphics/SVG/1.1/DTD/svg11.dtd">
<svg version="1.1" id="Layer_1" xmlns="http://www.w3.org/2000/svg" xmlns:xlink="http://www.w3.org/1999/xlink" x="0px" y="0px"
	 width="24px" height="24px" viewBox="0 0 24 24" enable-background="new 0 0 24 24" xml:space="preserve">
<path fill-rule="evenodd" clip-rule="evenodd" fill="#F48622" d="M11.734,0.188c0.215,0,0.43,0,0.645,0
	c0.689,0.138,1.169,0.584,1.645,1.063c2.985,2.998,5.981,5.987,8.971,8.978c0.089,0.086,0.179,0.171,0.259,0.263
	c0.607,0.693,0.773,1.48,0.414,2.33c-0.363,0.859-1.046,1.293-1.98,1.328c-0.119,0.004-0.237,0-0.367,0c0,0.13,0,0.222,0,0.313
	c0,2.212,0,4.422-0.001,6.634c-0.001,1.594-1.082,2.677-2.67,2.679c-1.16,0-2.318,0-3.479,0c-0.596,0-0.851-0.256-0.851-0.858
	c0-1.767,0.002-3.533,0-5.298c-0.001-0.77-0.479-1.245-1.252-1.249c-0.66-0.002-1.321-0.002-1.98,0
	c-0.836,0.002-1.297,0.462-1.298,1.295c-0.001,1.767,0,3.533,0,5.299c0,0.539-0.271,0.812-0.805,0.812
	c-1.19,0-2.38,0.004-3.57-0.004c-0.221,0-0.447-0.02-0.661-0.07c-1.181-0.28-1.957-1.272-1.959-2.515
	c-0.005-2.248-0.002-4.499-0.002-6.747c0-0.092,0-0.181,0-0.25c-0.037-0.022-0.042-0.029-0.049-0.03
	c-0.13-0.003-0.261-0.005-0.391-0.012c-0.675-0.034-1.228-0.313-1.639-0.85C0.025,12.4,0.13,11.216,0.971,10.376
	c3.033-3.036,6.072-6.067,9.1-9.108C10.553,0.784,11.037,0.328,11.734,0.188z"/>
</svg>
