<?xml version="1.0" encoding="utf-8"?>
<!-- Generator: Adobe Illustrator 16.0.0, SVG Export Plug-In . SVG Version: 6.00 Build 0)  -->
<!DOCTYPE svg PUBLIC "-//W3C//DTD SVG 1.1//EN" "http://www.w3.org/Graphics/SVG/1.1/DTD/svg11.dtd">
<svg version="1.1" id="Layer_1" xmlns="http://www.w3.org/2000/svg" xmlns:xlink="http://www.w3.org/1999/xlink" x="0px" y="0px"
	 width="24px" height="24px" viewBox="0 0 24 24" enable-background="new 0 0 24 24" xml:space="preserve">
<g>
	<path fill-rule="evenodd" clip-rule="evenodd" fill="#F48622" d="M3.046,6.55c1.11-1.825,2.591-3.19,4.479-4.107
		C8.937,1.758,10.429,1.402,12,1.39c0.426-0.003,0.562-0.146,0.565-0.573c0.001-0.231,0-0.463,0-0.695
		c0.03-0.007,0.06-0.013,0.089-0.02c0.057,0.04,0.12,0.076,0.172,0.121c0.709,0.609,1.415,1.222,2.129,1.826
		c0.159,0.135,0.171,0.222,0.003,0.363c-0.709,0.597-1.406,1.207-2.112,1.808c-0.058,0.05-0.139,0.075-0.208,0.111
		c-0.024-0.081-0.063-0.161-0.069-0.243c-0.011-0.157-0.001-0.315-0.004-0.472c-0.007-0.398-0.147-0.544-0.544-0.532
		c-3.186,0.098-5.649,1.49-7.406,4.144C4.57,7.298,4.528,7.368,4.471,7.458C4.086,7.017,3.628,6.707,3.046,6.55z"/>
	<path fill-rule="evenodd" clip-rule="evenodd" fill="#F48622" d="M7.573,19.695c-0.396,0.336-0.702,0.799-0.858,1.371
		c-1.101-0.654-2.042-1.465-2.827-2.453c-1.501-1.889-2.288-4.039-2.333-6.455c-0.009-0.487-0.132-0.606-0.631-0.607
		c-0.209-0.001-0.419-0.001-0.704-0.001c0.084-0.133,0.113-0.196,0.157-0.247c0.614-0.716,1.232-1.429,1.842-2.148
		C2.343,9.01,2.425,8.98,2.564,9.145c0.598,0.708,1.208,1.406,1.809,2.111c0.054,0.063,0.08,0.153,0.119,0.229
		c-0.083,0.022-0.164,0.057-0.248,0.063c-0.148,0.009-0.298,0.001-0.447,0.003c-0.417,0.005-0.557,0.141-0.549,0.552
		c0.044,2.393,0.903,4.455,2.591,6.146C6.368,18.777,6.989,19.213,7.573,19.695z"/>
	<path fill-rule="evenodd" clip-rule="evenodd" fill="#F48622" d="M21.887,14.996c-0.46-0.535-0.887-1.027-1.312-1.521
		c-0.237-0.277-0.477-0.55-0.71-0.829c-0.039-0.046-0.054-0.113-0.078-0.172c0.063-0.023,0.127-0.064,0.192-0.068
		c0.173-0.01,0.348-0.001,0.521-0.004c0.396-0.006,0.543-0.146,0.53-0.543c-0.099-3.194-1.497-5.662-4.159-7.42
		c-0.063-0.041-0.126-0.078-0.217-0.135c0.441-0.38,0.751-0.837,0.912-1.429c0.29,0.194,0.57,0.362,0.829,0.559
		c2.758,2.098,4.213,4.874,4.328,8.343c0.018,0.51,0.127,0.625,0.639,0.626c0.165,0,0.331-0.005,0.495,0.003
		c0.134,0.007,0.191,0.075,0.092,0.192C23.273,13.387,22.594,14.176,21.887,14.996z"/>
	<path fill-rule="evenodd" clip-rule="evenodd" fill="#F48622" d="M11.716,19.637c0,0.236-0.003,0.475,0,0.711
		c0.006,0.383,0.151,0.531,0.53,0.521c3.195-0.096,5.666-1.49,7.427-4.152c0.046-0.068,0.088-0.139,0.143-0.225
		c0.38,0.451,0.848,0.748,1.414,0.912c-0.705,1.182-1.589,2.18-2.67,2.996c-1.846,1.395-3.926,2.121-6.241,2.162
		c-0.477,0.008-0.602,0.135-0.604,0.607c-0.001,0.219,0,0.436,0,0.729c-0.135-0.086-0.199-0.115-0.249-0.158
		c-0.71-0.609-1.415-1.223-2.129-1.826c-0.166-0.141-0.189-0.227-0.006-0.379c0.697-0.584,1.382-1.184,2.073-1.775
		c0.07-0.061,0.154-0.107,0.231-0.16C11.662,19.611,11.689,19.625,11.716,19.637z"/>
</g>
</svg>
