<?xml version="1.0" encoding="utf-8"?>
<!-- Generator: Adobe Illustrator 16.0.0, SVG Export Plug-In . SVG Version: 6.00 Build 0)  -->
<!DOCTYPE svg PUBLIC "-//W3C//DTD SVG 1.1//EN" "http://www.w3.org/Graphics/SVG/1.1/DTD/svg11.dtd">
<svg version="1.1" id="Layer_1" xmlns="http://www.w3.org/2000/svg" xmlns:xlink="http://www.w3.org/1999/xlink" x="0px" y="0px"
	 width="24px" height="24px" viewBox="0 0 24 24" enable-background="new 0 0 24 24" xml:space="preserve">
<g>
	<path fill-rule="evenodd" clip-rule="evenodd" fill="#F48622" d="M11.008,23.648c-0.228-0.086-0.448-0.158-0.657-0.25
		c-2.557-1.137-5.119-2.264-7.667-3.418c-1.556-0.703-2.367-1.939-2.379-3.648c-0.02-2.842-0.009-5.686-0.001-8.529
		c0.001-0.351,0.062-0.702,0.101-1.108c1.807,0.8,3.554,1.575,5.303,2.348c1.75,0.775,3.502,1.546,5.301,2.338
		C11.008,15.393,11.008,19.5,11.008,23.648z"/>
	<path fill-rule="evenodd" clip-rule="evenodd" fill="#F48622" d="M12.981,23.654c0-4.145,0-8.246,0-12.297
		c1.358-0.581,2.693-1.153,4.066-1.74c0,0.791-0.009,1.551,0.002,2.308c0.011,0.687,0.66,1.138,1.293,0.917
		c0.401-0.141,0.649-0.515,0.652-1.002c0.005-0.944,0.008-1.889-0.004-2.833c-0.002-0.202,0.059-0.299,0.248-0.381
		c1.354-0.592,2.707-1.198,4.059-1.8c0.073-0.032,0.149-0.059,0.276-0.108c0.042,0.317,0.114,0.612,0.116,0.907
		c0.008,2.964,0.041,5.929-0.01,8.894c-0.027,1.613-0.871,2.787-2.342,3.453c-2.586,1.172-5.185,2.314-7.779,3.465
		C13.385,23.516,13.202,23.572,12.981,23.654z"/>
	<path fill-rule="evenodd" clip-rule="evenodd" fill="#F48622" d="M7.471,2.018C8.242,1.673,8.983,1.324,9.74,1.011
		c0.54-0.224,1.088-0.445,1.654-0.584c0.697-0.17,1.399-0.063,2.054,0.227c2.689,1.187,5.376,2.378,8.055,3.588
		c0.376,0.171,0.704,0.452,1.093,0.708c-0.105,0.068-0.137,0.093-0.173,0.108c-1.406,0.627-2.813,1.255-4.225,1.874
		c-0.088,0.039-0.224,0.046-0.308,0.006c-3.443-1.613-6.882-3.232-10.32-4.852C7.545,2.075,7.525,2.056,7.471,2.018z"/>
	<path fill-rule="evenodd" clip-rule="evenodd" fill="#F48622" d="M15.65,8.074c-0.914,0.404-1.768,0.808-2.641,1.159
		c-0.728,0.291-1.477,0.254-2.195-0.064C7.748,7.809,4.684,6.44,1.62,5.075C1.567,5.051,1.519,5.016,1.394,4.941
		c0.418-0.265,0.773-0.538,1.168-0.73c0.764-0.373,1.549-0.705,2.333-1.04c0.103-0.044,0.262-0.042,0.364,0.005
		c3.406,1.593,6.81,3.195,10.211,4.796C15.516,7.994,15.556,8.021,15.65,8.074z"/>
</g>
</svg>
