<?xml version="1.0" encoding="utf-8"?>
<!-- Generator: Adobe Illustrator 16.0.0, SVG Export Plug-In . SVG Version: 6.00 Build 0)  -->
<!DOCTYPE svg PUBLIC "-//W3C//DTD SVG 1.1//EN" "http://www.w3.org/Graphics/SVG/1.1/DTD/svg11.dtd">
<svg version="1.1" id="Layer_1" xmlns="http://www.w3.org/2000/svg" xmlns:xlink="http://www.w3.org/1999/xlink" x="0px" y="0px"
	 width="24px" height="24px" viewBox="0 0 24 24" enable-background="new 0 0 24 24" xml:space="preserve">
<path fill-rule="evenodd" clip-rule="evenodd" fill="#F48622" d="M11.998,23.807C5.562,23.848,0.235,18.574,0.192,12.115
	C0.148,5.523,5.405,0.216,12,0.193c6.489-0.023,11.767,5.251,11.807,11.8C23.847,18.49,18.577,23.764,11.998,23.807z M10.684,12.048
	c0,0.081,0,0.18,0,0.282c0,1.572,0,3.145,0.001,4.715c0.002,0.152,0.007,0.307,0.033,0.457c0.12,0.709,0.847,1.188,1.548,1.031
	c0.663-0.146,1.048-0.66,1.049-1.408c0.001-2.102,0.001-4.202,0-6.303c-0.001-0.112-0.01-0.222-0.025-0.332
	c-0.09-0.618-0.603-1.088-1.223-1.104c-0.477-0.012-0.957-0.012-1.434-0.002c-0.595,0.014-1.087,0.432-1.226,1.019
	c-0.133,0.568,0.145,1.183,0.674,1.444C10.262,11.934,10.463,11.976,10.684,12.048z M12.005,8.058
	c0.717,0.002,1.308-0.586,1.308-1.298c0-0.729-0.591-1.321-1.316-1.319c-0.715,0.002-1.301,0.586-1.307,1.302
	C10.684,7.47,11.272,8.058,12.005,8.058z"/>
</svg>
