<?xml version="1.0" encoding="utf-8"?>
<!-- Generator: Adobe Illustrator 16.0.0, SVG Export Plug-In . SVG Version: 6.00 Build 0)  -->
<!DOCTYPE svg PUBLIC "-//W3C//DTD SVG 1.1//EN" "http://www.w3.org/Graphics/SVG/1.1/DTD/svg11.dtd">
<svg version="1.1" id="Layer_1" xmlns="http://www.w3.org/2000/svg" xmlns:xlink="http://www.w3.org/1999/xlink" x="0px" y="0px"
	 width="24px" height="24px" viewBox="0 0 24 24" enable-background="new 0 0 24 24" xml:space="preserve">
<g>
	<path fill-rule="evenodd" clip-rule="evenodd" fill="#F48622" d="M23.181,14.732c-0.198-0.134-0.328-0.209-0.44-0.306
		c-0.054-0.047-0.091-0.134-0.104-0.208c-0.1-0.592-0.181-1.186-0.293-1.775c-0.16-0.823-0.574-1.464-1.365-1.824
		c-0.07-0.031-0.131-0.14-0.146-0.222c-0.524-2.839-1.957-5.091-4.363-6.7c-1.719-1.151-3.606-1.589-5.665-1.306
		C9.762,2.536,8.72,2.683,7.748,3.104c-2.72,1.179-4.384,3.264-5.127,6.103c-0.344,1.315-0.391,2.65-0.144,3.992
		c0.012,0.064-0.018,0.168-0.064,0.204c-0.837,0.655-1.051,1.52-0.876,2.524c0.063,0.359,0.102,0.725,0.096,1.118
		C1.568,16.969,1.5,16.894,1.44,16.812c-0.578-0.796-0.875-1.704-1.017-2.659c-0.469-3.171,0.117-6.132,1.905-8.805
		C4.052,2.771,6.465,1.22,9.537,0.715c1.112-0.183,2.228-0.342,3.357-0.293c1.859,0.083,3.537,0.713,5.061,1.75
		c3.26,2.218,5.104,5.325,5.671,9.205c0.111,0.753,0.13,1.518-0.04,2.265C23.504,14.008,23.326,14.352,23.181,14.732z"/>
	<path fill-rule="evenodd" clip-rule="evenodd" fill="#F48622" d="M7.84,19.477c-0.029,0.19-0.045,0.47-0.117,0.731
		c-0.185,0.675-0.772,0.952-1.425,0.705c-0.437-0.168-0.735-0.489-0.873-0.911c-0.215-0.652-0.411-1.32-0.537-1.995
		C4.702,17.009,4.563,16,4.445,14.992c-0.088-0.75,0.021-1.468,0.576-2.047c0.533-0.555,1.027-0.518,1.459,0.121
		c0.38,0.562,0.545,1.21,0.708,1.855C7.561,16.389,7.719,17.889,7.84,19.477z"/>
	<path fill-rule="evenodd" clip-rule="evenodd" fill="#F48622" d="M20.2,17.168c-0.054,0.37-0.086,0.745-0.171,1.106
		c-0.074,0.316-0.276,0.567-0.564,0.735c-0.388,0.226-0.813,0.185-1.07-0.184c-0.215-0.308-0.4-0.664-0.487-1.027
		c-0.403-1.703-0.711-3.427-0.722-5.186c-0.002-0.437,0.049-0.886,0.156-1.308c0.165-0.636,0.575-0.769,1.14-0.432
		c0.452,0.271,0.761,0.67,0.895,1.163c0.185,0.681,0.335,1.375,0.44,2.071C19.972,15.121,20.076,16.141,20.2,17.168z"/>
	<path fill-rule="evenodd" clip-rule="evenodd" fill="#F48622" d="M22.844,16.517c0.18,0.825,0.39,1.701,0.238,2.61
		c-0.173,1.042-0.805,1.729-1.767,2.055c-0.888,0.301-1.808,0.529-2.728,0.704c-1.095,0.209-2.209,0.324-3.313,0.479
		c-0.099,0.013-0.197,0.024-0.303,0.039c-0.092,0.58-0.37,1.012-0.936,1.2c-0.696,0.233-1.394,0.268-2.063-0.084
		c-0.373-0.196-0.504-0.612-0.378-1.119c0.178-0.718,0.629-1.192,1.34-1.381c0.686-0.179,1.281,0.005,1.768,0.539
		c0.058,0.063,0.189,0.096,0.281,0.084c1.059-0.133,2.12-0.247,3.171-0.429c0.835-0.143,1.656-0.37,2.482-0.563
		c0.031-0.007,0.065-0.021,0.096-0.029c1.341-0.454,1.823-1.235,1.626-2.64c-0.026-0.186,0.023-0.322,0.105-0.487
		C22.626,17.174,22.728,16.823,22.844,16.517z"/>
	<path fill-rule="evenodd" clip-rule="evenodd" fill="#F48622" d="M4.592,19.992c-0.667,0.287-1.25,0.091-1.58-0.522
		c-0.292-0.547-0.397-1.146-0.489-1.748c-0.108-0.707-0.206-1.416-0.297-2.127c-0.067-0.525,0.039-1.015,0.414-1.412
		c0.256-0.273,0.572-0.402,0.948-0.292C3.644,13.908,3.72,14,3.718,14.053c-0.063,2.011,0.363,3.951,0.869,5.879
		C4.591,19.947,4.59,19.962,4.592,19.992z"/>
	<path fill-rule="evenodd" clip-rule="evenodd" fill="#F48622" d="M20.916,17.525c-0.138-2.052-0.316-4.099-0.947-6.092
		c0.211-0.213,0.512-0.255,0.838-0.073c0.48,0.268,0.723,0.711,0.809,1.231c0.162,0.994,0.324,1.991,0.435,2.992
		c0.047,0.406,0.006,0.836-0.079,1.238C21.869,17.317,21.425,17.576,20.916,17.525z"/>
</g>
</svg>
