<?xml version="1.0" encoding="utf-8"?>
<!-- Generator: Adobe Illustrator 16.0.0, SVG Export Plug-In . SVG Version: 6.00 Build 0)  -->
<!DOCTYPE svg PUBLIC "-//W3C//DTD SVG 1.1//EN" "http://www.w3.org/Graphics/SVG/1.1/DTD/svg11.dtd">
<svg version="1.1" id="Layer_1" xmlns="http://www.w3.org/2000/svg" xmlns:xlink="http://www.w3.org/1999/xlink" x="0px" y="0px"
	 width="18.686px" height="18.695px" viewBox="0 0 18.686 18.695" enable-background="new 0 0 18.686 18.695" xml:space="preserve">
<g>
	<path fill-rule="evenodd" clip-rule="evenodd" fill="#F48622" d="M3.847,0C4.217,0.08,4.573,0.193,4.87,0.443
		c0.041,0.036,0.085,0.069,0.124,0.108C5.833,1.39,6.676,2.225,7.51,3.069c0.619,0.627,0.728,1.489,0.291,2.206
		c-0.197,0.324-0.475,0.553-0.83,0.68c-0.515,0.186-0.914,0.5-1.135,1.013c-0.147,0.341-0.167,0.691-0.072,1.05
		C6.005,8.927,6.498,9.694,7.1,10.399c0.765,0.896,1.648,1.654,2.712,2.179c0.376,0.186,0.768,0.357,1.198,0.338
		c0.815-0.037,1.388-0.431,1.676-1.207c0.138-0.373,0.37-0.667,0.712-0.87c0.651-0.387,1.477-0.334,2.037,0.178
		c0.538,0.492,1.043,1.02,1.56,1.537c0.421,0.421,0.857,0.83,1.248,1.279c0.524,0.599,0.539,1.538,0.075,2.187
		c-0.094,0.132-0.201,0.258-0.315,0.375c-0.493,0.498-0.998,0.982-1.482,1.487c-0.441,0.461-0.97,0.718-1.601,0.784
		c-0.028,0.003-0.055,0.02-0.083,0.03c-0.255,0-0.51,0-0.768,0c-0.337-0.065-0.681-0.114-1.014-0.199
		c-1.377-0.35-2.62-0.997-3.802-1.76c-1.966-1.269-3.691-2.817-5.23-4.572C2.67,10.62,1.497,8.955,0.69,7.056
		C0.31,6.162,0.031,5.24,0.002,4.257c-0.025-0.865,0.205-1.626,0.87-2.23C1.304,1.634,1.71,1.212,2.112,0.79
		C2.484,0.397,2.889,0.074,3.445,0C3.579,0,3.713,0,3.847,0z"/>
</g>
<g>
	<path fill-rule="evenodd" clip-rule="evenodd" fill="#F48622" d="M31.934,79.223c0.065-0.201,0.13-0.401,0.19-0.589
		c2.391,2.369,4.765,4.723,7.143,7.08c-2.386,2.365-4.763,4.719-7.148,7.08c-0.048-0.144-0.117-0.347-0.185-0.549
		C31.934,87.905,31.934,83.564,31.934,79.223z"/>
	<path fill-rule="evenodd" clip-rule="evenodd" fill="#F48622" d="M55.578,92.246c-0.066,0.199-0.132,0.4-0.192,0.587
		c-2.39-2.368-4.764-4.721-7.142-7.079c2.393-2.368,4.771-4.723,7.154-7.081c0.05,0.149,0.113,0.35,0.18,0.551
		C55.578,83.564,55.578,87.905,55.578,92.246z"/>
	<path fill-rule="evenodd" clip-rule="evenodd" fill="#F48622" d="M33.126,77.589c0.287-0.063,0.524-0.117,0.763-0.161
		c0.09-0.016,0.185-0.007,0.277-0.007c6.395,0,12.787,0,19.183-0.001c0.342-0.001,0.672,0.041,1.006,0.197
		c-0.065,0.071-0.115,0.127-0.166,0.18c-3.26,3.271-6.52,6.539-9.779,9.809c-0.428,0.429-0.878,0.429-1.305-0.001
		c-3.261-3.27-6.521-6.539-9.781-9.808C33.276,77.748,33.229,77.698,33.126,77.589z"/>
	<path fill-rule="evenodd" clip-rule="evenodd" fill="#F48622" d="M47.216,86.775c2.381,2.357,4.752,4.705,7.17,7.101
		c-0.282,0.063-0.515,0.119-0.75,0.163c-0.09,0.018-0.185,0.008-0.276,0.008c-6.401,0-12.802-0.002-19.203,0.001
		c-0.339,0-0.67-0.035-0.998-0.202c2.388-2.363,4.757-4.711,7.144-7.075c0.021,0.019,0.081,0.071,0.14,0.13
		c0.564,0.566,1.128,1.134,1.694,1.699c0.956,0.959,2.281,0.959,3.24,0.003C45.997,87.982,46.621,87.367,47.216,86.775z"/>
</g>
</svg>
