<?xml version="1.0" encoding="utf-8"?>
<!-- Generator: Adobe Illustrator 16.0.0, SVG Export Plug-In . SVG Version: 6.00 Build 0)  -->
<!DOCTYPE svg PUBLIC "-//W3C//DTD SVG 1.1//EN" "http://www.w3.org/Graphics/SVG/1.1/DTD/svg11.dtd">
<svg version="1.1" id="Layer_1" xmlns="http://www.w3.org/2000/svg" xmlns:xlink="http://www.w3.org/1999/xlink" x="0px" y="0px"
	 width="14px" height="11.677px" viewBox="0 0 14 11.677" enable-background="new 0 0 14 11.677" xml:space="preserve">
<path fill-rule="evenodd" clip-rule="evenodd" fill="#F2841C" d="M0,3.991c0-0.219,0-0.438,0-0.656
	c0.027-0.17,0.049-0.34,0.083-0.509c0.4-1.989,2.154-3.048,3.977-2.785c0.904,0.13,1.688,0.522,2.391,1.091
	c0.189,0.154,0.368,0.322,0.555,0.486c0.083-0.078,0.161-0.154,0.241-0.227C8.078,0.64,9.02,0.125,10.156,0.017
	c1.747-0.166,3.273,0.897,3.709,2.596C13.926,2.849,13.956,3.094,14,3.334c0,0.219,0,0.438,0,0.656
	c-0.008,0.03-0.02,0.061-0.023,0.091c-0.045,0.453-0.171,0.883-0.35,1.299c-0.427,0.994-1.075,1.835-1.814,2.61
	c-1.391,1.457-3.002,2.632-4.727,3.659c-0.072,0.043-0.123,0.031-0.184-0.009c-0.739-0.491-1.496-0.957-2.215-1.476
	C3.483,9.297,2.378,8.314,1.452,7.145C0.903,6.452,0.435,5.711,0.185,4.854C0.102,4.572,0.061,4.279,0,3.991z"/>
</svg>
