<?xml version="1.0" encoding="utf-8"?>
<!-- Generator: Adobe Illustrator 16.0.0, SVG Export Plug-In . SVG Version: 6.00 Build 0)  -->
<!DOCTYPE svg PUBLIC "-//W3C//DTD SVG 1.1//EN" "http://www.w3.org/Graphics/SVG/1.1/DTD/svg11.dtd">
<svg version="1.1" id="Layer_1" xmlns="http://www.w3.org/2000/svg" xmlns:xlink="http://www.w3.org/1999/xlink" x="0px" y="0px"
	 width="56px" height="56px" viewBox="0 0 56 56" enable-background="new 0 0 56 56" xml:space="preserve">
<g>
	<g>
		<path fill-rule="evenodd" clip-rule="evenodd" fill="#0732A6" d="M9.952,49.895c4.736-4.729,4.577-15.615,0.015-20.019
			c0.195-0.022,0.337-0.054,0.479-0.054c12.925-0.002,25.849,0,38.772-0.003c1.369,0,2.335,0.731,3.134,1.74
			c1.285,1.624,1.916,3.525,2.217,5.541c0.46,3.095,0.263,6.134-1.023,9.028c-0.327,0.735-0.763,1.438-1.247,2.083
			c-0.867,1.154-2.017,1.703-3.521,1.699c-12.659-0.031-25.318-0.017-37.978-0.017C10.558,49.895,10.316,49.895,9.952,49.895z
			 M39.307,36.997c-2.521,0-5.042,0-7.563,0c-0.184,0-0.41-0.061-0.539,0.025c-0.227,0.148-0.568,0.414-0.545,0.586
			c0.034,0.237,0.345,0.456,0.572,0.638c0.087,0.071,0.274,0.018,0.417,0.018c5.103,0.001,10.206,0.001,15.308,0.001
			c0.102,0,0.203-0.003,0.305-0.003c0.438,0.006,0.719-0.206,0.715-0.645c-0.003-0.408-0.271-0.614-0.682-0.617
			c-0.163-0.001-0.325-0.003-0.487-0.003C44.307,36.997,41.806,36.997,39.307,36.997z M23.679,47.188c1.891,0,3.781,0,5.672-0.001
			c0.162,0,0.325,0.003,0.487-0.003c0.413-0.016,0.713-0.244,0.626-0.638c-0.053-0.239-0.365-0.452-0.605-0.604
			c-0.131-0.083-0.356-0.02-0.539-0.02c-3.354-0.002-6.708,0-10.063,0c-0.487,0-0.975,0.007-1.463-0.003
			c-0.483-0.012-0.962,0.038-0.954,0.652c0.007,0.568,0.46,0.639,0.924,0.616c0.122-0.006,0.244,0,0.366,0
			C19.979,47.188,21.83,47.188,23.679,47.188z M41.824,47.188c1.789,0,3.58,0.004,5.37-0.003c0.539-0.003,0.847-0.282,0.783-0.699
			c-0.07-0.451-0.39-0.567-0.802-0.565c-1.871,0.006-3.744,0.003-5.615,0.003c-1.669,0-3.338,0.001-5.006-0.002
			c-0.481-0.001-0.817,0.183-0.775,0.705c0.037,0.452,0.381,0.565,0.795,0.564C38.324,47.183,40.074,47.188,41.824,47.188z
			 M22.305,36.997c-1.525,0-3.053,0.006-4.578-0.004c-0.477-0.003-0.902,0.09-0.889,0.659c0.013,0.525,0.417,0.616,0.872,0.615
			c3.051-0.007,6.104-0.006,9.155-0.001c0.475,0.001,0.899-0.082,0.888-0.659c-0.01-0.541-0.423-0.614-0.871-0.613
			C25.357,37,23.831,36.997,22.305,36.997z M21.392,42.746c1.198,0,2.396,0.003,3.595-0.002c0.645-0.001,0.987-0.239,0.944-0.677
			c-0.055-0.569-0.476-0.63-0.936-0.629c-2.417,0.003-4.833,0.005-7.25-0.001c-0.473-0.001-0.906,0.095-0.909,0.65
			c-0.003,0.555,0.428,0.662,0.9,0.661C18.956,42.741,20.174,42.746,21.392,42.746z M43.403,33.82c1.259,0,2.518,0.012,3.777-0.006
			c0.656-0.008,1.044-0.553,0.692-0.974c-0.161-0.193-0.521-0.308-0.792-0.311c-2.416-0.022-4.832-0.014-7.248-0.013
			c-0.652,0.002-0.985,0.228-0.95,0.666c0.045,0.575,0.472,0.637,0.928,0.637C41.009,33.82,42.205,33.82,43.403,33.82z
			 M38.333,41.44c-0.733,0-1.464,0.001-2.196,0c-0.457-0.002-0.834,0.134-0.829,0.665c0.005,0.493,0.361,0.639,0.797,0.639
			c1.523,0.002,3.048,0.003,4.572,0c0.434,0,0.792-0.141,0.799-0.637c0.007-0.53-0.367-0.669-0.827-0.667
			C39.877,41.441,39.104,41.44,38.333,41.44z M26.417,33.82c0.752,0,1.504,0.002,2.255-0.001c0.452-0.002,0.841-0.13,0.831-0.665
			c-0.008-0.535-0.397-0.641-0.851-0.64c-1.485,0.006-2.968,0.006-4.452,0c-0.45-0.001-0.85,0.095-0.861,0.63
			c-0.011,0.576,0.414,0.676,0.881,0.676C24.953,33.82,25.684,33.82,26.417,33.82z M33.962,33.819c0.57,0,1.139,0.007,1.707-0.003
			c0.412-0.007,0.743-0.185,0.747-0.633c0.006-0.474-0.32-0.666-0.771-0.666c-1.097,0-2.194,0.002-3.293-0.001
			c-0.436,0-0.789,0.137-0.8,0.631c-0.013,0.539,0.374,0.666,0.824,0.672C32.904,33.825,33.434,33.82,33.962,33.819z M30.823,41.44
			c-0.55,0-1.099-0.002-1.647,0.001c-0.443,0.002-0.78,0.183-0.779,0.661c0.001,0.445,0.322,0.636,0.738,0.639
			c1.139,0.009,2.278,0.012,3.415-0.001c0.414-0.006,0.723-0.199,0.715-0.658c-0.007-0.457-0.32-0.631-0.734-0.639
			C31.96,41.434,31.392,41.441,30.823,41.44z M45.934,41.443c-0.466,0-0.933-0.013-1.396,0.004c-0.393,0.015-0.666,0.208-0.677,0.63
			c-0.01,0.42,0.255,0.646,0.644,0.656c0.932,0.022,1.865,0.018,2.796,0.004c0.396-0.006,0.675-0.223,0.68-0.63
			c0.005-0.438-0.283-0.653-0.708-0.663C46.826,41.434,46.38,41.441,45.934,41.443z M18.917,32.518c-0.446,0-0.892,0-1.338,0
			c-0.423,0.002-0.728,0.187-0.745,0.625c-0.017,0.445,0.285,0.662,0.703,0.67c0.91,0.017,1.823,0.018,2.735-0.003
			c0.414-0.009,0.703-0.225,0.679-0.684c-0.024-0.422-0.305-0.597-0.697-0.604C19.809,32.512,19.363,32.52,18.917,32.518z"/>
		<path fill-rule="evenodd" clip-rule="evenodd" fill="#0732A6" d="M13.448,28.531c0.128-4.292-0.428-8.272-3.504-11.643
			c0.288,0,0.491,0,0.693,0c3.583,0,7.166,0,10.749-0.001c0.833,0,0.992-0.162,0.994-1.001c0.003-1.16-0.022-2.321,0.016-3.48
			c0.011-0.34,0.128-0.717,0.312-1.006c0.662-1.046,1.374-2.063,2.099-3.139c1.155,0.878,2.47,1.01,3.959,0.872
			c-0.361,0.672-0.702,1.241-0.975,1.84c-0.154,0.339-0.271,0.726-0.281,1.094c-0.034,1.261-0.016,2.523-0.013,3.785
			c0.001,0.937,0.104,1.036,1.067,1.036c6.718,0,13.436,0.021,20.152-0.016c1.571-0.009,2.744,0.601,3.67,1.804
			c1.29,1.675,1.918,3.619,2.215,5.674c0.353,2.464,0.246,4.908-0.494,7.408c-0.17-0.231-0.297-0.401-0.417-0.573
			c-1.239-1.767-2.851-2.687-5.096-2.677c-11.439,0.048-22.879,0.022-34.318,0.022C14.014,28.531,13.753,28.531,13.448,28.531z
			 M39.312,25.354c2.501,0,5.002,0.001,7.503-0.001c0.222,0,0.488,0.052,0.658-0.049c0.213-0.126,0.498-0.402,0.477-0.582
			c-0.025-0.229-0.309-0.449-0.521-0.627c-0.085-0.07-0.275-0.02-0.416-0.02c-5.145,0-10.288,0-15.431,0
			c-0.123,0-0.282-0.045-0.359,0.014c-0.219,0.171-0.578,0.402-0.561,0.579c0.022,0.237,0.316,0.491,0.55,0.65
			c0.142,0.096,0.396,0.036,0.599,0.036C34.312,25.355,36.812,25.354,39.312,25.354z M22.324,24.075
			c-1.547,0-3.092,0.007-4.639-0.004c-0.467-0.002-0.847,0.122-0.848,0.642c-0.001,0.527,0.401,0.643,0.854,0.643
			c3.072-0.003,6.146-0.001,9.219-0.001c0.447,0,0.853-0.104,0.845-0.645c-0.007-0.529-0.392-0.64-0.852-0.637
			C25.376,24.081,23.851,24.075,22.324,24.075z M43.396,20.894c1.239,0,2.477-0.005,3.716,0.003
			c0.456,0.003,0.849-0.109,0.862-0.629c0.016-0.523-0.365-0.667-0.825-0.667c-2.478,0.001-4.954,0-7.431,0
			c-0.453,0-0.843,0.124-0.83,0.659c0.011,0.529,0.4,0.638,0.854,0.636C40.96,20.891,42.179,20.894,43.396,20.894z M26.424,20.894
			c0.772,0,1.544,0,2.316,0c0.448,0,0.772-0.174,0.766-0.663c-0.006-0.458-0.324-0.626-0.741-0.627
			c-1.564-0.004-3.129-0.004-4.694,0c-0.416,0.001-0.732,0.176-0.735,0.632c-0.002,0.489,0.325,0.658,0.772,0.658
			C24.88,20.893,25.652,20.894,26.424,20.894z M33.987,20.894c0.549,0,1.098-0.003,1.646,0c0.449,0.003,0.779-0.18,0.783-0.654
			c0.003-0.445-0.317-0.634-0.736-0.637c-1.138-0.005-2.276-0.008-3.414,0.002c-0.416,0.003-0.724,0.187-0.717,0.648
			c0.009,0.456,0.311,0.633,0.729,0.637C32.85,20.898,33.418,20.894,33.987,20.894z M18.872,20.894c0.446,0,0.892,0.002,1.338-0.001
			c0.417-0.002,0.724-0.167,0.741-0.622c0.015-0.457-0.277-0.658-0.696-0.664c-0.912-0.013-1.824-0.011-2.735,0
			c-0.396,0.005-0.679,0.212-0.686,0.62c-0.008,0.437,0.271,0.656,0.702,0.664C17.981,20.9,18.427,20.894,18.872,20.894z"/>
		<path fill-rule="evenodd" clip-rule="evenodd" fill="#0732A6" d="M12.247,39.879c-0.1,2.716-0.567,5.313-2.046,7.64
			c-0.292,0.459-0.645,0.896-1.036,1.274c-1.531,1.493-3.468,1.46-4.981-0.056c-1.03-1.032-1.705-2.284-2.129-3.657
			c-1.232-3.99-1.187-7.947,0.566-11.783c0.396-0.868,0.997-1.693,1.667-2.378c1.489-1.519,3.414-1.464,4.917,0.044
			c1.558,1.562,2.279,3.539,2.666,5.647C12.066,37.688,12.125,38.788,12.247,39.879z M9.515,39.792
			c-0.045-1.309-0.342-2.361-0.867-3.145c-1.074-1.604-2.797-1.607-3.875-0.01c-1.152,1.709-1.155,4.711-0.006,6.435
			c1.07,1.603,2.802,1.609,3.874,0.007C9.323,42.062,9.503,40.908,9.515,39.792z"/>
		<path fill-rule="evenodd" clip-rule="evenodd" fill="#0732A6" d="M12.11,28.499c-0.944,0-1.812,0-2.588,0
			c-0.068-1.081-0.038-2.14-0.23-3.157c-0.127-0.67-0.477-1.351-0.892-1.904c-0.927-1.235-2.381-1.217-3.383-0.033
			c-0.682,0.806-0.982,1.772-1.065,2.806c-0.041,0.504-0.041,1.019,0.008,1.523c0.049,0.501,0.185,0.995,0.264,1.397
			c-0.79,0.847-1.546,1.658-2.388,2.56c-0.174-0.984-0.414-1.956-0.504-2.941c-0.282-3.07,0.019-6.064,1.516-8.825
			c0.381-0.706,0.879-1.381,1.448-1.945c1.469-1.454,3.338-1.427,4.839-0.007c0.889,0.84,1.488,1.875,1.946,2.997
			C12.065,23.373,12.298,25.876,12.11,28.499z"/>
		<path fill-rule="evenodd" clip-rule="evenodd" fill="#0732A6" d="M5.447,28.623c-0.425-1.424-0.399-2.844,0.402-4.179
			c0.504-0.841,1.191-0.845,1.707-0.021c0.739,1.187,0.813,2.487,0.505,3.816c-0.029,0.128-0.322,0.264-0.502,0.279
			C6.876,28.577,6.189,28.59,5.447,28.623z"/>
		<path fill-rule="evenodd" clip-rule="evenodd" fill="#0732A6" d="M27.786,8.021C27.15,7.83,26.51,7.703,25.928,7.442
			c-0.526-0.236-0.505-0.592-0.034-0.91c0.878-0.593,2.872-0.592,3.748,0.001c0.471,0.319,0.49,0.672-0.035,0.912
			C29.046,7.702,28.425,7.826,27.786,8.021z"/>
		<path fill-rule="evenodd" clip-rule="evenodd" fill="#0732A6" d="M8.382,39.913c-0.258,0.801-0.426,1.646-0.798,2.388
			c-0.47,0.935-1.248,0.937-1.75,0.03c-0.916-1.651-0.907-3.348,0.033-4.99c0.47-0.82,1.147-0.808,1.674-0.028
			c0.52,0.769,0.667,1.644,0.691,2.549C8.282,39.878,8.333,39.896,8.382,39.913z"/>
	</g>
</g>
</svg>
