<?xml version="1.0" encoding="utf-8"?>
<!-- Generator: Adobe Illustrator 16.0.0, SVG Export Plug-In . SVG Version: 6.00 Build 0)  -->
<!DOCTYPE svg PUBLIC "-//W3C//DTD SVG 1.1//EN" "http://www.w3.org/Graphics/SVG/1.1/DTD/svg11.dtd">
<svg version="1.1" id="Layer_1" xmlns="http://www.w3.org/2000/svg" xmlns:xlink="http://www.w3.org/1999/xlink" x="0px" y="0px"
	 width="56px" height="56px" viewBox="0 0 56 56" enable-background="new 0 0 56 56" xml:space="preserve">
<g>
	<path fill-rule="evenodd" clip-rule="evenodd" fill="#0732A6" d="M0.371,37.9c1.282-0.734,2.511-1.598,3.861-2.17
		c1.526-0.648,3.368,0.053,4.167,1.539c2.001,3.721,3.958,7.467,5.847,11.246c0.833,1.668,0.14,3.582-1.472,4.58
		c-0.903,0.559-1.823,1.09-2.735,1.633c-3.223,0-6.445,0-9.668,0C0.371,49.119,0.371,43.51,0.371,37.9z"/>
	<path fill-rule="evenodd" clip-rule="evenodd" fill="#0732A6" d="M11.487,31.184c-0.02-0.434-0.042-0.717-0.042-1
		c-0.002-8.354-0.003-16.707,0-25.06c0.001-2.504,1.29-3.826,3.78-3.843c2.894-0.019,5.788-0.005,8.681-0.002
		c0.234,0,0.467,0.033,0.804,0.059c0,0.351,0,0.668,0,0.985c0,3.371,0.013,6.743-0.008,10.114c-0.005,0.906,0.225,1.653,1.063,2.103
		c0.843,0.453,1.597,0.209,2.341-0.292c0.833-0.561,1.694-1.482,2.549-1.49c0.816-0.008,1.65,0.945,2.457,1.503
		c0.744,0.515,1.506,0.73,2.34,0.266c0.828-0.459,1.064-1.219,1.061-2.115c-0.01-3.341-0.004-6.683-0.004-10.024
		c0-0.326,0-0.651,0-0.931c0.113-0.078,0.16-0.14,0.209-0.141c3.281-0.007,6.563-0.069,9.842,0.011
		c1.898,0.047,3.199,1.491,3.205,3.401c0.021,6.533,0.014,13.066-0.008,19.6c-0.002,0.246-0.207,0.586-0.42,0.718
		c-0.832,0.517-1.736,0.918-2.557,1.452c-2.223,1.448-4.414,2.942-6.621,4.415c-0.27,0.182-0.549,0.346-0.855,0.539
		c-0.717-2.189-2.238-3.139-4.441-3.034c-2.721,0.13-5.293-0.448-7.887-1.257c-5.583-1.743-10.589-0.567-14.881,3.462
		C11.929,30.775,11.763,30.928,11.487,31.184z"/>
	<path fill-rule="evenodd" clip-rule="evenodd" fill="#0732A6" d="M16.157,48.006c-2.074-3.998-4.1-7.902-6.126-11.805
		c0.856-1.105,1.644-2.232,2.541-3.264c3.679-4.233,8.311-5.618,13.626-4.008c2.979,0.902,5.933,1.486,9.033,1.441
		c1.25-0.02,1.982,0.563,2.176,1.557c0.248,1.271-0.23,2.422-1.422,2.729c-1.488,0.383-3.039,0.535-4.57,0.727
		c-2.012,0.25-4.029,0.447-6.045,0.656c-0.648,0.066-1.12,0.33-1.071,1.045c0.05,0.736,0.588,0.906,1.223,0.84
		c3.379-0.363,6.764-0.674,10.131-1.127c1.547-0.207,2.746-1.086,3.416-2.584c0.121-0.273,0.389-0.518,0.646-0.691
		c2.914-1.969,5.844-3.914,8.762-5.879c1.525-1.029,3.168-1.352,4.938-0.832c2.27,0.667,2.971,3.235,1.273,4.872
		c-3.779,3.643-7.555,7.293-11.443,10.82c-2.814,2.555-6.234,3.801-10.051,3.828c-3.432,0.023-6.863,0.043-10.291-0.037
		c-1.773-0.041-3.433,0.219-5.019,1.01C17.356,47.564,16.789,47.752,16.157,48.006z"/>
	<path fill-rule="evenodd" clip-rule="evenodd" fill="#0732A6" d="M26.697,1.363c0.177-0.029,0.348-0.082,0.518-0.082
		c2.409-0.005,4.819-0.004,7.294-0.004c0,3.865,0,7.659,0,11.61c-1.008-0.686-1.977-1.3-2.893-1.982
		c-0.701-0.523-1.305-0.55-2.018-0.008c-0.894,0.68-1.853,1.275-2.902,1.987C26.697,8.966,26.697,5.183,26.697,1.363z"/>
</g>
</svg>
