<?xml version="1.0" encoding="utf-8"?>
<!-- Generator: Adobe Illustrator 16.0.0, SVG Export Plug-In . SVG Version: 6.00 Build 0)  -->
<!DOCTYPE svg PUBLIC "-//W3C//DTD SVG 1.1//EN" "http://www.w3.org/Graphics/SVG/1.1/DTD/svg11.dtd">
<svg version="1.1" id="Layer_1" xmlns="http://www.w3.org/2000/svg" xmlns:xlink="http://www.w3.org/1999/xlink" x="0px" y="0px"
	 width="383.978px" height="362.924px" viewBox="0 0 383.978 362.924" enable-background="new 0 0 383.978 362.924"
	 xml:space="preserve">
<path fill-rule="evenodd" clip-rule="evenodd" fill="#040303" d="M0,301.455c1.502-1.317,1.468-3.312,2.086-4.987
	c8.033-21.779,27.642-36.226,50.805-37.13c2.397-0.093,3.453-0.8,4.079-3.114c2.238-8.279,4.66-16.508,7.063-24.742
	c1.395-4.775,2.654-5.683,7.701-5.831c3.735,2.148,4.402,5.179,3.156,9.196c-2.65,8.542-4.932,17.2-7.58,25.742
	c-0.684,2.205-0.377,3.628,1.146,5.316c12.846,14.237,25.599,28.56,38.403,42.836c0.698,0.779,1.18,2.026,2.627,1.717
	c2.904,0,5.81,0,9.036,0c-0.772-1.912-1.361-3.403-1.974-4.885c-6.816-16.498-12.457-33.347-15.297-51.037
	c-4.232-26.354-1.447-52.165,5.967-77.625c2.534-8.701,2.513-8.707-6.739-8.128c-6.57-0.415-6.564-0.413-8.417,5.939
	c-2.897,9.934-5.806,19.864-8.704,29.797c-1.687,5.781-2.263,6.284-8.108,6.99c-3.778-2.813-3.992-6.235-2.618-10.578
	c3.338-10.553,6.226-21.249,9.414-32.299c-2.217,0-4.062,0.054-5.902-0.011c-4.167-0.146-6.337-2.157-6.367-6.211
	c-0.072-9.873-0.139-19.748,0.033-29.618c0.119-6.765,4.847-10.367,11.36-8.379c12.15,3.709,24.234,7.659,36.224,11.855
	c4.76,1.666,9.417,1.952,14.316,1.474c7.831-0.764,15.676-1.412,23.526-1.944c1.856-0.126,3.3-0.627,4.672-1.861
	c3.899-3.505,9.082-6.244,11.496-10.552c2.417-4.316,0.628-10.29,1.72-15.453c0.592-2.802,2.184-6.121,1.243-8.316
	c-0.967-2.26-5.013-1.968-7.605-3.133c-15.36-6.902-24.836-22.847-23.034-39.276c0.248-2.267,0.015-3.032-2.509-3.042
	c-4.911-0.02-6.772-2.17-6.649-6.942c0.689-26.79,22.74-47.848,49.431-47.208c22.536,0.54,42.951,19.25,45.479,41.694
	c1.754,15.581-1.552,29.76-11.753,41.99c-0.956,1.146-1.736,1.89-0.02,3.204c15.307,11.713,23.907,27.877,29.609,45.755
	c6.438,20.188,8.42,41.014,7.735,62.122c-0.088,2.728-0.646,5.44-1.024,8.459c7.414,0,14.77-0.049,22.122,0.035
	c1.77,0.021,2.043-0.738,2.009-2.241c-0.081-3.498-0.026-6.998-0.026-10.497c0-20.121-0.012-40.242,0.005-60.362
	c0.011-13.857,8.306-22.192,22.06-22.197c20.746-0.007,41.492-0.015,62.237,0.003c12.79,0.011,21.481,8.577,21.509,21.288
	c0.045,21.37,0.051,42.741-0.003,64.111c-0.031,12.479-8.758,21.076-21.291,21.113c-8.124,0.024-16.248,0.085-24.369-0.046
	c-2.321-0.037-3.323,0.397-3.153,2.998c0.243,3.733,0.002,7.495,0.076,11.243c0.098,4.887-1.385,9.09-5.111,12.357
	c-0.996,0.874-1.644,1.541-0.907,3.066c8.091,16.755,8.575,34.419,5.85,52.368c-0.536,3.539,0.988,6.6,1.168,9.93
	c0.142,2.613,0.607,5.217,0.642,7.828c0.065,4.841-2.419,7.721-7.254,7.498c-4.305-0.197-5.985,1.084-7.151,5.435
	c-5.894,21.98-25.337,36.332-47.65,35.737c-21.717-0.578-40.289-16.283-45.258-38.415c-0.445-1.979-1.136-2.64-3.166-2.637
	c-37.492,0.056-74.984,0.056-112.476,0c-2.084-0.003-2.688,0.67-2.983,2.709c-1.059,7.333-3.568,9.048-10.73,7.108
	c-3.371-0.913-4.926-0.363-6.569,3.067c-8.621,17.994-28.864,27.423-48.215,22.88c-19.57-4.596-33.629-22.494-33.181-42.614
	c0.065-2.903-0.758-4.001-3.444-4.326c-3.31-0.4-6.417-1.388-8.765-3.975C0,304.955,0,303.205,0,301.455z M119.908,152.119
	c-1.318,4.099-0.564,5.248,3.533,5.291c2.861,0.031,5.744-0.207,8.581,0.06c3.66,0.343,5.119-0.857,3.996-4.536
	c0.804-3.281,0.145-4.922-3.789-4.043c-2.641,0.59-5.445,0.406-8.158,0.726C122.372,149.815,120.534,150.024,119.908,152.119z
	 M103.472,143.464c-6.617-2.202-13.248-4.363-19.842-6.634c-1.783-0.614-2.723-0.729-2.665,1.684
	c0.131,5.493,0.093,10.992,0.011,16.486c-0.025,1.701,0.359,2.46,2.26,2.412c5.989-0.15,11.982-0.132,17.975-0.18
	c2.1,0.001,4.523,0.654,6.207-0.183c1.64-0.814,0.176-3.43,0.723-5.179c0.073-0.236,0.161-0.488,0.149-0.728
	c-0.104-2.005,2.657-3.944,1.042-5.563C108.003,144.25,105.47,144.124,103.472,143.464z M201.843,124.993
	c-3.923-4.276-8.299-4.732-13.13-0.85c-5.924,4.76-11.797,9.624-17.314,14.841c-5.439,5.141-11.081,8.786-19.066,8.429
	c-5.046-0.227-5.075,0.433-4.652,5.566c0.243,1.647-1.648,4.337,1.959,4.377c6.372,0.069,12.745,0.001,19.118,0.029
	c1.371,0.006,2.328-0.808,3.36-1.476c7.966-5.152,15.916-10.328,23.878-15.486c2.217-1.436,4.282-3.04,5.847-5.197
	C204.464,131.608,204.452,128.772,201.843,124.993z M205.567,79.529l-0.034,0.038c14.928-11.544,17.573-37.73,5.444-53.884
	C202.29,14.11,186.872,8.58,174.221,12.496c-12.144,1.724-23.926,13.395-27.282,26.77c-0.719,2.863-0.397,3.831,2.868,3.777
	c11.595-0.19,23.195-0.138,34.792-0.052c8.844,0.066,13.021,4.298,13.181,13.125c0.059,3.241,0.013,6.484,0.013,9.727
	c0,6.167,0,12.333,0,19.099c2.807-1.659,5.212-2.625,6.949-4.658C205.017,80.032,205.292,79.78,205.567,79.529z M155.211,56.983
	c-3.181,16.478,10.995,32.089,28.498,31.385c2.058,0.434,2.922-0.253,2.902-2.496c-0.088-9.714-0.08-19.43-0.004-29.145
	c0.015-1.977-0.7-2.587-2.615-2.572c-8.719,0.069-17.438,0.082-26.155-0.009C155.674,54.125,154.838,54.879,155.211,56.983z
	 M358.385,151.183c-1.365-0.071-2.729-0.202-4.095-0.202c-18.589-0.014-37.178-0.01-55.767-0.01c-9.521,0-9.463-0.001-9.179,9.39
	c0.058,1.9,0.488,2.585,2.505,2.575c22.202-0.116,44.405-0.143,66.608-0.194c1.736,0.06,3.473,0.168,5.209,0.171
	c9.811,0.017,9.811,0.008,9.053-9.746c-0.01-0.124-0.013-0.25-0.002-0.373c0.131-1.516-0.702-1.912-2.046-1.874
	C366.576,151.034,362.48,151.099,358.385,151.183z M71.932,342.469c4.914-2.597,8.242-6.726,11.069-11.364
	c1.286-2.108,1.239-2.991-1.639-3.631c-18.112-4.031-36.169-8.316-54.247-12.506c-4.174-0.967-4.283-0.829-3.316,3.741
	C25.286,341.889,52.325,355.237,71.932,342.469z M242.967,329.202c7.305,20.618,34.954,29.103,53.199,16.322
	c7.578-4.636,12.221-11.47,15.159-19.725c1.166-3.277,0.372-4.068-2.98-4.05c-20.354,0.114-40.706,0.058-61.06,0.058
	C239.4,321.807,239.287,322,242.967,329.202z M355.46,119.344c-18.97-0.036-37.94-0.125-56.91-0.075
	c-5.417,0.015-8.974,3.797-9.135,9.3c-0.077,2.62,0.15,5.257-0.071,7.859c-0.22,2.571,0.53,3.426,3.235,3.352
	c7.234-0.199,14.478-0.048,21.717-0.072c14.723-0.048,29.445-0.12,44.168-0.182c1.109,0.068,2.224,0.247,3.325,0.184
	c3.544-0.203,8.32,1.597,10.309-0.686c2.1-2.409,0.645-7.112,0.552-10.801c-0.129-5.166-3.866-8.798-9.015-8.974
	C360.914,119.157,358.186,119.305,355.46,119.344z M300.676,214.613c-14.992-0.039-29.986-0.001-44.978-0.166
	c-4.551-0.05-8.868-0.185-12.069,3.931c-0.859,1.106-2.437,1.718-3.771,2.381c-6.651,3.306-13.816,4.092-21.11,4.132
	c-6.497,0.035-12.996-0.031-19.493,0.036c-3.338,0.034-4.178,1.542-4.334,5.878c-0.128,3.55,2.294,2.565,4.051,2.572
	c12.745,0.054,25.49,0.004,38.236,0.043c4.978,0.015,6.62,1.361,7.564,5.887c-0.541,4.158-3.177,5.491-7.053,5.475
	c-13.167-0.055-26.336,0.07-39.501-0.09c-2.87-0.035-3.856,0.84-3.411,3.566c0.119,0.73,0.131,1.478,0.191,2.217
	c-0.057,10.986-0.093,21.973-0.188,32.959c-0.016,1.861-0.171,3.737-0.448,5.579c-0.515,3.435-2.628,5.481-5.877,6.574
	c-2.317,0.779-4.68,0.703-7.043,0.705c-17.485,0.019-34.972,0.002-52.457,0.031c-1.174,0.002-2.427-0.365-3.821,0.478
	c1.429,3.459,3.084,6.812,4.188,10.337c0.927,2.964,2.604,3.528,5.477,3.516c25.104-0.116,50.21-0.191,75.313,0.063
	c3.902,0.04,4.674-1.282,5.124-4.633c4.324-32.266,36.148-56.056,68.283-51.436c12.092,1.738,22.616,6.626,32.076,14.135
	c3.185,3.176,6.338,6.382,9.662,10.75c-0.025-11.838-1.982-21.987-6.571-31.616c-1.095-2.299-2.372-3.253-5.062-3.229
	c-15.846,0.147-31.692,0.087-47.539,0.062c-4.984-0.008-6.139-0.916-7.453-5.531c1.085-4.495,2.731-5.773,7.666-5.806
	c11.464-0.075,22.929-0.119,34.393-0.175c6.229,0.042,12.46,0.021,18.688,0.152c3.227,0.067,4.531-1.53,4.536-4.542
	c0.007-3.864-0.086-7.73,0.039-11.591c0.067-2.078-0.594-2.859-2.748-2.813C314.383,214.592,307.528,214.57,300.676,214.613z
	 M51.736,270.775c-15.033-0.202-33.669,13.244-38.313,27.464c-0.742,2.271,0.58,2.168,1.892,2.468
	c24.886,5.688,49.771,11.376,74.657,17.064c2.294,0.562,4.564,1.264,6.889,1.622c1.078,0.166,2.495,1.598,3.312,0.046
	c0.702-1.335-0.837-2.185-1.625-3.068c-12.688-14.22-25.488-28.341-38.032-42.687C57.93,270.728,55.304,269.818,51.736,270.775z
	 M231.727,180.015c2.863,0.067,5.743-0.03,8.586,0.246c2.759,0.268,3.638-0.507,3.43-3.43c-1.032-14.475-2.97-28.785-7.665-42.569
	c-5.101-14.976-12.528-28.466-25.228-38.557c-2.957-2.349-5.458-3.002-8.383-0.38c-4.603,1.515-9.145,3.235-13.99,3.894
	c-0.951,0.13-2.068,0.201-2.389,1.437c-1.069,4.116-2.127,8.236-2.136,12.73c1.716-0.708,3.064-1.337,4.46-1.831
	c7.521-2.661,14.361-1.228,20.161,4.061c5.577,5.084,7.742,11.546,5.831,19.002c-1.526,5.952-5.32,10.393-10.276,13.816
	c-4.82,3.329-9.774,6.466-14.683,9.667c-1.153,0.752-2.336,1.306-1.831,3.146c1.547,5.644,2.981,11.319,4.419,16.993
	c0.36,1.422,1.084,2.018,2.624,2.003C207.014,180.125,219.37,180.081,231.727,180.015z M358.412,174.334
	c-22.202-0.056-44.405-0.086-66.607-0.209c-2.089-0.012-2.461,0.813-2.444,2.643c0.073,7.984,0.085,15.97-0.008,23.954
	c-0.022,1.89,0.41,2.572,2.452,2.561c21.456-0.117,42.912-0.133,64.368-0.178c2.356,0.048,4.715,0.177,7.069,0.129
	c5.617-0.115,9.324-3.729,9.437-9.347c0.115-5.713-0.024-11.43,0.063-17.145c0.028-1.813-0.326-2.74-2.424-2.636
	C366.355,174.302,362.382,174.271,358.412,174.334z M224.96,213.005c10.544-0.147,17-5.586,18.655-15.717
	c0.958-5.866,0.958-5.889-4.877-5.854c-2.114,0.012-4.228,0.166-6.341,0.255c-13.86-0.062-27.722-0.13-41.582-0.179
	c-2.132-0.007-4.218,0.346-6.263,0.975c-12.203,3.755-17.882,13.006-20.218,24.686c-2.718,13.59-1.074,27.406-1.498,41.119
	c-0.065,2.118,1.193,2.064,2.649,2.058c4.998-0.021,10.001-0.14,14.992,0.048c2.479,0.093,3.197-0.67,3.156-3.14
	c-0.133-7.994,0.012-15.992-0.019-23.989c-0.046-12.134,2.978-20.62,20.046-19.755C210.728,213.871,217.89,214.27,224.96,213.005z
	 M276.714,265.585c-3.268-0.456-6.469,0.14-9.677,0.622c-19.803,2.978-37.849,21.272-40.637,40.949
	c-0.414,2.924,0.259,3.575,3.122,3.536c11.365-0.156,22.734-0.041,34.103-0.07c14.36-0.036,28.72-0.115,43.081-0.176
	c5.482,0.059,10.965,0.107,16.446,0.184c1.397,0.021,2.342-0.035,2.053-2.008C321.401,282.7,299.296,265.446,276.714,265.585z
	 M147.74,168.631c-7.741,0-15.482,0.063-23.222-0.043c-1.989-0.027-3.039,0.374-3.747,2.484
	c-11.876,35.403-13.905,70.983-2.33,106.894c2.272,7.05,2.164,6.881,9.702,7.178c3.238,0.127,4.125-0.947,4.61-3.954
	c1.53-9.471,6.629-16.351,15.972-19.331c2.484-0.792,2.91-1.859,2.931-4.146c0.106-12.104-0.748-24.24,0.617-36.305
	c2.021-17.854,9.177-32.305,27.178-39.07c1.666-0.627,1.691-1.371,1.309-2.753c-1.063-3.839-2.105-7.686-3.021-11.561
	c-0.381-1.607-0.985-1.846-2.241-0.877c-1.905,1.469-4.126,1.518-6.407,1.502C161.974,168.601,154.856,168.631,147.74,168.631z
	 M163.564,285.021c3.362,0,6.727,0,10.09,0c10.771,0,10.722,0.003,9.998-10.865c-0.128-1.932-0.79-2.622-2.684-2.607
	c-7.972,0.059-15.948-0.136-23.915,0.086c-6.859,0.191-11.175,3.595-12.854,9.427c-0.763,2.646-0.562,4.188,2.925,4.026
	C152.594,284.833,158.083,285.02,163.564,285.021z"/>
<path fill-rule="evenodd" clip-rule="evenodd" fill="#FB7E84" d="M109.487,310.458c-1.447,0.31-1.929-0.938-2.627-1.717
	c-12.805-14.276-25.558-28.599-38.403-42.836c-1.523-1.688-1.83-3.111-1.146-5.316c2.648-8.542,4.93-17.2,7.58-25.742
	c1.246-4.018,0.579-7.048-3.156-9.196c1.17-4.715,2.342-9.43,3.516-14.144c5.847-0.704,6.423-1.207,8.109-6.988
	c2.898-9.934,5.807-19.863,8.704-29.797c1.853-6.352,1.847-6.354,8.417-5.939c-0.483,1.798-0.916,3.611-1.458,5.391
	c-6.746,22.165-10.583,44.624-8.404,67.96c1.186,12.695,3.665,25.014,7.356,37.169C101.2,289.92,105.607,300.088,109.487,310.458z"
	/>
<path fill-rule="evenodd" clip-rule="evenodd" fill="#FCDD7B" d="M315.624,268.783c-9.46-7.509-19.984-12.396-32.076-14.135
	c-32.135-4.62-63.959,19.17-68.283,51.436c-0.45,3.351-1.222,4.673-5.124,4.633c-25.103-0.255-50.209-0.18-75.313-0.063
	c-2.873,0.013-4.55-0.552-5.477-3.516c-1.104-3.525-2.759-6.878-4.188-10.337c1.395-0.843,2.647-0.476,3.821-0.478
	c17.485-0.029,34.972-0.013,52.457-0.031c2.363-0.002,4.726,0.074,7.043-0.705c3.249-1.093,5.362-3.14,5.877-6.574
	c0.277-1.842,0.433-3.718,0.448-5.579c0.095-10.986,0.131-21.973,0.188-32.959c33.43-0.004,66.86-0.028,100.29,0.008
	c6.055,0.006,11.775,1.301,15.369,6.727C312.979,260.713,314.813,264.563,315.624,268.783z"/>
<path fill-rule="evenodd" clip-rule="evenodd" fill="#FD7F85" d="M306.706,310.447c-14.361,0.061-28.721,0.14-43.081,0.176
	c-11.368,0.029-22.737-0.086-34.103,0.07c-2.863,0.039-3.536-0.612-3.122-3.536c2.788-19.677,20.834-37.972,40.637-40.949
	c3.208-0.482,6.409-1.078,9.677-0.622c0.73,1.315,2.183,1.566,3.328,2.276c4.229,2.625,8.289,5.535,11.6,9.247
	C300.124,286.623,305.24,297.727,306.706,310.447z"/>
<path fill-rule="evenodd" clip-rule="evenodd" fill="#FB7E84" d="M224.96,213.005c-7.07,1.265-14.232,0.865-21.298,0.507
	c-17.068-0.865-20.092,7.621-20.046,19.755c0.03,7.997-0.114,15.995,0.019,23.989c0.041,2.47-0.678,3.232-3.156,3.14
	c-4.991-0.188-9.994-0.069-14.992-0.048c-1.456,0.007-2.715,0.061-2.649-2.058c0.424-13.713-1.22-27.529,1.498-41.119
	c2.336-11.68,8.015-20.931,20.218-24.686c2.045-0.629,4.131-0.982,6.263-0.975c13.86,0.048,27.722,0.117,41.582,0.179
	C232.126,199.565,229.893,206.756,224.96,213.005z"/>
<path fill-rule="evenodd" clip-rule="evenodd" fill="#FEDF7D" d="M356.173,203.104c-21.456,0.045-42.912,0.061-64.368,0.178
	c-2.042,0.012-2.475-0.671-2.452-2.561c0.093-7.984,0.081-15.97,0.008-23.954c-0.017-1.83,0.355-2.655,2.444-2.643
	c22.202,0.123,44.405,0.154,66.607,0.209c0.018,2.121,0.146,4.248,0.033,6.361C358.047,188.199,359.912,195.938,356.173,203.104z"/>
<path fill-rule="evenodd" clip-rule="evenodd" fill="#E9E7E9" d="M231.727,180.015c-12.356,0.066-24.713,0.11-37.069,0.227
	c-1.54,0.015-2.264-0.581-2.624-2.003c-1.438-5.674-2.872-11.349-4.419-16.993c-0.505-1.84,0.678-2.394,1.831-3.146
	c4.908-3.201,9.862-6.338,14.683-9.667c4.956-3.423,8.75-7.864,10.276-13.816c1.911-7.456-0.254-13.917-5.831-19.002
	c-5.8-5.288-12.64-6.722-20.161-4.061c-1.396,0.494-2.744,1.122-4.46,1.831c0.009-4.494,1.066-8.614,2.136-12.73
	c0.32-1.236,1.438-1.307,2.389-1.437c4.846-0.658,9.388-2.378,13.99-3.894c-0.003,1.126,0.769,1.796,1.48,2.494
	c5.853,5.731,10.235,12.556,13.78,19.822C227.315,137.292,231.337,158.263,231.727,180.015z"/>
<path fill-rule="evenodd" clip-rule="evenodd" fill="#E9E7E9" d="M89.972,317.771c-24.886-5.688-49.771-11.377-74.657-17.064
	c-1.312-0.3-2.634-0.196-1.892-2.468c4.645-14.22,23.28-27.666,38.313-27.464c0.228,0.563,0.321,1.244,0.701,1.672
	c4.703,5.274,9.448,10.513,14.184,15.761c7.06,7.825,14.146,15.627,21.158,23.495C89.271,313.378,90.47,315.306,89.972,317.771z"/>
<path fill-rule="evenodd" clip-rule="evenodd" fill="#FD7F85" d="M204.741,80.283c-1.737,2.034-4.143,2.999-6.949,4.658
	c0-6.766,0-12.932,0-19.099c0-3.242,0.046-6.485-0.013-9.727c-0.159-8.827-4.337-13.059-13.181-13.125
	c-11.597-0.086-23.197-0.138-34.792,0.052c-3.266,0.054-3.587-0.915-2.868-3.777c3.356-13.375,15.139-25.045,27.283-26.768
	c7.99,1.609,15.147,4.959,21.007,10.662c13.396,13.036,17.261,28.824,13.048,46.792c-0.761,3.241-1.821,6.412-2.743,9.616
	l0.034-0.038C205.292,79.78,205.017,80.032,204.741,80.283z"/>
<path fill-rule="evenodd" clip-rule="evenodd" fill="#6E6470" d="M300.72,233.238c-11.464,0.056-22.929,0.1-34.393,0.175
	c-4.935,0.032-6.581,1.311-7.666,5.806c-4.63,0.03-9.26,0.059-13.89,0.088c-0.944-4.525-2.587-5.872-7.564-5.887
	c-12.746-0.039-25.491,0.011-38.236-0.043c-1.757-0.007-4.179,0.978-4.051-2.572c0.156-4.336,0.996-5.844,4.334-5.878
	c6.497-0.067,12.996-0.001,19.493-0.036c7.294-0.04,14.459-0.826,21.11-4.132c1.335-0.663,2.912-1.274,3.771-2.381
	c3.201-4.115,7.519-3.98,12.069-3.931c14.991,0.165,29.985,0.127,44.978,0.165C300.69,220.821,300.705,227.029,300.72,233.238z"/>
<path fill-rule="evenodd" clip-rule="evenodd" fill="#FEDF7D" d="M358.464,139.527c-14.723,0.062-29.445,0.134-44.168,0.182
	c-7.239,0.024-14.482-0.127-21.717,0.072c-2.705,0.075-3.455-0.781-3.235-3.352c0.222-2.603-0.006-5.24,0.071-7.859
	c0.161-5.503,3.718-9.286,9.135-9.3c18.97-0.05,37.94,0.039,56.91,0.075c2.231,2.719,3.146,5.828,3.03,9.344
	C358.373,132.297,358.464,135.914,358.464,139.527z"/>
<path fill-rule="evenodd" clip-rule="evenodd" fill="#F36571" d="M109.487,310.458c-3.88-10.369-8.287-20.537-11.513-31.155
	c-3.691-12.155-6.171-24.474-7.356-37.169c-2.179-23.337,1.658-45.796,8.404-67.96c0.542-1.78,0.975-3.593,1.458-5.391
	c9.252-0.579,9.273-0.573,6.739,8.128c-7.414,25.46-10.199,51.271-5.967,77.625c2.84,17.69,8.48,34.539,15.297,51.037
	c0.612,1.481,1.201,2.973,1.974,4.885C115.297,310.458,112.392,310.458,109.487,310.458z"/>
<path fill-rule="evenodd" clip-rule="evenodd" fill="#F4BA65" d="M244.771,239.306c4.63-0.029,9.26-0.058,13.89-0.088
	c1.314,4.615,2.469,5.523,7.453,5.531c15.847,0.025,31.693,0.086,47.539-0.062c2.689-0.024,3.967,0.93,5.062,3.229
	c4.589,9.629,6.546,19.778,6.571,31.616c-3.324-4.368-6.478-7.574-9.662-10.75c-0.812-4.22-2.646-8.069-4.967-11.574
	c-3.594-5.426-9.314-6.721-15.369-6.727c-33.43-0.036-66.86-0.012-100.29-0.008c-0.061-0.739-0.072-1.486-0.191-2.217
	c-0.445-2.727,0.541-3.602,3.411-3.566c13.165,0.16,26.334,0.035,39.501,0.09C241.595,244.797,244.23,243.464,244.771,239.306z"/>
<path fill-rule="evenodd" clip-rule="evenodd" fill="#6E6470" d="M296.166,345.524c-18.245,12.78-45.895,4.296-53.199-16.322
	c17.792-0.002,35.584-0.007,53.376,0c1.96,0.001,3.776-0.595,3.174,3.025C298.757,336.793,296.981,341.025,296.166,345.524z"/>
<path fill-rule="evenodd" clip-rule="evenodd" fill="#D7D5D8" d="M231.727,180.015c-0.39-21.751-4.411-42.723-13.999-62.374
	c-3.545-7.266-7.928-14.091-13.78-19.822c-0.712-0.698-1.483-1.368-1.48-2.494c2.925-2.622,5.426-1.969,8.383,0.38
	c12.699,10.091,20.127,23.581,25.228,38.557c4.695,13.784,6.633,28.094,7.665,42.569c0.208,2.923-0.671,3.698-3.43,3.43
	C237.47,179.985,234.59,180.082,231.727,180.015z"/>
<path fill-rule="evenodd" clip-rule="evenodd" fill="#6E6470" d="M71.932,342.469c-19.606,12.768-46.646-0.58-48.131-23.76
	c16.56,3.746,33.113,7.511,49.681,11.218c2.458,0.55,2.363,1.931,1.868,3.908C74.588,336.881,72.245,339.271,71.932,342.469z"/>
<path fill-rule="evenodd" clip-rule="evenodd" fill="#FD7F85" d="M358.458,162.742c-22.203,0.051-44.406,0.078-66.608,0.194
	c-2.017,0.01-2.447-0.674-2.505-2.575c-0.284-9.392-0.343-9.39,9.179-9.39c18.589,0,37.178-0.004,55.767,0.01
	c1.365,0,2.729,0.131,4.095,0.201C358.408,155.036,358.433,158.889,358.458,162.742z"/>
<path fill-rule="evenodd" clip-rule="evenodd" fill="#F36571" d="M306.706,310.447c-1.466-12.72-6.582-23.824-15.064-33.338
	c-3.311-3.712-7.37-6.622-11.6-9.247c-1.146-0.71-2.598-0.961-3.328-2.276c22.582-0.14,44.688,17.114,48.491,43.037
	c0.289,1.973-0.655,2.028-2.053,2.008C317.671,310.554,312.188,310.505,306.706,310.447z"/>
<path fill-rule="evenodd" clip-rule="evenodd" fill="#FDEAE2" d="M183.709,88.369c-17.503,0.704-31.679-14.908-28.498-31.385
	c6.957-0.011,13.916-0.061,20.875-0.021c5.733,0.034,7.675,1.972,7.675,7.549C183.761,72.465,183.729,80.417,183.709,88.369z"/>
<path fill-rule="evenodd" clip-rule="evenodd" fill="#F36571" d="M205.533,79.566c0.922-3.204,1.982-6.375,2.743-9.616
	c4.213-17.968,0.349-33.756-13.048-46.792c-5.859-5.702-13.017-9.053-21.007-10.662c12.65-3.917,28.068,1.613,36.756,13.185
	C223.106,41.836,220.461,68.022,205.533,79.566z"/>
<path fill-rule="evenodd" clip-rule="evenodd" fill="#5A505D" d="M296.166,345.524c0.815-4.499,2.591-8.73,3.351-13.297
	c0.603-3.62-1.214-3.024-3.174-3.025c-17.792-0.007-35.584-0.002-53.376,0c-3.68-7.201-3.566-7.395,4.318-7.395
	c20.354,0,40.706,0.057,61.06-0.058c3.353-0.019,4.146,0.772,2.98,4.05C308.387,334.054,303.744,340.888,296.166,345.524z"/>
<path fill-rule="evenodd" clip-rule="evenodd" fill="#FB7E84" d="M147.68,152.979c-0.423-5.133-0.394-5.793,4.652-5.566
	c7.985,0.357,13.627-3.289,19.066-8.429c5.518-5.217,11.391-10.081,17.314-14.841c4.831-3.883,9.207-3.427,13.13,0.85
	c-0.872,3.237-2.633,5.868-5.417,7.751c-4.93,3.333-10.173,6.273-14.771,10.009C171.653,150.875,160.647,155.021,147.68,152.979z"/>
<path fill-rule="evenodd" clip-rule="evenodd" fill="#6E6470" d="M163.564,285.021c-5.481-0.001-10.971-0.188-16.44,0.066
	c-3.486,0.162-3.688-1.38-2.925-4.026c1.68-5.832,5.995-9.235,12.854-9.427c7.967-0.222,15.943-0.027,23.915-0.086
	c1.894-0.015,2.556,0.676,2.684,2.607c0.724,10.868,0.772,10.865-9.998,10.865C170.291,285.021,166.927,285.021,163.564,285.021z"/>
<path fill-rule="evenodd" clip-rule="evenodd" fill="#5A505D" d="M300.72,233.238c-0.015-6.209-0.029-12.417-0.044-18.626
	c6.853-0.042,13.707-0.02,20.559-0.167c2.154-0.047,2.815,0.734,2.748,2.813c-0.125,3.86-0.032,7.727-0.039,11.591
	c-0.005,3.012-1.31,4.609-4.536,4.542C313.18,233.259,306.948,233.28,300.72,233.238z"/>
<path fill-rule="evenodd" clip-rule="evenodd" fill="#F4BA65" d="M356.173,203.104c3.739-7.166,1.874-14.905,2.272-22.409
	c0.112-2.113-0.016-4.24-0.033-6.361c3.97-0.063,7.943-0.032,11.906-0.229c2.098-0.104,2.452,0.823,2.424,2.636
	c-0.088,5.714,0.052,11.432-0.063,17.145c-0.112,5.619-3.819,9.232-9.437,9.347C360.888,203.281,358.529,203.152,356.173,203.104z"
	/>
<path fill-rule="evenodd" clip-rule="evenodd" fill="#FCDD7B" d="M101.21,157.233c-5.992,0.047-11.985,0.03-17.975,0.18
	c-1.9,0.048-2.285-0.711-2.26-2.412c0.082-5.495,0.12-10.994-0.011-16.486c-0.058-2.412,0.882-2.297,2.665-1.684
	c6.594,2.271,13.225,4.432,19.842,6.634C102.565,148.029,100.623,152.423,101.21,157.233z"/>
<path fill-rule="evenodd" clip-rule="evenodd" fill="#F36571" d="M147.68,152.979c12.968,2.042,23.974-2.105,33.975-10.227
	c4.599-3.736,9.842-6.676,14.771-10.009c2.784-1.883,4.545-4.514,5.417-7.751c2.609,3.779,2.621,6.615-0.001,10.233
	c-1.564,2.157-3.63,3.762-5.847,5.197c-7.962,5.159-15.912,10.334-23.878,15.486c-1.032,0.668-1.989,1.482-3.36,1.476
	c-6.373-0.027-12.746,0.04-19.118-0.029C146.031,157.317,147.923,154.627,147.68,152.979z"/>
<path fill-rule="evenodd" clip-rule="evenodd" fill="#D7D5D8" d="M89.972,317.771c0.498-2.465-0.7-4.393-2.192-6.068
	c-7.012-7.868-14.099-15.67-21.158-23.495c-4.735-5.248-9.48-10.486-14.184-15.761c-0.38-0.428-0.474-1.109-0.701-1.672
	c3.567-0.957,6.193-0.047,8.778,2.909c12.544,14.346,25.345,28.467,38.032,42.687c0.788,0.884,2.327,1.733,1.625,3.068
	c-0.816,1.552-2.233,0.12-3.312-0.046C94.536,319.035,92.266,318.333,89.972,317.771z"/>
<path fill-rule="evenodd" clip-rule="evenodd" fill="#5A505D" d="M71.932,342.469c0.313-3.198,2.656-5.588,3.418-8.634
	c0.495-1.978,0.59-3.358-1.868-3.908c-16.567-3.707-33.121-7.472-49.681-11.218c-0.969-4.57-0.859-4.708,3.314-3.741
	c18.078,4.189,36.135,8.475,54.247,12.506c2.878,0.64,2.925,1.522,1.639,3.631C80.174,335.744,76.846,339.873,71.932,342.469z"/>
<path fill-rule="evenodd" clip-rule="evenodd" fill="#F4BA65" d="M358.464,139.527c0-3.613-0.091-7.23,0.026-10.839
	c0.116-3.517-0.799-6.625-3.03-9.344c2.726-0.039,5.454-0.187,8.175-0.094c5.148,0.176,8.886,3.809,9.015,8.974
	c0.093,3.688,1.548,8.392-0.552,10.801c-1.988,2.283-6.765,0.483-10.309,0.686C360.688,139.774,359.573,139.595,358.464,139.527z"/>
<path fill-rule="evenodd" clip-rule="evenodd" fill="#E5606B" d="M224.96,213.005c4.933-6.249,7.166-13.44,7.438-21.316
	c2.113-0.089,4.227-0.243,6.341-0.255c5.835-0.035,5.835-0.012,4.877,5.854C241.96,207.419,235.504,212.858,224.96,213.005z"/>
<path fill-rule="evenodd" clip-rule="evenodd" fill="#E7C8BB" d="M183.709,88.369c0.02-7.952,0.052-15.904,0.052-23.856
	c0-5.577-1.941-7.516-7.675-7.549c-6.959-0.041-13.918,0.009-20.875,0.021c-0.373-2.104,0.463-2.858,2.626-2.835
	c8.718,0.091,17.437,0.078,26.155,0.009c1.915-0.016,2.63,0.595,2.615,2.572c-0.076,9.714-0.084,19.43,0.004,29.145
	C186.631,88.115,185.767,88.802,183.709,88.369z"/>
<path fill-rule="evenodd" clip-rule="evenodd" fill="#E5606B" d="M358.458,162.742c-0.025-3.854-0.05-7.707-0.073-11.56
	c4.096-0.083,8.191-0.148,12.287-0.261c1.344-0.038,2.177,0.358,2.046,1.874c-0.011,0.123-0.008,0.249,0.002,0.373
	c0.758,9.754,0.758,9.763-9.053,9.746C361.931,162.911,360.194,162.802,358.458,162.742z"/>
<path fill-rule="evenodd" clip-rule="evenodd" fill="#F4BA65" d="M101.21,157.233c-0.587-4.81,1.355-9.204,2.262-13.769
	c1.998,0.66,4.531,0.786,5.859,2.116c1.615,1.619-1.146,3.558-1.042,5.563c0.012,0.239-0.076,0.491-0.149,0.728
	c-0.547,1.75,0.917,4.365-0.723,5.179C105.733,157.887,103.31,157.234,101.21,157.233z"/>
<path fill-rule="evenodd" clip-rule="evenodd" fill="#E7C8BB" d="M136.019,152.933c1.123,3.679-0.336,4.879-3.996,4.536
	c-2.837-0.267-5.72-0.028-8.581-0.06c-4.098-0.043-4.852-1.192-3.533-5.292c0.774,1.134,1.967,0.886,3.056,0.885
	C127.315,152.998,131.667,152.959,136.019,152.933z"/>
<path fill-rule="evenodd" clip-rule="evenodd" fill="#FDEAE2" d="M136.019,152.933c-4.352,0.026-8.703,0.064-13.055,0.07
	c-1.089,0.001-2.281,0.249-3.056-0.885c0.626-2.094,2.464-2.303,4.163-2.502c2.713-0.32,5.518-0.135,8.158-0.726
	C136.163,148.011,136.822,149.652,136.019,152.933z"/>
<path fill-rule="evenodd" clip-rule="evenodd" fill="#F36571" d="M204.741,80.283c0.275-0.251,0.551-0.503,0.826-0.754
	C205.292,79.78,205.017,80.032,204.741,80.283z"/>
</svg>
