<?xml version="1.0" encoding="utf-8"?>
<!-- Generator: Adobe Illustrator 16.0.0, SVG Export Plug-In . SVG Version: 6.00 Build 0)  -->
<!DOCTYPE svg PUBLIC "-//W3C//DTD SVG 1.1//EN" "http://www.w3.org/Graphics/SVG/1.1/DTD/svg11.dtd">
<svg version="1.1" id="Layer_1" xmlns="http://www.w3.org/2000/svg" xmlns:xlink="http://www.w3.org/1999/xlink" x="0px" y="0px"
	 width="56px" height="56px" viewBox="0 0 56 56" enable-background="new 0 0 56 56" xml:space="preserve">
<g>
	<path fill-rule="evenodd" clip-rule="evenodd" fill="#0732A6" d="M25.776,55.084c-0.527-0.201-1.032-0.366-1.515-0.579
		c-5.893-2.618-11.794-5.214-17.668-7.872c-3.586-1.622-5.455-4.473-5.482-8.407C1.063,31.673,1.09,25.121,1.108,18.57
		c0.002-0.81,0.143-1.618,0.232-2.557c4.162,1.844,8.189,3.632,12.218,5.412c4.034,1.783,8.071,3.561,12.218,5.389
		C25.776,36.059,25.776,45.527,25.776,55.084z"/>
	<path fill-rule="evenodd" clip-rule="evenodd" fill="#0732A6" d="M30.323,55.099c0-9.554,0-19.005,0-28.34
		c3.131-1.339,6.207-2.655,9.371-4.009c0,1.826-0.021,3.573,0.006,5.319c0.024,1.58,1.52,2.623,2.979,2.111
		c0.924-0.324,1.498-1.186,1.503-2.309c0.01-2.176,0.018-4.352-0.009-6.528c-0.004-0.466,0.134-0.689,0.57-0.88
		c3.125-1.364,6.236-2.761,9.353-4.146c0.17-0.075,0.345-0.136,0.639-0.252c0.098,0.732,0.264,1.411,0.267,2.089
		c0.019,6.833,0.094,13.667-0.022,20.497c-0.063,3.721-2.009,6.425-5.397,7.961c-5.957,2.699-11.946,5.328-17.924,7.981
		C31.255,54.772,30.832,54.907,30.323,55.099z"/>
	<path fill-rule="evenodd" clip-rule="evenodd" fill="#0732A6" d="M17.625,5.238c1.776-0.792,3.484-1.598,5.227-2.319
		c1.244-0.517,2.51-1.027,3.813-1.346c1.605-0.394,3.224-0.146,4.733,0.52c6.195,2.735,12.387,5.481,18.56,8.271
		c0.869,0.393,1.623,1.041,2.519,1.628c-0.245,0.156-0.315,0.215-0.396,0.251c-3.244,1.444-6.485,2.892-9.736,4.318
		c-0.204,0.089-0.517,0.105-0.712,0.014c-7.931-3.715-15.855-7.447-23.78-11.179C17.798,5.37,17.75,5.326,17.625,5.238z"/>
	<path fill-rule="evenodd" clip-rule="evenodd" fill="#0732A6" d="M36.475,19.194c-2.107,0.93-4.072,1.861-6.087,2.668
		c-1.676,0.672-3.402,0.587-5.056-0.146c-7.068-3.135-14.127-6.287-21.189-9.435c-0.122-0.054-0.233-0.135-0.521-0.306
		c0.962-0.609,1.782-1.239,2.692-1.683c1.762-0.859,3.571-1.625,5.375-2.395c0.239-0.102,0.605-0.098,0.84,0.012
		c7.85,3.671,15.691,7.363,23.532,11.053C36.163,19.009,36.258,19.071,36.475,19.194z"/>
</g>
</svg>
