<?xml version="1.0" encoding="utf-8"?>
<!-- Generator: Adobe Illustrator 16.0.0, SVG Export Plug-In . SVG Version: 6.00 Build 0)  -->
<!DOCTYPE svg PUBLIC "-//W3C//DTD SVG 1.1//EN" "http://www.w3.org/Graphics/SVG/1.1/DTD/svg11.dtd">
<svg version="1.1" id="Layer_1" xmlns="http://www.w3.org/2000/svg" xmlns:xlink="http://www.w3.org/1999/xlink" x="0px" y="0px"
	 width="56px" height="56px" viewBox="0 0 56 56" enable-background="new 0 0 56 56" xml:space="preserve">
<g>
	<path fill="#0732A7" d="M49.823,6.955c0,0,0.998-4.202-0.803-6.027c-1.068-0.947-2.206,0.092-1.797,0.762
		C47.223,2.383,50.005,4.25,49.823,6.955z"/>
	<path fill="#0732A7" d="M52.668,17.094c0,0,0.786-8.889-8.783-10.546c-10.077-2.024-18.081,5.706-14.355,14.355
		c4.049,9.016,15.091,11.301,12.238,19.03c-3.155,8.551-22.34,15.438-32.731,1.725c-2.339-2.914-5.945-8.59-6.668-16.096
		c-0.732,9.004,1.239,19.125,14.107,26.676c16.101,8.383,32.802-1.273,34.587-10.189c1.903-8.641-4.69-12.246-7.086-13.617
		c-3.427-2.129-15.09-5.321-11.319-14.891c0,0,2.036-5.014,8.218-3.333c0,0-2.622,3.829,1.071,7.391
		c3.211,2.612,6.362,0.724,6.362,0.724s-2.031,5.214,2.509,6.529c0,0-1.174-1.972-0.069-3.55
		C52.626,18.746,52.668,17.094,52.668,17.094z"/>
	<path fill="#0732A7" d="M47.171,6.518c0,0-1.068-4.387-3.991-5.725c-1.364-0.436-2.104,0.892-1.46,1.339
		C41.998,2.768,46.246,3.969,47.171,6.518z"/>
	<circle fill="#FFFFFF" cx="45.792" cy="14.385" r="1.521"/>
	<path fill="#0732A7" d="M52.065,11.435c0,0,2.607-3.55,1.362-5.791c-0.778-1.199-2.031-0.373-2.08,0.292
		C51.161,6.606,52.966,8.877,52.065,11.435z"/>
	<path fill-rule="evenodd" clip-rule="evenodd" fill="#0732A7" d="M40.544,34.111c0,0.547-0.013,1.055,0.002,1.561
		c0.14,4.703-3.053,8.965-6.669,10.271c-3.837,1.389-7.591,1.174-11.194-0.826c-3.618-2.008-5.636-6.262-4.904-10.336
		c0.317-1.768,1.333-2.652,2.802-2.434c0.926,0.139,1.596,0.717,1.912,1.518c0.584,1.475,1.192,2.977,1.475,4.525
		c0.543,2.98,3.071,5.406,6.48,5.99c4.069,0.699,8.319-2.383,9.262-5.941C40.08,37.049,40.261,35.609,40.544,34.111z"/>
	<path fill-rule="evenodd" clip-rule="evenodd" fill="#0732A7" d="M38.673,33.252c0.501,2.559,0.169,4.771-1.309,6.721
		c-1.138,1.502-2.653,2.488-4.521,2.865c-1.321,0.268-2.418-0.188-2.764-1.107c-0.326-0.871,0.146-1.84,1.369-2.475
		c0.776-0.404,1.627-0.727,2.482-0.914C37.201,37.627,38.109,36.721,38.673,33.252z"/>
	<path fill="#0732A7" d="M7.089,20.281c0,0,3.586-1.422,3.878-4.838c0.241-3.042-1.749-3.625,0.177-6.243
		c0.738-1.002,3.758-4.743,2.163-5.745c-1.387-0.804-3.265,0.273-4.139,0.624C8.747,4.26,7.767,4.745,7.704,4.901
		C7.642,5.057,8.303,4.957,8.356,5.079C8.378,5.25,7.979,5.752,8.122,5.802c0.124,0.042,0.693-0.325,1.328-0.71
		c0.633-0.387,3.692-1.718,3.004,0.037c-0.52,1.327-1.885,2.157-3.056,3.153c-1.552,1.05-3.078,3.434-3.149,4.64
		c-0.069,1.207-0.498-2.205-1.11-1.839c-0.199,0.119,0.08,0.917-0.178,1.684c-0.54,1.617-1.538,4.43,0.187,6.683
		C5.779,19.644,7.089,20.281,7.089,20.281z"/>
	<path fill-rule="evenodd" clip-rule="evenodd" fill="#FFFFFF" d="M8.123,38.98c-3.583-4.777-4.891-9.236-5.164-14.49
		c-0.152-2.926,0.255-5.659,2.021-8.193c0.142-0.208,1.064-1.583,2.747-1.189c0.819,0.233,1.417,1.128,1.341,1.928
		c-0.366,1.739-0.925,3.448-1.522,5.128C5.64,27.518,5.838,32.588,7.857,37.908C7.934,38.107,8.11,38.912,8.123,38.98z"/>
	<path fill-rule="evenodd" clip-rule="evenodd" fill="#0732A7" d="M7.813,38.186c-2.854-4.047-4.21-8.602-4.464-13.495
		c-0.143-2.726,0.018-5.423,1.66-7.786c0.134-0.192,1.175-1.965,2.671-1.467c0.968,0.42,1.398,1.376,1.198,2.321
		c-0.342,1.621-0.861,3.213-1.419,4.778c-1.774,4.986-1.783,9.943,0.098,14.898C7.627,37.621,7.801,38.121,7.813,38.186z"/>
	<path fill-rule="evenodd" clip-rule="evenodd" fill="#0732A7" d="M30.987,47.859c-1.199,0.107-2.397,0.307-3.597,0.309
		c-5.21,0.008-9.775-1.73-13.62-5.262c-2.035-1.865-3.159-4.328-4.247-6.795c-1.022-2.316-1.834-4.695-1.799-7.273
		c0.018-1.36,0.353-2.621,1.305-3.648c1.177-1.271,2.73-1.287,3.925-0.008c1.099,1.172,1.396,2.644,1.54,4.194
		c0.233,2.502,0.334,5.041,0.878,7.479c1.375,6.16,6.384,10.32,12.688,10.781c0.965,0.072,1.939,0.012,2.912,0.012
		C30.977,47.717,30.983,47.787,30.987,47.859z"/>
</g>
</svg>
