<?xml version="1.0" encoding="utf-8"?>
<!-- Generator: Adobe Illustrator 16.0.0, SVG Export Plug-In . SVG Version: 6.00 Build 0)  -->
<!DOCTYPE svg PUBLIC "-//W3C//DTD SVG 1.1//EN" "http://www.w3.org/Graphics/SVG/1.1/DTD/svg11.dtd">
<svg version="1.1" id="Layer_1" xmlns="http://www.w3.org/2000/svg" xmlns:xlink="http://www.w3.org/1999/xlink" x="0px" y="0px"
	 width="56px" height="56px" viewBox="0 0 56 56" enable-background="new 0 0 56 56" xml:space="preserve">
<g>
	<g>
		<path fill="#0732A6" d="M21.231,0.927c0.377,0.243,0.395,0.576,0.274,0.97c-1.011,3.281-1.417,6.638-1.226,10.065
			c0.115,2.046,0.459,4.055,1.003,6.03c0.051,0.185,0.096,0.37,0.151,0.583c-2.866,0-5.699,0-8.572,0
			c0.218-0.895,0.454-1.755,0.637-2.627c0.978-4.683,0.742-9.311-0.683-13.876c-0.134-0.429-0.218-0.812,0.167-1.146
			C15.732,0.927,18.482,0.927,21.231,0.927z"/>
		<path fill="#0732A6" d="M12.982,55.074c-0.303-0.281-0.346-0.594-0.216-0.994c1.065-3.305,1.551-6.702,1.241-10.158
			c-0.173-1.936-0.638-3.844-0.977-5.764c-0.039-0.223-0.115-0.438-0.188-0.709c2.879,0,5.717,0,8.526,0
			c-0.26,1.265-0.566,2.529-0.775,3.81c-0.7,4.277-0.38,8.493,0.85,12.646c0.127,0.432,0.279,0.856-0.213,1.171
			C18.482,55.074,15.732,55.074,12.982,55.074z"/>
		<path fill="#0732A6" d="M43.018,0.927c0.299,0.283,0.34,0.595,0.217,0.996c-1.088,3.561-1.537,7.2-1.142,10.906
			c0.179,1.673,0.573,3.323,0.876,4.983c0.045,0.239,0.121,0.473,0.193,0.75c-2.877,0-5.705,0-8.564,0
			c0.232-0.969,0.495-1.927,0.689-2.899c0.912-4.546,0.66-9.035-0.698-13.466c-0.136-0.446-0.376-0.918,0.181-1.271
			C37.518,0.927,40.268,0.927,43.018,0.927z"/>
		<path fill="#0732A6" d="M34.77,55.074c-0.401-0.262-0.386-0.607-0.256-1.018c1.107-3.537,1.592-7.154,1.178-10.845
			c-0.196-1.741-0.629-3.457-0.959-5.183c-0.035-0.188-0.102-0.37-0.162-0.594c2.856,0,5.684,0,8.574,0
			c-0.043,0.191-0.074,0.373-0.125,0.547c-1.467,5.33-1.41,10.646,0.17,15.942c0.127,0.429,0.209,0.813-0.172,1.147
			C40.268,55.074,37.518,55.074,34.77,55.074z"/>
		<path fill="#0732A6" d="M12.891,36.221c1.811-9.067,1.43-9.136-0.005-16.449c2.834,0,5.663,0,8.547,0
			c-1.591,5.474-1.601,10.942,0.004,16.449C18.567,36.221,15.73,36.221,12.891,36.221z"/>
		<path fill="#0732A6" d="M43.172,36.236c-2.904,0-5.734,0-8.613,0c1.678-5.489,1.688-10.955,0.002-16.459c2.866,0,5.688,0,8.6,0
			c-0.76,2.693-1.199,5.421-1.198,8.21C41.963,30.783,42.387,33.52,43.172,36.236z"/>
		<path fill="#0732A6" d="M33.199,36.993c-4.424-1.363-6.94-4.316-7.942-8.633c-0.31-1.337-0.089-1.536,1.246-1.222
			c3.237,0.763,5.888,2.364,7.53,5.362c0.111,0.205,0.162,0.505,0.109,0.729C33.855,34.477,33.525,35.712,33.199,36.993z"/>
		<path fill="#0732A6" d="M11.466,36.993c-3.079-0.956-5.438-2.658-6.793-5.511C4.12,30.318,3.8,29.041,3.428,27.799
			c-0.165-0.55,0.157-0.879,0.707-0.777c3.486,0.646,6.351,2.242,8.146,5.428c0.111,0.198,0.199,0.479,0.151,0.687
			C12.141,34.402,11.806,35.657,11.466,36.993z"/>
		<path fill="#0732A6" d="M22.786,19.341c-0.329-1.387-0.651-2.7-0.938-4.021c-0.038-0.175,0.065-0.407,0.161-0.58
			c1.523-2.737,3.938-4.288,6.878-5.129c0.371-0.106,0.752-0.183,1.133-0.25c0.676-0.121,0.953,0.167,0.816,0.868
			c-0.273,1.427-0.754,2.782-1.467,4.053C27.92,16.867,25.671,18.417,22.786,19.341z"/>
		<path fill="#0732A6" d="M44.512,19.283c-0.32-1.33-0.646-2.623-0.938-3.925c-0.038-0.177,0.053-0.413,0.148-0.586
			c1.605-2.909,4.188-4.471,7.315-5.271c0.29-0.073,0.584-0.14,0.88-0.176c0.434-0.053,0.719,0.228,0.693,0.651
			C52.4,13.959,48.568,18.408,44.512,19.283z"/>
	</g>
</g>
</svg>
