<?xml version="1.0" encoding="utf-8"?>
<!-- Generator: Adobe Illustrator 16.0.0, SVG Export Plug-In . SVG Version: 6.00 Build 0)  -->
<!DOCTYPE svg PUBLIC "-//W3C//DTD SVG 1.1//EN" "http://www.w3.org/Graphics/SVG/1.1/DTD/svg11.dtd">
<svg version="1.1" id="Layer_1" xmlns="http://www.w3.org/2000/svg" xmlns:xlink="http://www.w3.org/1999/xlink" x="0px" y="0px"
	 width="1920px" height="228.022px" viewBox="0 0 1920 228.022" enable-background="new 0 0 1920 228.022" xml:space="preserve">
<path fill="#f58c37" d="M0.11,0.006c0,0,335.26,142.127,959.53,142.955c0,0,518.358,16.002,960.36-142.46v228.023H0L0.11,0.006z"/>
<path fill="#FFFFFF" d="M0.11,0.006c21.387,6.822,43.13,13.979,65.205,20.682c72.677,22.069,149.146,40.163,228.418,55.25
	c72.595,13.816,146.795,24.936,222.401,33.646c47.189,5.438,94.662,10.135,142.604,13.531c26.978,1.91,53.97,3.799,81.025,5.389
	c19.449,1.145,38.996,1.912,58.532,2.607c29.924,1.066,59.854,2.268,89.827,2.779c31.734,0.541,63.519,0.473,95.282,0.42
	c25.096-0.039,50.213-0.207,75.28-0.777c25.195-0.572,50.367-1.539,75.496-2.646c29.184-1.285,58.463-2.375,87.426-4.508
	c46.158-3.396,92.252-7.152,138.084-11.533c80.884-7.729,160.021-18.898,237.683-32.705C1710.446,62.04,1820.147,33.739,1920,0.006
	c0,0,0,0.382,0,0.494c-18.724,6.576-39.468,15.474-65.305,22.467c-107.746,35.854-214.599,61.349-337.146,81.234
	c-67.625,10.971-136.371,19.746-206.199,26.215c-35.668,3.303-71.569,6.033-107.492,8.549c-24.952,1.746-50.104,2.822-75.209,3.945
	c-21.049,0.941-42.141,1.908-63.248,2.18c-52.227,0.67-104.476,1.225-156.716,1.266c-26.572,0.021-53.19-0.881-79.714-1.881
	c-31.417-1.182-62.83-2.586-94.109-4.471c-133.213-8.025-263.303-22.912-389.42-46.283C242.9,74.718,145.248,50.972,54.563,20.029
	C36.585,13.894,18.379,7.099,1.249,0.478C0.631,0.254,0.305,0.085,0.11,0.006z"/>
</svg>
