<?xml version="1.0" encoding="utf-8"?>
<!-- Generator: Adobe Illustrator 16.0.0, SVG Export Plug-In . SVG Version: 6.00 Build 0)  -->
<!DOCTYPE svg PUBLIC "-//W3C//DTD SVG 1.1//EN" "http://www.w3.org/Graphics/SVG/1.1/DTD/svg11.dtd">
<svg version="1.1" id="Layer_1" xmlns="http://www.w3.org/2000/svg" xmlns:xlink="http://www.w3.org/1999/xlink" x="0px" y="0px"
	 width="873.853px" height="226.782px" viewBox="0 0 873.853 226.782" enable-background="new 0 0 873.853 226.782"
	 xml:space="preserve">
<g>
	<g>
		<path fill="#0732A7" d="M804.817,216.463c-116.108-5.661-230.687-20.528-340.552-44.188
			c-87.895-18.929-172.989-43.496-252.917-73.019C75.237,48.982,0.334,1.108-0.407,0.63L0.406-0.63
			c0.74,0.477,75.541,48.281,211.514,98.5c125.493,46.348,330.235,104.285,592.969,117.096L804.817,216.463z"/>
	</g>
	<path fill="#0732A7" d="M821.371,222.297c-0.365,0.334-0.934,0.308-1.268-0.058l-5.65-6.189c-0.334-0.366-0.309-0.935,0.057-1.269
		l6.189-5.651c0.367-0.334,0.936-0.309,1.27,0.058l5.65,6.189c0.334,0.367,0.309,0.934-0.059,1.269L821.371,222.297z"/>
	<path fill="#0732A7" d="M844.621,225.047c-0.365,0.334-0.934,0.308-1.268-0.058l-5.65-6.189c-0.334-0.366-0.309-0.935,0.057-1.269
		l6.189-5.651c0.367-0.334,0.936-0.309,1.27,0.058l5.65,6.189c0.334,0.367,0.309,0.934-0.059,1.269L844.621,225.047z"/>
	<path fill="#0732A7" d="M867.371,226.547c-0.365,0.334-0.934,0.308-1.268-0.058l-5.65-6.189c-0.334-0.366-0.309-0.935,0.057-1.269
		l6.189-5.651c0.367-0.334,0.936-0.309,1.27,0.058l5.65,6.189c0.334,0.367,0.309,0.934-0.059,1.269L867.371,226.547z"/>
</g>
</svg>
