<?xml version="1.0" encoding="utf-8"?>
<!-- Generator: Adobe Illustrator 16.0.0, SVG Export Plug-In . SVG Version: 6.00 Build 0)  -->
<!DOCTYPE svg PUBLIC "-//W3C//DTD SVG 1.1//EN" "http://www.w3.org/Graphics/SVG/1.1/DTD/svg11.dtd">
<svg version="1.1" id="Layer_1" xmlns="http://www.w3.org/2000/svg" xmlns:xlink="http://www.w3.org/1999/xlink" x="0px" y="0px"
	 width="1920px" height="501.89px" viewBox="0 0 1920 501.89" enable-background="new 0 0 1920 501.89" xml:space="preserve">
<path fill="#FFFFFF" d="M-0.047,0.829C-0.047,0.829,339,233.89,985,226.89c0,0,551.094,21.22,935.047-226.89v501.89H-0.047V0.829z"
	/>
<path fill="#F48622" d="M-0.047,0.829C21.34,11.991,42.88,23.699,64.955,34.667c72.677,36.11,149.146,65.715,228.418,90.4
	c72.595,22.606,146.795,40.801,222.401,55.053c47.189,8.896,94.662,16.581,142.604,22.138c26.978,3.126,53.97,6.217,81.025,8.818
	c19.449,1.872,38.996,3.128,58.532,4.267c29.924,1.744,59.854,3.711,89.827,4.548c31.734,0.884,63.519,0.771,95.282,0.687
	c25.096-0.065,50.213-0.339,75.28-1.271c25.195-0.937,50.367-2.52,75.496-4.331c29.184-2.103,58.463-3.887,87.426-7.376
	c46.158-5.558,92.252-11.702,138.084-18.869c80.884-12.647,160.021-30.923,237.683-53.514
	C1710.086,102.329,1818.459,55.196,1918.313,0c0,0,0,0,1.734,0c-18.724,10.761-39.874,26.955-65.711,38.397
	c-107.746,58.666-214.599,100.382-337.146,132.915c-67.625,17.953-136.371,32.309-206.199,42.894
	c-35.668,5.405-71.569,9.871-107.492,13.987c-24.952,2.859-50.104,4.618-75.209,6.456c-21.049,1.541-42.141,3.124-63.248,3.567
	c-52.227,1.096-104.476,2.004-156.716,2.072c-26.572,0.035-53.19-1.442-79.714-3.077c-31.417-1.935-62.83-4.231-94.109-7.316
	c-133.213-13.133-263.303-37.49-389.42-75.73C242.54,123.073,144.982,83.691,54.297,33.061C36.319,23.023,18.979,12.203,1.347,1.739
	C0.729,1.372,0.148,0.958-0.047,0.829z"/>
</svg>
