<?xml version="1.0" encoding="utf-8"?>
<!-- Generator: Adobe Illustrator 16.0.0, SVG Export Plug-In . SVG Version: 6.00 Build 0)  -->
<!DOCTYPE svg PUBLIC "-//W3C//DTD SVG 1.1//EN" "http://www.w3.org/Graphics/SVG/1.1/DTD/svg11.dtd">
<svg version="1.1" id="Layer_1" xmlns="http://www.w3.org/2000/svg" xmlns:xlink="http://www.w3.org/1999/xlink" x="0px" y="0px"
	 width="1920px" height="289.932px" viewBox="0 0 1920 289.932" enable-background="new 0 0 1920 289.932" xml:space="preserve">
<path fill-rule="evenodd" clip-rule="evenodd" fill="#F48622" d="M-0.047,1C21.34,14.468,42.88,28.595,64.955,41.83
	c72.677,43.571,149.146,79.292,228.418,109.077c72.595,27.277,146.795,49.23,222.402,66.427
	c47.189,10.734,94.662,20.007,142.604,26.712c26.978,3.773,53.97,7.501,81.026,10.641c19.449,2.258,38.996,3.773,58.532,5.147
	c29.924,2.105,59.855,4.478,89.827,5.487c31.735,1.067,63.519,0.932,95.282,0.83c25.096-0.08,50.213-0.41,75.281-1.535
	c25.195-1.13,50.367-3.04,75.496-5.226c29.184-2.536,58.463-4.69,87.426-8.9c46.158-6.706,92.252-14.119,138.084-22.767
	c80.883-15.26,160.02-37.312,237.682-64.569C1710.086,123.47,1818.459,66.6,1918.313,0c0,0,0,0,1.734,0
	c-18.723,12.985-39.874,32.524-65.711,46.33c-107.746,70.786-214.598,121.12-337.146,160.375
	c-67.625,21.662-136.371,38.984-206.199,51.755c-35.668,6.523-71.57,11.911-107.492,16.877c-24.953,3.449-50.104,5.572-75.209,7.789
	c-21.049,1.86-42.141,3.77-63.248,4.305c-52.227,1.322-104.476,2.418-156.716,2.5c-26.573,0.043-53.191-1.74-79.714-3.713
	c-31.417-2.334-62.83-5.105-94.11-8.827c-133.212-15.847-263.302-45.236-389.419-91.376C242.54,148.5,144.983,100.982,54.297,39.892
	C36.32,27.78,18.979,14.724,1.347,2.099C0.729,1.655,0.149,1.155-0.047,1z"/>
</svg>
