<?xml version="1.0" encoding="utf-8"?>
<!-- Generator: Adobe Illustrator 16.0.0, SVG Export Plug-In . SVG Version: 6.00 Build 0)  -->
<!DOCTYPE svg PUBLIC "-//W3C//DTD SVG 1.1//EN" "http://www.w3.org/Graphics/SVG/1.1/DTD/svg11.dtd">
<svg version="1.1" id="Layer_1" xmlns="http://www.w3.org/2000/svg" xmlns:xlink="http://www.w3.org/1999/xlink" x="0px" y="0px"
	 width="150.5px" height="150.5px" viewBox="0 0 150.5 150.5" enable-background="new 0 0 150.5 150.5" xml:space="preserve">
<g>
	<circle fill="#FFFFFF" cx="75.25" cy="75.25" r="75.25"/>
	<path fill="#FFFFFF" d="M115.5,12.094c0,0,2.75-2.958,5.583-1.583c2.807,1.362,3.376,5.833,3.584,9.396
		S115.471,13.302,115.5,12.094z"/>
	<path fill="#FFFFFF" d="M125.216,22.371c0,0,2.75-2.958,5.583-1.583c2.807,1.362,3.376,5.833,3.584,9.396
		S125.187,23.579,125.216,22.371z"/>
	<g>
		<circle fill="#0732A7" cx="75.174" cy="74.258" r="70.604"/>
		<path fill="#0732A7" d="M122.949,27.273c0,0,2.294-9.662-1.843-13.859c-2.462-2.178-5.07,0.211-4.136,1.752
			C116.97,16.76,123.367,21.054,122.949,27.273z"/>
		<path fill="#FFFFFF" d="M122.111,28.112c0,0,2.295-9.663-1.844-13.861c-2.459-2.179-5.072,0.213-4.133,1.751
			C116.133,17.599,122.53,21.893,122.111,28.112z"/>
		<path fill="#FFFFFF" d="M116.013,27.106c0,0-2.457-10.09-9.179-13.166c-3.136-1-4.838,2.052-3.355,3.078
			C104.118,18.482,113.885,21.245,116.013,27.106z"/>
		<path fill="#FFFFFF" d="M128.21,51.771c0,0,2.97-20.776-19.079-24.592C85.915,22.514,67.474,40.321,76.06,60.251
			c9.329,20.777,34.766,26.036,28.193,43.846c-7.27,19.702-51.47,35.567-75.409,3.974c-5.389-6.713-13.7-19.787-15.364-37.086
			c-1.686,20.744,2.934,43.949,32.58,61.347c37.309,19.046,76.235-2.688,79.607-23.358c2.678-20.388-11.151-26.839-16.325-31.375
			c-7.194-6.311-34.767-12.259-26.075-34.308c0,0,4.415-11.503,18.657-7.631c0,0-5.514,11.447,2.544,17.172
			c8.162,5.617,14.839,1.486,14.839,1.486s-2.543,14.412,6.36,15.262c0,0-4.019-5.541-1.271-8.692
			C127.787,56.645,128.21,51.771,128.21,51.771z"/>
		<circle fill="#0732A7" cx="112.842" cy="45.199" r="3.5"/>
		<path fill="#0732A7" d="M128.106,37.576c0,0,5.996-8.164,3.13-13.314c-1.784-2.758-4.666-0.857-4.782,0.673
			C126.025,26.471,130.174,31.696,128.106,37.576z"/>
		<path fill="#FFFFFF" d="M127.268,38.415c0,0,5.996-8.166,3.134-13.317c-1.788-2.758-4.67-0.857-4.784,0.673
			C125.189,27.309,129.338,32.532,127.268,38.415z"/>
		<path fill-rule="evenodd" clip-rule="evenodd" fill="#FFFFFF" d="M100.771,90.561c0,1.261-0.028,2.427,0.006,3.59
			c0.32,10.818-7.02,20.617-15.336,23.624c-8.821,3.192-17.456,2.695-25.742-1.903c-8.319-4.619-12.96-14.401-11.277-23.769
			c0.729-4.062,3.066-6.1,6.444-5.594c2.129,0.316,3.67,1.646,4.396,3.486c1.344,3.392,2.741,6.847,3.393,10.406
			c1.249,6.854,7.063,12.433,14.901,13.78c9.358,1.604,19.131-5.482,21.301-13.665C99.706,97.318,100.122,94.008,100.771,90.561z"/>
		<path fill-rule="evenodd" clip-rule="evenodd" fill="#F48723" d="M96.47,88.585c1.152,5.889,0.391,10.976-3.009,15.458
			c-2.618,3.453-6.103,5.719-10.398,6.59c-3.038,0.615-5.56-0.431-6.355-2.551c-0.748-2.004,0.338-4.228,3.148-5.689
			c1.786-0.928,3.742-1.669,5.709-2.1C93.085,98.647,95.174,96.563,96.47,88.585z"/>
		<path fill="#FFFFFF" d="M23.276,58.8c0,0,7.479-2.965,8.087-10.091c0.504-6.344-3.647-7.56,0.369-13.021
			c1.538-2.089,7.836-9.89,4.509-11.979c-2.891-1.677-6.807,0.569-8.629,1.301c-0.878,0.377-2.923,1.389-3.053,1.716
			c-0.131,0.325,1.249,0.114,1.359,0.371c0.046,0.356-0.785,1.403-0.489,1.507c0.259,0.087,1.445-0.677,2.771-1.482
			c1.321-0.805,7.699-3.581,6.265,0.077c-1.085,2.768-3.932,4.499-6.372,6.575c-3.236,2.19-6.419,7.162-6.565,9.678
			c-0.146,2.518-1.04-4.599-2.318-3.837c-0.413,0.249,0.167,1.911-0.369,3.512c-1.124,3.373-3.207,9.24,0.389,13.938
			C20.546,57.471,23.276,58.8,23.276,58.8z"/>
		<path fill-rule="evenodd" clip-rule="evenodd" fill="#0732A7" d="M26.217,101.762C17.979,90.773,14.97,80.519,14.342,68.438
			c-0.35-6.729,0.588-13.015,4.647-18.843c0.326-0.476,2.447-3.642,6.316-2.734c1.884,0.538,3.259,2.596,3.085,4.435
			c-0.841,4-2.127,7.93-3.501,11.793c-4.382,12.311-3.928,23.976,0.715,36.203C25.782,99.755,26.186,101.602,26.217,101.762z"/>
		<path fill-rule="evenodd" clip-rule="evenodd" fill="#FFFFFF" d="M25.505,99.934c-6.563-9.305-9.683-19.781-10.268-31.034
			c-0.327-6.27,0.041-12.475,3.817-17.905c0.308-0.44,2.702-4.52,6.144-3.374c2.228,0.967,3.215,3.165,2.756,5.339
			c-0.787,3.728-1.981,7.388-3.265,10.988c-4.079,11.466-4.101,22.867,0.225,34.261C25.076,98.635,25.475,99.784,25.505,99.934z"/>
		<path fill-rule="evenodd" clip-rule="evenodd" fill="#F48723" d="M78.798,122.178c-2.759,0.248-5.517,0.706-8.273,0.71
			c-11.98,0.017-22.479-3.979-31.32-12.098c-4.678-4.292-7.264-9.954-9.765-15.627c-2.352-5.327-4.219-10.8-4.139-16.729
			c0.04-3.126,0.813-6.024,3.001-8.389c2.707-2.922,6.277-2.959,9.025-0.02c2.527,2.696,3.211,6.079,3.541,9.645
			c0.537,5.752,0.769,11.595,2.02,17.201c3.161,14.166,14.681,23.731,29.177,24.793c2.222,0.166,4.462,0.025,6.697,0.025
			C78.772,121.851,78.788,122.015,78.798,122.178z"/>
	</g>
</g>
</svg>
