<?xml version="1.0" encoding="utf-8"?>
<!-- Generator: Adobe Illustrator 16.0.0, SVG Export Plug-In . SVG Version: 6.00 Build 0)  -->
<!DOCTYPE svg PUBLIC "-//W3C//DTD SVG 1.1//EN" "http://www.w3.org/Graphics/SVG/1.1/DTD/svg11.dtd">
<svg version="1.1" id="Layer_1" xmlns="http://www.w3.org/2000/svg" xmlns:xlink="http://www.w3.org/1999/xlink" x="0px" y="0px"
	 width="44.548px" height="44.548px" viewBox="0 0 44.548 44.548" enable-background="new 0 0 44.548 44.548" xml:space="preserve">
<path fill-rule="evenodd" clip-rule="evenodd" fill="#0631a7" d="M18.869,44.51c0-5.281,0-10.559,0-15.89c-1.665,0-3.307,0-4.941,0
	c0-2.113,0-4.171,0-6.268c1.67,0,3.301,0,4.963,0c0-0.751-0.018-1.464,0.005-2.175c0.045-1.516,0.003-3.044,0.192-4.543
	c0.412-3.25,2.526-5.526,5.708-6.347c1.777-0.458,3.574-0.346,5.371-0.192c0.824,0.07,1.645,0.19,2.457,0.287
	c0,1.861,0,3.655,0,5.484c-0.248,0-0.469-0.003-0.69,0c-1.338,0.024-2.681-0.006-4.014,0.09c-1.481,0.106-2.426,1.02-2.693,2.483
	c-0.076,0.42-0.073,0.858-0.078,1.288c-0.009,1.201-0.003,2.403-0.003,3.647c2.203,0,4.355,0,6.574,0
	c-0.329,2.103-0.65,4.152-0.979,6.258c-1.451,0-2.885,0-4.325,0c0,5.329,0,10.596,0,15.915c4.662-1.014,8.575-3.278,11.809-6.723
	c4.088-4.354,6.062-9.581,6.016-15.504C44.146,10.116,34.446,0.42,22.292,0.285C10.253,0.15,0.11,9.846,0.001,22.253
	C-0.104,34.22,8.556,43.04,18.869,44.51z"/>
</svg>
