<?xml version="1.0" encoding="utf-8"?>
<!-- Generator: Adobe Illustrator 16.0.0, SVG Export Plug-In . SVG Version: 6.00 Build 0)  -->
<!DOCTYPE svg PUBLIC "-//W3C//DTD SVG 1.1//EN" "http://www.w3.org/Graphics/SVG/1.1/DTD/svg11.dtd">
<svg version="1.1" id="Layer_1" xmlns="http://www.w3.org/2000/svg" xmlns:xlink="http://www.w3.org/1999/xlink" x="0px" y="0px"
	 width="126.87px" height="126.51px" viewBox="0 0 126.87 126.51" enable-background="new 0 0 126.87 126.51" xml:space="preserve">
<path fill-rule="evenodd" clip-rule="evenodd" fill="#ededed" d="M76.152,74.786c0,0-7.35,17.497-30.999,24.511
	C26.364,104.868,1,96.104,1,96.104s14.845-22.209,36.391-27.558C58.939,63.195,72.421,72.771,76.152,74.786z"/>
<path fill-rule="evenodd" clip-rule="evenodd" fill="#ededed" d="M64.979,80.786c0,0-10.783-15.617-3.955-39.319
	C66.45,22.634,87.497,5.984,87.497,5.984s10.716,24.471,3.618,45.505C84.016,72.526,68.687,78.728,64.979,80.786z"/>
<path fill-rule="evenodd" clip-rule="evenodd" fill="#ededed" d="M63.435,69.618c0,0,18.749-2.942,37.143,13.494
	c14.615,13.057,20.487,39.244,20.487,39.244s-26.697-0.96-42.57-16.48C62.62,90.354,63.681,73.851,63.435,69.618z"/>
</svg>
