<?xml version="1.0" encoding="utf-8"?>
<!-- Generator: Adobe Illustrator 16.0.0, SVG Export Plug-In . SVG Version: 6.00 Build 0)  -->
<!DOCTYPE svg PUBLIC "-//W3C//DTD SVG 1.1//EN" "http://www.w3.org/Graphics/SVG/1.1/DTD/svg11.dtd">
<svg version="1.1" id="Layer_1" xmlns="http://www.w3.org/2000/svg" xmlns:xlink="http://www.w3.org/1999/xlink" x="0px" y="0px"
	 width="24.617px" height="34.022px" viewBox="0 0 24.617 34.022" enable-background="new 0 0 24.617 34.022" xml:space="preserve">
<g>
	<path fill-rule="evenodd" clip-rule="evenodd" fill="#F48622" d="M12.959,0c0.338,0.044,0.677,0.078,1.014,0.132
		c4.554,0.729,7.789,3.218,9.655,7.406c1.19,2.672,1.258,5.461,0.461,8.275c-0.692,2.443-1.785,4.709-3.042,6.898
		c-2.207,3.84-4.854,7.366-7.741,10.718c-0.68,0.789-1.343,0.79-2.021,0c-3.271-3.813-6.258-7.829-8.6-12.29
		c-1.071-2.041-2.013-4.143-2.437-6.424C-0.585,10.234,0.687,6.401,3.98,3.268c1.944-1.851,4.306-2.862,6.963-3.191
		C11.171,0.048,11.401,0.024,11.63,0C12.073,0,12.516,0,12.959,0z M12.255,18.519c3.354,0.059,6.164-2.702,6.226-6.12
		c0.062-3.408-2.684-6.22-6.132-6.28C8.985,6.06,6.18,8.804,6.107,12.222C6.036,15.643,8.783,18.456,12.255,18.519z"/>
</g>
<g>
	<path fill-rule="evenodd" clip-rule="evenodd" fill="#F48622" d="M569.307,59.326c0.378,0.081,0.741,0.197,1.044,0.452
		c0.042,0.037,0.087,0.07,0.126,0.11c0.856,0.855,1.716,1.707,2.566,2.568c0.632,0.64,0.742,1.519,0.297,2.25
		c-0.201,0.33-0.484,0.563-0.847,0.693c-0.525,0.189-0.932,0.51-1.157,1.033c-0.15,0.348-0.171,0.705-0.073,1.071
		c0.246,0.928,0.748,1.71,1.362,2.429c0.78,0.914,1.681,1.688,2.767,2.223c0.384,0.189,0.783,0.364,1.222,0.345
		c0.832-0.038,1.416-0.439,1.71-1.231c0.141-0.38,0.377-0.68,0.727-0.888c0.664-0.395,1.507-0.341,2.078,0.182
		c0.549,0.502,1.064,1.04,1.591,1.567c0.43,0.43,0.874,0.847,1.273,1.305c0.534,0.611,0.55,1.568,0.076,2.23
		c-0.096,0.135-0.205,0.264-0.321,0.383c-0.503,0.508-1.018,1.002-1.512,1.518c-0.45,0.47-0.989,0.732-1.633,0.8
		c-0.028,0.003-0.056,0.021-0.084,0.03c-0.261,0-0.521,0-0.783,0c-0.344-0.066-0.694-0.116-1.034-0.203
		c-1.404-0.357-2.672-1.017-3.878-1.796c-2.005-1.294-3.765-2.873-5.335-4.663c-1.382-1.575-2.578-3.273-3.401-5.211
		c-0.388-0.912-0.673-1.853-0.702-2.854c-0.025-0.883,0.209-1.659,0.888-2.275c0.44-0.4,0.854-0.831,1.265-1.262
		c0.38-0.4,0.793-0.73,1.36-0.806C569.033,59.326,569.17,59.326,569.307,59.326z"/>
</g>
<g>
	<path fill-rule="evenodd" clip-rule="evenodd" fill="#F48622" d="M562.835,121.538c0.065-0.201,0.13-0.401,0.19-0.589
		c2.391,2.369,4.765,4.723,7.143,7.08c-2.386,2.365-4.763,4.719-7.148,7.08c-0.048-0.144-0.117-0.347-0.185-0.549
		C562.835,130.22,562.835,125.879,562.835,121.538z"/>
	<path fill-rule="evenodd" clip-rule="evenodd" fill="#F48622" d="M586.479,134.561c-0.066,0.199-0.132,0.4-0.192,0.587
		c-2.39-2.368-4.764-4.721-7.142-7.079c2.393-2.368,4.771-4.723,7.154-7.081c0.05,0.149,0.113,0.35,0.18,0.551
		C586.479,125.879,586.479,130.22,586.479,134.561z"/>
	<path fill-rule="evenodd" clip-rule="evenodd" fill="#F48622" d="M564.027,119.904c0.287-0.063,0.524-0.117,0.763-0.161
		c0.09-0.016,0.185-0.007,0.277-0.007c6.395,0,12.787,0,19.183-0.001c0.342-0.001,0.672,0.041,1.006,0.197
		c-0.065,0.071-0.115,0.127-0.166,0.18c-3.26,3.271-6.52,6.539-9.779,9.809c-0.428,0.429-0.878,0.429-1.305-0.001
		c-3.261-3.27-6.521-6.539-9.781-9.808C564.178,120.063,564.131,120.013,564.027,119.904z"/>
	<path fill-rule="evenodd" clip-rule="evenodd" fill="#F48622" d="M578.117,129.09c2.381,2.357,4.752,4.705,7.17,7.101
		c-0.282,0.063-0.515,0.119-0.75,0.163c-0.09,0.018-0.185,0.008-0.276,0.008c-6.401,0-12.802-0.002-19.203,0.001
		c-0.339,0-0.67-0.035-0.998-0.202c2.388-2.363,4.757-4.711,7.144-7.075c0.021,0.019,0.081,0.071,0.14,0.13
		c0.564,0.566,1.128,1.134,1.694,1.699c0.956,0.959,2.281,0.959,3.24,0.003C576.898,130.297,577.522,129.682,578.117,129.09z"/>
</g>
</svg>
