<?xml version="1.0" encoding="utf-8"?>
<!-- Generator: Adobe Illustrator 16.0.0, SVG Export Plug-In . SVG Version: 6.00 Build 0)  -->
<!DOCTYPE svg PUBLIC "-//W3C//DTD SVG 1.1//EN" "http://www.w3.org/Graphics/SVG/1.1/DTD/svg11.dtd">
<svg version="1.1" id="Layer_1" xmlns="http://www.w3.org/2000/svg" xmlns:xlink="http://www.w3.org/1999/xlink" x="0px" y="0px"
	 width="23.708px" height="16.63px" viewBox="0 0 23.708 16.63" enable-background="new 0 0 23.708 16.63" xml:space="preserve">
<g>
	<path fill-rule="evenodd" clip-rule="evenodd" fill="#F48622" d="M0.063,1.822c0.065-0.201,0.13-0.401,0.19-0.589
		c2.391,2.369,4.765,4.723,7.143,7.08c-2.386,2.365-4.763,4.719-7.148,7.08C0.2,15.25,0.131,15.047,0.063,14.845
		C0.063,10.504,0.063,6.163,0.063,1.822z"/>
	<path fill-rule="evenodd" clip-rule="evenodd" fill="#F48622" d="M23.708,14.845c-0.066,0.199-0.132,0.4-0.192,0.587
		c-2.39-2.368-4.764-4.721-7.142-7.079c2.393-2.368,4.771-4.723,7.154-7.081c0.05,0.149,0.113,0.35,0.18,0.551
		C23.708,6.163,23.708,10.504,23.708,14.845z"/>
	<path fill-rule="evenodd" clip-rule="evenodd" fill="#F48622" d="M1.256,0.188C1.543,0.126,1.78,0.071,2.019,0.027
		c0.09-0.016,0.185-0.007,0.277-0.007c6.395,0,12.787,0,19.183-0.001c0.342-0.001,0.672,0.041,1.006,0.197
		c-0.065,0.071-0.115,0.127-0.166,0.18c-3.26,3.271-6.52,6.539-9.779,9.809c-0.428,0.429-0.878,0.429-1.305-0.001
		c-3.261-3.27-6.521-6.539-9.781-9.808C1.406,0.347,1.359,0.297,1.256,0.188z"/>
	<path fill-rule="evenodd" clip-rule="evenodd" fill="#F48622" d="M15.346,9.374c2.381,2.357,4.752,4.705,7.17,7.101
		c-0.282,0.063-0.515,0.119-0.75,0.163c-0.09,0.018-0.185,0.008-0.276,0.008c-6.401,0-12.802-0.002-19.203,0.001
		c-0.339,0-0.67-0.035-0.998-0.202c2.388-2.363,4.757-4.711,7.144-7.075c0.021,0.019,0.081,0.071,0.14,0.13
		c0.564,0.566,1.128,1.134,1.694,1.699c0.956,0.959,2.281,0.959,3.24,0.003C14.127,10.581,14.751,9.966,15.346,9.374z"/>
</g>
</svg>
