<?xml version="1.0" encoding="utf-8"?>
<!-- Generator: Adobe Illustrator 16.0.0, SVG Export Plug-In . SVG Version: 6.00 Build 0)  -->
<!DOCTYPE svg PUBLIC "-//W3C//DTD SVG 1.1//EN" "http://www.w3.org/Graphics/SVG/1.1/DTD/svg11.dtd">
<svg version="1.1" id="Layer_1" xmlns="http://www.w3.org/2000/svg" xmlns:xlink="http://www.w3.org/1999/xlink" x="0px" y="0px"
	 width="191.693px" height="61.443px" viewBox="0 0 191.693 61.443" enable-background="new 0 0 191.693 61.443"
	 xml:space="preserve">
<g>
	
		<line fill="none" stroke="#F48723" stroke-width="1.6" stroke-linecap="round" stroke-linejoin="round" stroke-miterlimit="10" x1="1.662" y1="37.904" x2="190.135" y2="37.904"/>
	<g>
		<g>
			<path fill="#0732A7" d="M7.666,32.055c-1.916-0.618-3.416-1.485-4.504-2.604c-1.089-1.118-1.635-2.414-1.635-3.887
				c0-0.822,0.289-1.516,0.863-2.074c0.573-0.559,1.272-0.838,2.096-0.838c0.825,0,1.517,0.279,2.076,0.838
				c0.559,0.559,0.838,1.252,0.838,2.074c0,1.677,0.64,3.07,1.922,4.174c1.28,1.103,2.875,1.653,4.788,1.653
				c1.208,0,2.32-0.221,3.335-0.659c1.013-0.444,1.825-1.039,2.428-1.79c0.603-0.752,0.904-1.597,0.904-2.539
				c0-1.117-0.37-2.089-1.104-2.913c-0.737-0.823-1.656-1.522-2.758-2.098c-1.106-0.574-2.569-1.229-4.395-1.964
				c-2.237-0.941-4.032-1.789-5.386-2.538c-1.354-0.751-2.51-1.729-3.466-2.937c-0.956-1.208-1.434-2.679-1.434-4.416
				c0-1.736,0.447-3.273,1.345-4.613c0.899-1.34,2.216-2.376,3.952-3.113c1.737-0.733,3.812-1.104,6.226-1.104
				c2.118,0,4.068,0.287,5.849,0.861s3.187,1.398,4.217,2.472c1.029,1.075,1.544,2.318,1.544,3.733c0,0.852-0.278,1.56-0.837,2.117
				c-0.56,0.559-1.253,0.838-2.075,0.838c-0.825,0-1.524-0.285-2.098-0.859c-0.573-0.574-0.86-1.273-0.86-2.096
				c0-1.531-0.576-2.821-1.723-3.865c-1.147-1.044-2.576-1.566-4.281-1.566c-1.916,0-3.432,0.492-4.549,1.479
				C7.827,4.808,7.268,6.096,7.268,7.685c0,1.323,0.41,2.465,1.235,3.423c0.823,0.956,1.839,1.757,3.046,2.404
				c1.208,0.648,2.828,1.384,4.857,2.209c2.148,0.882,3.87,1.67,5.167,2.361c1.292,0.691,2.39,1.582,3.289,2.67
				c0.897,1.091,1.345,2.399,1.345,3.931c0,1.56-0.514,2.974-1.545,4.238c-1.029,1.266-2.465,2.259-4.304,2.98
				c-1.839,0.719-3.922,1.081-6.249,1.081C11.727,32.982,9.576,32.674,7.666,32.055z"/>
			<path fill="#0732A7" d="M30.757,31.181h0.33c0.413,0,0.697-0.175,0.856-0.527c0.158-0.353,0.237-1.027,0.237-2.024V11.232
				c0-1.022-0.079-1.704-0.237-2.044c-0.159-0.338-0.443-0.51-0.856-0.51h-0.33V7.584l4.596-0.838h0.91v10.028
				c0.586-1.021,1.43-1.83,2.536-2.424c1.105-0.596,2.329-0.893,3.665-0.893c1.848,0,3.271,0.498,4.267,1.494
				c0.998,0.997,1.508,2.649,1.531,4.961v8.716c0,0.997,0.081,1.672,0.24,2.024c0.156,0.353,0.457,0.527,0.893,0.527h0.293v1.096
				h-1.425h-4.083h-1.422v-1.096h0.329c0.413,0,0.699-0.175,0.857-0.527c0.157-0.353,0.236-1.027,0.236-2.024v-8.571
				c0-1.531-0.286-2.717-0.857-3.556c-0.572-0.84-1.439-1.259-2.606-1.259c-1.314,0-2.384,0.451-3.21,1.351
				c-0.827,0.899-1.242,2.055-1.242,3.464v8.571c0,0.997,0.08,1.672,0.238,2.024c0.158,0.353,0.443,0.527,0.857,0.527h0.328v1.096
				h-6.93V31.181z"/>
			<path fill="#0732A7" d="M58.076,31.582c-1.482-0.849-2.65-2.017-3.502-3.501c-0.851-1.482-1.276-3.137-1.276-4.96
				c0-1.822,0.426-3.471,1.276-4.941c0.852-1.472,2.02-2.626,3.502-3.464c1.483-0.84,3.137-1.258,4.959-1.258
				c1.825,0,3.479,0.418,4.961,1.258c1.482,0.838,2.646,1.992,3.483,3.464c0.839,1.471,1.26,3.119,1.26,4.941
				c0,1.823-0.421,3.478-1.26,4.96c-0.837,1.484-2.001,2.652-3.483,3.501c-1.482,0.852-3.136,1.276-4.961,1.276
				C61.212,32.858,59.559,32.434,58.076,31.582z M58.24,27.571c0.475,1.289,1.132,2.292,1.969,3.008
				c0.841,0.719,1.794,1.077,2.865,1.077c1.044,0,1.982-0.358,2.809-1.077c0.828-0.716,1.469-1.719,1.931-3.008
				c0.463-1.289,0.696-2.771,0.696-4.45c0-1.678-0.233-3.153-0.696-4.431c-0.462-1.276-1.103-2.275-1.931-2.992
				c-0.827-0.717-1.765-1.076-2.809-1.076c-1.071,0-2.023,0.359-2.865,1.076c-0.837,0.717-1.494,1.716-1.969,2.992
				c-0.473,1.277-0.712,2.753-0.712,4.431C57.528,24.8,57.767,26.282,58.24,27.571z"/>
			<path fill="#F48723" d="M76.022,38.313v-0.963h0.327c0.413,0,0.697-0.176,0.857-0.527c0.158-0.354,0.236-1.246,0.236-2.244
				V11.232c0-1.022-0.078-1.704-0.236-2.044c-0.16-0.338-0.444-0.51-0.857-0.51h-0.327V7.584l4.595-0.838h0.911v28.007
				c0,0.998,0.079,1.697,0.237,2.049c0.158,0.354,0.455,0.529,0.895,0.529h0.29v0.982h-1.422h-4.085H76.022z"/>
			<path fill="#0732A7" d="M89.642,32.167c-0.911-0.461-1.629-1.1-2.153-1.915c-0.521-0.813-0.781-1.732-0.781-2.755
				c0-1.385,0.351-2.484,1.057-3.299c0.704-0.815,1.551-1.41,2.537-1.787c0.983-0.379,2.266-0.749,3.845-1.112
				c1.12-0.244,1.994-0.469,2.627-0.675c0.633-0.207,1.16-0.499,1.586-0.875c0.426-0.377,0.639-0.872,0.639-1.479v-0.547
				c0-1.068-0.256-1.865-0.766-2.389s-1.326-0.784-2.443-0.784c-0.949,0-1.752,0.311-2.408,0.93
				c-0.657,0.62-0.984,1.357-0.984,2.207c0,0.851-0.231,1.537-0.693,2.062c-0.464,0.522-1.069,0.782-1.823,0.782
				c-0.657,0-1.241-0.218-1.751-0.655s-0.767-0.999-0.767-1.678c0-0.974,0.37-1.817,1.114-2.536
				c0.739-0.718,1.719-1.271,2.935-1.657c1.215-0.39,2.506-0.584,3.865-0.584c2.53,0,4.45,0.48,5.763,1.44s1.996,2.327,2.043,4.102
				v8.827c0,1.07,0.049,1.848,0.146,2.334c0.096,0.488,0.354,0.729,0.766,0.729c0.586,0,1.105-0.584,1.568-1.751l1.059,0.365
				c-0.416,1.217-0.945,2.085-1.588,2.607c-0.643,0.523-1.402,0.783-2.277,0.783c-1.193,0-2.098-0.357-2.719-1.076
				c-0.619-0.715-0.967-1.84-1.039-3.371c-0.535,1.36-1.318,2.442-2.354,3.245s-2.328,1.202-3.882,1.202
				C91.594,32.858,90.556,32.63,89.642,32.167z M91.758,29.888c0.645,0.645,1.49,0.966,2.533,0.966c1.484,0,2.641-0.626,3.465-1.88
				c0.826-1.25,1.242-2.787,1.242-4.612v-3.83c-0.316,0.318-0.719,0.603-1.203,0.857c-0.486,0.257-1.119,0.542-1.896,0.857
				c-1.07,0.438-1.951,0.853-2.646,1.24c-0.691,0.391-1.274,0.906-1.748,1.551c-0.475,0.644-0.713,1.452-0.713,2.426
				S91.113,29.243,91.758,29.888z"/>
			<path fill="#0732A7" d="M120.898,30.981h0.389c0.49,0,0.83-0.211,1.018-0.627c0.184-0.416,0.279-1.216,0.279-2.397V5.669
				c0-0.833-0.1-1.432-0.301-1.791c-0.203-0.36-0.535-0.54-0.996-0.54h-0.389V2.042h11.49c3.828,0.029,6.65,0.813,8.463,2.355
				c1.816,1.539,2.723,3.923,2.723,7.148c0,3.253-0.891,5.664-2.676,7.233c-1.787,1.567-4.564,2.383-8.34,2.442h-5.137v6.735
				c0,1.182,0.094,1.981,0.281,2.397c0.184,0.416,0.523,0.627,1.012,0.627h0.395v1.295h-8.211V30.981z M132.084,19.881
				c2.246,0,3.891-0.684,4.928-2.053c1.035-1.366,1.551-3.462,1.551-6.282c0-2.794-0.516-4.852-1.551-6.178
				c-1.037-1.323-2.682-1.986-4.928-1.986h-4.662v16.499H132.084z"/>
			<path fill="#F48723" d="M148.057,38.24v-0.862l0.328-0.014c0.414,0,0.697-0.234,0.857-0.588c0.158-0.353,0.236-1.025,0.236-2.023
				V18.526c0-1.022-0.078-1.702-0.236-2.043c-0.16-0.34-0.445-0.511-0.857-0.511h-0.328V14.88l4.594-0.84h0.912v20.713
				c0,0.998,0.078,1.671,0.238,2.023c0.158,0.354,0.449,0.602,0.887,0.602h0.297v0.801l-1.426,0.026l-4.068,0.035H148.057z
				 M149.551,6.909c0.486-0.474,1.07-0.711,1.752-0.711c0.656,0,1.217,0.237,1.678,0.711c0.461,0.475,0.693,1.041,0.693,1.697
				c0,0.68-0.232,1.258-0.693,1.732c-0.461,0.473-1.021,0.711-1.678,0.711c-0.682,0-1.266-0.238-1.752-0.711
				c-0.484-0.475-0.73-1.053-0.73-1.732C148.82,7.95,149.066,7.384,149.551,6.909z"/>
			<path fill="#0732A7" d="M160.492,15.864l-0.182-0.511h-2.043V14.04h1.533c0.949,0,1.725-0.461,2.336-1.387
				c0.607-0.923,0.996-2.138,1.164-3.647h1.277v5.034h2.627v1.313h-2.627V27.79c0,1.07,0.047,1.848,0.145,2.334
				c0.1,0.488,0.355,0.729,0.768,0.729c0.582,0,1.105-0.584,1.568-1.751l1.059,0.365c-0.414,1.217-0.943,2.085-1.588,2.607
				c-0.646,0.523-1.404,0.783-2.279,0.783c-1.215,0-2.135-0.369-2.754-1.111c-0.619-0.741-0.953-1.902-1.004-3.482V15.864z"/>
			<path fill="#0732A7" d="M171.764,31.181h0.326c0.414,0,0.699-0.175,0.855-0.527c0.162-0.353,0.24-1.027,0.24-2.024V11.232
				c0-1.022-0.078-1.704-0.24-2.044c-0.156-0.338-0.441-0.51-0.855-0.51h-0.326V7.584l4.594-0.838h0.912v10.028
				c0.584-1.021,1.43-1.83,2.535-2.424c1.107-0.596,2.33-0.893,3.666-0.893c1.848,0,3.27,0.498,4.268,1.494
				c0.998,0.997,1.508,2.649,1.531,4.961v8.716c0,0.997,0.078,1.672,0.236,2.024c0.16,0.353,0.457,0.527,0.896,0.527h0.291v1.096
				h-1.424h-4.084h-1.424v-1.096h0.33c0.412,0,0.697-0.175,0.855-0.527c0.16-0.353,0.238-1.027,0.238-2.024v-8.571
				c0-1.531-0.287-2.717-0.857-3.556c-0.572-0.84-1.441-1.259-2.607-1.259c-1.314,0-2.385,0.451-3.211,1.351s-1.24,2.055-1.24,3.464
				v8.571c0,0.997,0.08,1.672,0.238,2.024s0.443,0.527,0.857,0.527h0.328v1.096h-6.93V31.181z"/>
		</g>
	</g>
	<g>
		<path fill="#0732A7" d="M2.02,48.808c0.464-0.787,1.092-1.4,1.885-1.844c0.792-0.444,1.662-0.665,2.605-0.665
			c1.08,0,2.042,0.266,2.883,0.797c0.842,0.528,1.453,1.281,1.833,2.253h-2c-0.263-0.534-0.627-0.932-1.096-1.197
			c-0.466-0.26-1.006-0.392-1.62-0.392c-0.671,0-1.27,0.149-1.796,0.451c-0.525,0.301-0.936,0.736-1.232,1.299
			c-0.298,0.565-0.446,1.223-0.446,1.97c0,0.751,0.148,1.408,0.446,1.973c0.297,0.564,0.708,1,1.232,1.307
			c0.526,0.307,1.125,0.459,1.796,0.459c0.613,0,1.154-0.131,1.62-0.395c0.469-0.263,0.833-0.66,1.096-1.196h2
			c-0.38,0.973-0.991,1.724-1.833,2.248c-0.841,0.526-1.803,0.788-2.883,0.788c-0.954,0-1.824-0.221-2.612-0.664
			c-0.789-0.442-1.414-1.059-1.878-1.846c-0.461-0.79-0.691-1.679-0.691-2.674C1.328,50.488,1.559,49.598,2.02,48.808z"/>
		<path fill="#0732A7" d="M15.801,48.745c0.404-0.23,0.883-0.345,1.438-0.345v1.724h-0.423c-0.652,0-1.147,0.164-1.481,0.497
			c-0.336,0.33-0.503,0.904-0.503,1.722v4.232h-1.665v-8.043h1.665V49.7C15.074,49.292,15.397,48.972,15.801,48.745z"/>
		<path fill="#0732A7" d="M18.721,50.372c0.335-0.623,0.792-1.107,1.372-1.452c0.579-0.347,1.219-0.52,1.919-0.52
			c0.634,0,1.186,0.123,1.657,0.374c0.472,0.246,0.85,0.555,1.131,0.926v-1.168h1.678v8.043h-1.678v-1.197
			c-0.282,0.379-0.667,0.697-1.154,0.949c-0.486,0.255-1.041,0.379-1.663,0.379c-0.69,0-1.325-0.176-1.898-0.532
			c-0.574-0.354-1.029-0.851-1.364-1.488c-0.336-0.636-0.506-1.36-0.506-2.168S18.385,50.993,18.721,50.372z M24.457,51.101
			c-0.228-0.409-0.526-0.718-0.898-0.933c-0.368-0.214-0.768-0.321-1.195-0.321c-0.428,0-0.827,0.105-1.198,0.313
			c-0.371,0.21-0.668,0.516-0.897,0.919c-0.229,0.404-0.343,0.884-0.343,1.438s0.113,1.042,0.343,1.458
			c0.229,0.421,0.529,0.74,0.905,0.958c0.375,0.22,0.772,0.329,1.19,0.329c0.427,0,0.828-0.107,1.195-0.322
			c0.372-0.213,0.67-0.525,0.898-0.94c0.231-0.416,0.344-0.897,0.344-1.454C24.801,51.993,24.688,51.511,24.457,51.101z"/>
		<path fill="#0732A7" d="M32.042,49.89h-1.49v6.686h-1.679V49.89h-0.948v-1.357h0.948v-0.569c0-0.924,0.247-1.599,0.738-2.021
			s1.263-0.635,2.312-0.635v1.386c-0.504,0-0.861,0.097-1.064,0.287c-0.205,0.188-0.307,0.518-0.307,0.983v0.569h1.49V49.89z"/>
		<path fill="#0732A7" d="M35.458,49.89v4.453c0,0.304,0.07,0.519,0.21,0.65c0.142,0.131,0.382,0.196,0.723,0.196h1.022v1.386H36.1
			c-0.75,0-1.324-0.174-1.724-0.525c-0.398-0.352-0.6-0.92-0.6-1.707V49.89h-0.948v-1.357h0.948v-1.999h1.681v1.999h1.956v1.357
			H35.458z"/>
		<path fill="#0732A7" d="M39.033,47.16c-0.204-0.204-0.306-0.458-0.306-0.76c0-0.301,0.102-0.555,0.306-0.758
			c0.206-0.206,0.457-0.308,0.76-0.308c0.291,0,0.539,0.102,0.745,0.308c0.203,0.203,0.306,0.457,0.306,0.758
			c0,0.302-0.103,0.556-0.306,0.76c-0.206,0.204-0.454,0.306-0.745,0.306C39.489,47.466,39.238,47.364,39.033,47.16z M40.609,48.532
			v8.043h-1.663v-8.043H40.609z"/>
		<path fill="#0732A7" d="M48.559,48.795c0.499,0.263,0.894,0.652,1.173,1.169c0.283,0.516,0.425,1.137,0.425,1.868v4.743h-1.648
			v-4.496c0-0.721-0.183-1.271-0.542-1.656c-0.359-0.385-0.853-0.576-1.477-0.576c-0.622,0-1.115,0.191-1.481,0.576
			c-0.365,0.385-0.546,0.936-0.546,1.656v4.496h-1.665v-8.043h1.665v0.919c0.271-0.331,0.62-0.59,1.044-0.772
			c0.424-0.188,0.873-0.278,1.352-0.278C47.491,48.4,48.058,48.532,48.559,48.795z"/>
		<path fill="#0732A7" d="M57.171,48.774c0.48,0.246,0.86,0.555,1.131,0.926v-1.168h1.679v8.174c0,0.74-0.156,1.398-0.466,1.979
			c-0.312,0.58-0.762,1.034-1.352,1.365c-0.588,0.33-1.292,0.496-2.109,0.496c-1.09,0-1.995-0.255-2.716-0.766
			c-0.72-0.511-1.128-1.204-1.225-2.08h1.649c0.127,0.419,0.397,0.757,0.811,1.015c0.413,0.258,0.907,0.386,1.481,0.386
			c0.671,0,1.214-0.205,1.628-0.612c0.413-0.408,0.62-1.003,0.62-1.782v-1.342c-0.282,0.379-0.665,0.698-1.147,0.956
			c-0.48,0.258-1.028,0.386-1.641,0.386c-0.701,0-1.342-0.176-1.92-0.532c-0.58-0.354-1.038-0.851-1.373-1.488
			c-0.335-0.636-0.505-1.36-0.505-2.168s0.17-1.524,0.505-2.146c0.335-0.623,0.793-1.107,1.373-1.452
			c0.578-0.347,1.219-0.52,1.92-0.52C56.138,48.4,56.688,48.523,57.171,48.774z M57.957,51.101
			c-0.227-0.409-0.525-0.718-0.896-0.933c-0.371-0.214-0.77-0.321-1.198-0.321c-0.428,0-0.828,0.105-1.198,0.313
			c-0.368,0.21-0.668,0.516-0.896,0.919c-0.228,0.404-0.343,0.884-0.343,1.438s0.116,1.042,0.343,1.458
			c0.229,0.421,0.531,0.74,0.906,0.958c0.375,0.22,0.772,0.329,1.188,0.329c0.428,0,0.827-0.107,1.198-0.322
			c0.37-0.213,0.668-0.525,0.896-0.94c0.23-0.416,0.345-0.897,0.345-1.454C58.302,51.993,58.188,51.511,57.957,51.101z"/>
		<path fill="#0732A7" d="M73.207,48.532l-4.935,11.823H66.55l1.633-3.909l-3.167-7.914h1.854l2.264,6.131l2.35-6.131H73.207z"/>
		<path fill="#0732A7" d="M75.892,56.188c-0.613-0.345-1.096-0.832-1.445-1.459c-0.352-0.629-0.525-1.356-0.525-2.184
			c0-0.816,0.179-1.541,0.54-2.174c0.36-0.633,0.851-1.119,1.473-1.46c0.623-0.341,1.32-0.512,2.089-0.512
			c0.767,0,1.464,0.171,2.086,0.512c0.623,0.341,1.116,0.827,1.475,1.46c0.36,0.633,0.54,1.357,0.54,2.174
			c0,0.817-0.186,1.543-0.555,2.176c-0.37,0.633-0.875,1.122-1.51,1.467c-0.64,0.346-1.341,0.518-2.11,0.518
			C77.191,56.706,76.506,56.534,75.892,56.188z M79.155,54.955c0.373-0.204,0.679-0.513,0.913-0.92
			c0.232-0.408,0.351-0.904,0.351-1.489c0-0.583-0.114-1.078-0.338-1.48c-0.224-0.404-0.519-0.707-0.89-0.912
			c-0.37-0.207-0.769-0.307-1.197-0.307c-0.428,0-0.826,0.1-1.189,0.307c-0.365,0.205-0.656,0.508-0.87,0.912
			c-0.212,0.402-0.322,0.897-0.322,1.48c0,0.866,0.222,1.535,0.665,2.007c0.442,0.472,1,0.71,1.671,0.71
			C78.377,55.263,78.78,55.159,79.155,54.955z"/>
		<path fill="#0732A7" d="M91.058,48.532v8.043h-1.662v-0.949c-0.264,0.332-0.606,0.592-1.032,0.781
			c-0.423,0.188-0.873,0.286-1.347,0.286c-0.636,0-1.2-0.132-1.704-0.396c-0.5-0.262-0.893-0.651-1.181-1.167
			c-0.287-0.517-0.431-1.138-0.431-1.867v-4.73h1.649v4.479c0,0.721,0.181,1.275,0.539,1.659c0.361,0.383,0.854,0.576,1.476,0.576
			s1.117-0.193,1.48-0.576c0.367-0.384,0.55-0.938,0.55-1.659v-4.479H91.058z"/>
		<path fill="#0732A7" d="M95.883,48.745c0.404-0.23,0.883-0.345,1.439-0.345v1.724h-0.424c-0.652,0-1.145,0.164-1.481,0.497
			c-0.336,0.33-0.506,0.904-0.506,1.722v4.232H93.25v-8.043h1.661V49.7C95.155,49.292,95.479,48.972,95.883,48.745z"/>
		<path fill="#0732A7" d="M102.736,47.16c-0.205-0.204-0.307-0.458-0.307-0.76c0-0.301,0.102-0.555,0.307-0.758
			c0.205-0.206,0.457-0.308,0.758-0.308c0.293,0,0.541,0.102,0.746,0.308c0.203,0.203,0.307,0.457,0.307,0.758
			c0,0.302-0.104,0.556-0.307,0.76c-0.205,0.204-0.453,0.306-0.746,0.306C103.193,47.466,102.941,47.364,102.736,47.16z
			 M104.314,48.532v8.043h-1.666v-8.043H104.314z"/>
		<path fill="#0732A7" d="M117.939,48.795c0.502,0.263,0.895,0.652,1.184,1.169c0.285,0.516,0.43,1.137,0.43,1.868v4.743H117.9
			v-4.496c0-0.721-0.178-1.271-0.537-1.656c-0.361-0.385-0.852-0.576-1.475-0.576s-1.117,0.191-1.48,0.576
			c-0.367,0.385-0.549,0.936-0.549,1.656v4.496h-1.65v-4.496c0-0.721-0.178-1.271-0.539-1.656c-0.363-0.385-0.852-0.576-1.475-0.576
			s-1.115,0.191-1.482,0.576c-0.363,0.385-0.545,0.936-0.545,1.656v4.496h-1.666v-8.043h1.666v0.919
			c0.271-0.331,0.615-0.59,1.035-0.772c0.418-0.188,0.865-0.278,1.342-0.278c0.643,0,1.217,0.138,1.723,0.407
			c0.508,0.275,0.896,0.667,1.17,1.185c0.242-0.486,0.621-0.875,1.139-1.16c0.514-0.288,1.068-0.432,1.662-0.432
			C116.873,48.4,117.439,48.532,117.939,48.795z"/>
		<path fill="#0732A7" d="M121.619,50.372c0.334-0.623,0.791-1.107,1.371-1.452c0.58-0.347,1.219-0.52,1.92-0.52
			c0.633,0,1.186,0.123,1.656,0.374c0.473,0.246,0.85,0.555,1.133,0.926v-1.168h1.678v8.043h-1.678v-1.197
			c-0.283,0.379-0.668,0.697-1.154,0.949c-0.486,0.255-1.041,0.379-1.662,0.379c-0.695,0-1.328-0.176-1.9-0.532
			c-0.574-0.354-1.029-0.851-1.363-1.488c-0.338-0.636-0.504-1.36-0.504-2.168S121.281,50.993,121.619,50.372z M127.355,51.101
			c-0.229-0.409-0.527-0.718-0.898-0.933c-0.369-0.214-0.77-0.321-1.197-0.321s-0.826,0.105-1.197,0.313
			c-0.371,0.21-0.668,0.516-0.896,0.919c-0.229,0.404-0.346,0.884-0.346,1.438s0.117,1.042,0.346,1.458
			c0.229,0.421,0.529,0.74,0.904,0.958c0.375,0.22,0.773,0.329,1.189,0.329c0.428,0,0.828-0.107,1.197-0.322
			c0.371-0.213,0.67-0.525,0.898-0.94c0.229-0.416,0.344-0.897,0.344-1.454C127.699,51.993,127.584,51.511,127.355,51.101z"/>
		<path fill="#0732A7" d="M136.465,48.774c0.482,0.246,0.857,0.555,1.131,0.926v-1.168h1.678v8.174c0,0.74-0.156,1.398-0.467,1.979
			c-0.313,0.58-0.76,1.034-1.35,1.365c-0.59,0.33-1.293,0.496-2.109,0.496c-1.092,0-1.996-0.255-2.717-0.766
			c-0.719-0.511-1.127-1.204-1.225-2.08h1.648c0.125,0.419,0.398,0.757,0.811,1.015c0.414,0.258,0.908,0.386,1.482,0.386
			c0.67,0,1.213-0.205,1.629-0.612c0.41-0.408,0.619-1.003,0.619-1.782v-1.342c-0.281,0.379-0.666,0.698-1.146,0.956
			s-1.029,0.386-1.643,0.386c-0.699,0-1.342-0.176-1.92-0.532c-0.578-0.354-1.035-0.851-1.371-1.488
			c-0.336-0.636-0.502-1.36-0.502-2.168s0.166-1.524,0.502-2.146c0.336-0.623,0.793-1.107,1.371-1.452
			c0.578-0.347,1.221-0.52,1.92-0.52C135.432,48.4,135.982,48.523,136.465,48.774z M137.254,51.101
			c-0.23-0.409-0.529-0.718-0.898-0.933c-0.371-0.214-0.771-0.321-1.197-0.321c-0.43,0-0.828,0.105-1.195,0.313
			c-0.373,0.21-0.672,0.516-0.9,0.919c-0.23,0.404-0.342,0.884-0.342,1.438s0.111,1.042,0.342,1.458
			c0.229,0.421,0.529,0.74,0.906,0.958c0.375,0.22,0.77,0.329,1.189,0.329c0.426,0,0.826-0.107,1.197-0.322
			c0.369-0.213,0.668-0.525,0.898-0.94c0.227-0.416,0.342-0.897,0.342-1.454C137.596,51.993,137.48,51.511,137.254,51.101z"/>
		<path fill="#0732A7" d="M141.551,47.16c-0.203-0.204-0.307-0.458-0.307-0.76c0-0.301,0.104-0.555,0.307-0.758
			c0.205-0.206,0.459-0.308,0.76-0.308c0.293,0,0.539,0.102,0.744,0.308c0.205,0.203,0.307,0.457,0.307,0.758
			c0,0.302-0.102,0.556-0.307,0.76s-0.451,0.306-0.744,0.306C142.01,47.466,141.756,47.364,141.551,47.16z M143.127,48.532v8.043
			h-1.662v-8.043H143.127z"/>
		<path fill="#0732A7" d="M151.076,48.795c0.5,0.263,0.893,0.652,1.176,1.169c0.279,0.516,0.424,1.137,0.424,1.868v4.743h-1.65
			v-4.496c0-0.721-0.182-1.271-0.541-1.656s-0.852-0.576-1.475-0.576s-1.115,0.191-1.48,0.576c-0.363,0.385-0.547,0.936-0.547,1.656
			v4.496h-1.664v-8.043h1.664v0.919c0.271-0.331,0.619-0.59,1.041-0.772c0.426-0.188,0.875-0.278,1.352-0.278
			C150.008,48.4,150.574,48.532,151.076,48.795z"/>
		<path fill="#0732A7" d="M154.738,50.372c0.338-0.623,0.797-1.107,1.373-1.452c0.58-0.347,1.219-0.52,1.92-0.52
			c0.631,0,1.186,0.123,1.656,0.374c0.473,0.246,0.85,0.555,1.131,0.926v-1.168h1.68v8.043h-1.68v-1.197
			c-0.281,0.379-0.666,0.697-1.15,0.949c-0.49,0.255-1.041,0.379-1.666,0.379c-0.689,0-1.322-0.176-1.896-0.532
			c-0.574-0.354-1.029-0.851-1.367-1.488c-0.336-0.636-0.502-1.36-0.502-2.168S154.402,50.993,154.738,50.372z M160.477,51.101
			c-0.229-0.409-0.529-0.718-0.895-0.933c-0.373-0.214-0.771-0.321-1.199-0.321s-0.828,0.105-1.197,0.313
			c-0.371,0.21-0.67,0.516-0.898,0.919c-0.229,0.404-0.344,0.884-0.344,1.438s0.115,1.042,0.344,1.458
			c0.229,0.421,0.529,0.74,0.906,0.958c0.373,0.22,0.77,0.329,1.189,0.329c0.428,0,0.826-0.107,1.199-0.322
			c0.365-0.213,0.666-0.525,0.895-0.94c0.23-0.416,0.342-0.897,0.342-1.454C160.818,51.993,160.707,51.511,160.477,51.101z"/>
		<path fill="#0732A7" d="M166.631,49.89v4.453c0,0.304,0.07,0.519,0.211,0.65c0.141,0.131,0.383,0.196,0.723,0.196h1.021v1.386
			h-1.314c-0.748,0-1.322-0.174-1.721-0.525c-0.4-0.352-0.602-0.92-0.602-1.707V49.89H164v-1.357h0.949v-1.999h1.682v1.999h1.955
			v1.357H166.631z"/>
		<path fill="#0732A7" d="M170.205,47.16C170,46.956,169.9,46.702,169.9,46.4c0-0.301,0.1-0.555,0.305-0.758
			c0.205-0.206,0.459-0.308,0.758-0.308c0.293,0,0.543,0.102,0.746,0.308c0.203,0.203,0.307,0.457,0.307,0.758
			c0,0.302-0.104,0.556-0.307,0.76s-0.453,0.306-0.746,0.306C170.664,47.466,170.41,47.364,170.205,47.16z M171.783,48.532v8.043
			h-1.664v-8.043H171.783z"/>
		<path fill="#0732A7" d="M175.402,56.188c-0.615-0.345-1.096-0.832-1.445-1.459c-0.35-0.629-0.527-1.356-0.527-2.184
			c0-0.816,0.182-1.541,0.541-2.174c0.361-0.633,0.852-1.119,1.475-1.46c0.625-0.341,1.318-0.512,2.088-0.512
			s1.467,0.171,2.088,0.512c0.623,0.341,1.113,0.827,1.475,1.46c0.357,0.633,0.539,1.357,0.539,2.174
			c0,0.817-0.186,1.543-0.553,2.176c-0.371,0.633-0.875,1.122-1.512,1.467c-0.639,0.346-1.34,0.518-2.111,0.518
			C176.701,56.706,176.016,56.534,175.402,56.188z M178.664,54.955c0.375-0.204,0.68-0.513,0.912-0.92
			c0.234-0.408,0.352-0.904,0.352-1.489c0-0.583-0.113-1.078-0.336-1.48c-0.223-0.404-0.521-0.707-0.891-0.912
			c-0.371-0.207-0.768-0.307-1.197-0.307c-0.428,0-0.824,0.1-1.191,0.307c-0.363,0.205-0.652,0.508-0.867,0.912
			c-0.213,0.402-0.322,0.897-0.322,1.48c0,0.866,0.223,1.535,0.668,2.007c0.441,0.472,0.998,0.71,1.668,0.71
			C177.891,55.263,178.291,55.159,178.664,54.955z"/>
		<path fill="#0732A7" d="M189.043,48.795c0.502,0.263,0.893,0.652,1.178,1.169c0.281,0.516,0.422,1.137,0.422,1.868v4.743h-1.648
			v-4.496c0-0.721-0.182-1.271-0.543-1.656c-0.357-0.385-0.85-0.576-1.473-0.576s-1.117,0.191-1.482,0.576
			c-0.363,0.385-0.545,0.936-0.545,1.656v4.496h-1.666v-8.043h1.666v0.919c0.27-0.331,0.617-0.59,1.043-0.772
			c0.42-0.188,0.873-0.278,1.35-0.278C187.977,48.4,188.543,48.532,189.043,48.795z"/>
	</g>
</g>
</svg>
