<?xml version="1.0" encoding="utf-8"?>
<!-- Generator: Adobe Illustrator 16.0.0, SVG Export Plug-In . SVG Version: 6.00 Build 0)  -->
<!DOCTYPE svg PUBLIC "-//W3C//DTD SVG 1.1//EN" "http://www.w3.org/Graphics/SVG/1.1/DTD/svg11.dtd">
<svg version="1.1" id="Layer_1" xmlns="http://www.w3.org/2000/svg" xmlns:xlink="http://www.w3.org/1999/xlink" x="0px" y="0px"
	 width="44.548px" height="44.548px" viewBox="0 0 44.548 44.548" enable-background="new 0 0 44.548 44.548" xml:space="preserve">
<g>
	<path fill-rule="evenodd" clip-rule="evenodd" fill="#0631a7" d="M20.809,0c0.924,0,1.85,0,2.773,0
		c0.284,0.035,0.569,0.074,0.854,0.105c4.673,0.507,8.838,2.238,12.335,5.38c5.855,5.259,8.372,11.867,7.4,19.669
		c-0.757,6.074-3.708,11.006-8.578,14.713c-4.848,3.691-10.359,5.097-16.395,4.316c-4.443-0.577-8.358-2.393-11.705-5.377
		c-3.839-3.422-6.237-7.671-7.149-12.742C0.198,25.243,0.113,24.41,0,23.583c0-0.925,0-1.85,0-2.775
		c0.035-0.284,0.074-0.568,0.104-0.853c0.514-4.702,2.292-8.859,5.428-12.403c3.449-3.897,7.745-6.321,12.883-7.217
		C19.208,0.197,20.011,0.11,20.809,0z M35.211,33.528c0.008-0.148,0.021-0.275,0.021-0.402c0.001-2.946,0.007-5.894-0.005-8.841
		c-0.003-0.605-0.045-1.213-0.117-1.813c-0.388-3.166-2.282-5.16-5.334-5.516c-2.21-0.257-4.08,0.408-5.401,2.299
		c-0.047,0.066-0.104,0.124-0.234,0.276c0-0.806,0-1.504,0-2.223c-1.826,0-3.594,0-5.38,0c0,5.422,0,10.815,0,16.221
		c1.796,0,3.565,0,5.38,0c0-0.192,0-0.362,0-0.534c0-2.166-0.003-4.333,0.002-6.5c0.001-0.853-0.001-1.704,0.034-2.555
		c0.041-0.979,0.533-1.731,1.313-2.279c1.557-1.09,3.574-0.405,4.094,1.414c0.171,0.6,0.229,1.249,0.235,1.878
		c0.025,2.7,0.011,5.403,0.011,8.104c0,0.154,0,0.307,0,0.471C31.651,33.528,33.421,33.528,35.211,33.528z M10.367,17.282
		c0,5.463,0,10.856,0,16.242c1.805,0,3.575,0,5.384,0c0-0.198,0-0.368,0-0.539c0-4.912,0-9.824,0-14.737
		c0-0.188-0.018-0.378,0.004-0.563c0.04-0.334-0.104-0.413-0.419-0.41c-1.417,0.015-2.832,0.007-4.248,0.007
		C10.859,17.282,10.63,17.282,10.367,17.282z M10.029,12.257c-0.002,1.646,1.255,2.823,3.013,2.818
		c1.771-0.005,3.058-1.176,3.063-2.787c0.005-1.642-1.255-2.831-3.007-2.836C11.294,9.445,10.032,10.599,10.029,12.257z"/>
</g>
</svg>
