<?xml version="1.0" encoding="utf-8"?>
<!-- Generator: Adobe Illustrator 16.0.0, SVG Export Plug-In . SVG Version: 6.00 Build 0)  -->
<!DOCTYPE svg PUBLIC "-//W3C//DTD SVG 1.1//EN" "http://www.w3.org/Graphics/SVG/1.1/DTD/svg11.dtd">
<svg version="1.1" id="Layer_1" xmlns="http://www.w3.org/2000/svg" xmlns:xlink="http://www.w3.org/1999/xlink" x="0px" y="0px"
	 width="366.029px" height="96.201px" viewBox="0 0 366.029 96.201" enable-background="new 0 0 366.029 96.201"
	 xml:space="preserve">
<g>
	<circle fill="#0732A7" cx="48.101" cy="48.101" r="48.101"/>
	<path fill="#0732A7" d="M80.648,16.092c0,0,1.563-6.583-1.255-9.443c-1.677-1.482-3.455,0.146-2.816,1.193
		C76.575,8.929,80.933,11.854,80.648,16.092z"/>
	<path fill="#FFFFFF" d="M80.078,16.663c0,0,1.563-6.583-1.257-9.443c-1.675-1.484-3.455,0.146-2.814,1.193
		C76.005,9.5,80.363,12.425,80.078,16.663z"/>
	<path fill="#FFFFFF" d="M75.923,15.977c0,0-1.674-6.873-6.253-8.969c-2.136-0.682-3.295,1.396-2.286,2.098
		C67.82,10.102,74.473,11.983,75.923,15.977z"/>
	<path fill="#FFFFFF" d="M84.232,32.781c0,0,2.023-14.154-12.998-16.755c-15.815-3.178-28.379,8.955-22.529,22.532
		c6.354,14.154,23.685,17.738,19.207,29.871c-4.952,13.422-35.064,24.23-51.374,2.707C12.866,66.561,7.204,57.654,6.07,45.87
		c-1.147,14.132,1.999,29.94,22.196,41.794C53.684,100.639,80.203,85.832,82.5,71.75c1.824-13.891-7.598-18.285-11.122-21.375
		c-4.901-4.3-23.687-8.353-17.766-23.373c0,0,3.009-7.837,12.712-5.199c0,0-3.757,7.799,1.732,11.699
		c5.561,3.827,10.109,1.013,10.109,1.013s-1.732,9.819,4.333,10.398c0,0-2.738-3.775-0.866-5.922
		C83.945,36.102,84.232,32.781,84.232,32.781z"/>
	<circle fill="#0732A7" cx="73.763" cy="28.303" r="2.385"/>
	<path fill="#0732A7" d="M84.162,23.109c0,0,4.084-5.562,2.132-9.069c-1.216-1.879-3.179-0.585-3.258,0.458
		C82.744,15.544,85.57,19.104,84.162,23.109z"/>
	<path fill="#FFFFFF" d="M83.591,23.681c0,0,4.085-5.563,2.135-9.072c-1.218-1.878-3.182-0.584-3.259,0.458
		C82.174,16.115,85.001,19.674,83.591,23.681z"/>
	<path fill="#FFFFFF" d="M65.54,59.207c0,0.857-0.02,1.652,0.004,2.445c0.218,7.369-4.782,14.045-10.449,16.094
		c-6.009,2.176-11.892,1.838-17.537-1.295c-5.668-3.148-8.829-9.813-7.683-16.193c0.497-2.768,2.089-4.156,4.39-3.813
		c1.451,0.217,2.5,1.121,2.995,2.375c0.916,2.311,1.868,4.666,2.312,7.09c0.852,4.67,4.813,8.471,10.152,9.389
		c6.375,1.094,13.033-3.736,14.511-9.311C64.814,63.809,65.098,61.555,65.54,59.207z"/>
	<path fill="#F48723" d="M62.609,57.861c0.785,4.012,0.267,7.477-2.05,10.529c-1.784,2.354-4.158,3.896-7.084,4.49
		c-2.068,0.418-3.787-0.293-4.33-1.738c-0.51-1.365,0.23-2.881,2.146-3.875c1.217-0.633,2.549-1.137,3.889-1.43
		C60.303,64.715,61.726,63.295,62.609,57.861z"/>
	<path fill="#0732A7" d="M60.818,55.711c0.873,2.535,0.771,4.734-0.874,6.744c-1.116,1.361-3.69,1.789-5.136,0.807
		c-1.314-0.896-1.552-2.422-0.304-3.408c0.833-0.66,1.96-1.127,3.016-1.289C59.494,58.264,60.27,57.771,60.818,55.711z"/>
	<path fill="#FFFFFF" d="M12.745,37.568c0,0,5.095-2.02,5.51-6.875c0.342-4.321-2.485-5.149,0.251-8.869
		c1.048-1.424,5.339-6.739,3.072-8.162c-1.971-1.144-4.639,0.388-5.879,0.886c-0.599,0.257-1.991,0.946-2.08,1.169
		c-0.09,0.222,0.851,0.078,0.926,0.253c0.032,0.242-0.535,0.956-0.333,1.026c0.177,0.06,0.984-0.461,1.888-1.01
		c0.9-0.55,5.245-2.44,4.269,0.053c-0.739,1.886-2.68,3.064-4.343,4.479c-2.205,1.492-4.373,4.879-4.473,6.593
		c-0.099,1.715-0.708-3.133-1.579-2.613c-0.281,0.169,0.114,1.302-0.251,2.393c-0.766,2.297-2.185,6.294,0.265,9.495
		C10.884,36.664,12.745,37.568,12.745,37.568z"/>
	<path fill="#0732A7" d="M14.748,66.836c-5.612-7.484-7.662-14.471-8.09-22.701c-0.238-4.584,0.399-8.866,3.166-12.837
		c0.223-0.324,1.667-2.48,4.303-1.863c1.284,0.366,2.22,1.77,2.102,3.021c-0.571,2.725-1.449,5.401-2.385,8.034
		c-2.985,8.387-2.676,16.332,0.487,24.664C14.452,65.469,14.727,66.729,14.748,66.836z"/>
	<path fill="#FFFFFF" d="M14.262,65.592c-4.471-6.34-6.596-13.477-6.994-21.142c-0.223-4.271,0.028-8.498,2.602-12.198
		c0.209-0.301,1.841-3.079,4.185-2.298c1.518,0.658,2.19,2.155,1.877,3.637c-0.536,2.539-1.35,5.033-2.224,7.485
		c-2.78,7.811-2.793,15.578,0.152,23.34C13.971,64.707,14.242,65.49,14.262,65.592z"/>
	<path fill="#F48723" d="M50.57,80.746c-1.879,0.17-3.758,0.48-5.636,0.484c-8.162,0.012-15.313-2.713-21.338-8.242
		c-3.187-2.924-4.949-6.781-6.652-10.646c-1.602-3.629-2.874-7.357-2.819-11.398c0.026-2.129,0.554-4.103,2.044-5.714
		c1.844-1.989,4.276-2.016,6.148-0.013c1.722,1.837,2.188,4.141,2.412,6.57c0.366,3.918,0.524,7.898,1.376,11.717
		c2.154,9.652,10.001,16.168,19.877,16.891c1.515,0.115,3.04,0.02,4.563,0.02C50.552,80.521,50.563,80.635,50.57,80.746z"/>
</g>
<g>
	<g>
		<path fill="#F48723" d="M115.104,58.484l-0.003-2.223c9.76-0.012,239.037-0.254,243.91,0l-0.116,2.219
			C354.079,58.232,117.493,58.48,115.104,58.484z"/>
	</g>
	<g>
		<g>
			<path fill="#FFFFFF" stroke="#FFFFFF" stroke-width="0.6946" stroke-miterlimit="10" d="M123.024,49.824
				c-2.472-0.797-4.409-1.918-5.813-3.361c-1.406-1.443-2.11-3.113-2.11-5.016c0-1.061,0.372-1.955,1.111-2.677
				c0.743-0.722,1.645-1.082,2.708-1.082c1.063,0,1.956,0.361,2.677,1.082c0.722,0.722,1.083,1.616,1.083,2.677
				c0,2.168,0.826,3.963,2.48,5.388c1.651,1.423,3.712,2.136,6.181,2.136c1.559,0,2.993-0.285,4.303-0.854
				c1.312-0.569,2.355-1.34,3.134-2.309s1.169-2.062,1.169-3.277c0-1.443-0.477-2.695-1.423-3.76
				c-0.953-1.063-2.138-1.965-3.562-2.706c-1.425-0.741-3.315-1.586-5.671-2.537c-2.888-1.214-5.206-2.307-6.952-3.275
				c-1.746-0.967-3.24-2.229-4.473-3.788c-1.231-1.56-1.85-3.457-1.85-5.698c0-2.24,0.578-4.227,1.736-5.955
				c1.16-1.729,2.859-3.067,5.102-4.017c2.24-0.95,4.917-1.426,8.035-1.426c2.734,0,5.251,0.371,7.55,1.111
				c2.299,0.742,4.111,1.805,5.441,3.191c1.329,1.387,1.996,2.991,1.996,4.815c0,1.103-0.36,2.013-1.082,2.734
				c-0.724,0.724-1.617,1.082-2.679,1.082c-1.065,0-1.968-0.369-2.708-1.112c-0.739-0.739-1.109-1.642-1.109-2.704
				c0-1.976-0.744-3.639-2.225-4.986c-1.479-1.349-3.323-2.022-5.526-2.022c-2.471,0-4.429,0.636-5.869,1.908
				c-1.445,1.274-2.167,2.935-2.167,4.986c0,1.708,0.53,3.184,1.594,4.417c1.065,1.233,2.374,2.27,3.931,3.105
				c1.56,0.835,3.648,1.784,6.269,2.849c2.773,1.139,4.995,2.156,6.667,3.048c1.672,0.894,3.085,2.043,4.244,3.446
				c1.158,1.405,1.737,3.098,1.737,5.072c0,2.014-0.663,3.836-1.994,5.471c-1.328,1.632-3.181,2.916-5.555,3.848
				c-2.373,0.93-5.062,1.396-8.064,1.396C128.266,51.023,125.492,50.625,123.024,49.824z"/>
			<path fill="#FFFFFF" stroke="#FFFFFF" stroke-width="0.6946" stroke-miterlimit="10" d="M152.828,48.697h0.424
				c0.531,0,0.9-0.225,1.106-0.682c0.202-0.456,0.305-1.326,0.305-2.612V22.949c0-1.318-0.103-2.196-0.305-2.637
				c-0.205-0.438-0.575-0.657-1.106-0.657h-0.424v-1.412l5.93-1.083h1.178v12.944c0.755-1.318,1.843-2.362,3.271-3.13
				c1.427-0.769,3.005-1.153,4.732-1.153c2.384,0,4.22,0.645,5.506,1.93c1.287,1.288,1.945,3.421,1.975,6.402v11.25
				c0,1.288,0.104,2.157,0.308,2.612c0.204,0.457,0.59,0.682,1.154,0.682h0.377v1.414h-1.839h-5.271h-1.835v-1.414h0.426
				c0.532,0,0.899-0.225,1.106-0.682c0.202-0.456,0.304-1.326,0.304-2.612V34.342c0-1.979-0.366-3.505-1.104-4.592
				c-0.738-1.081-1.859-1.622-3.365-1.622c-1.693,0-3.075,0.58-4.144,1.742c-1.065,1.161-1.601,2.651-1.601,4.472v11.062
				c0,1.288,0.101,2.157,0.308,2.612c0.202,0.457,0.571,0.682,1.105,0.682h0.424v1.414h-8.943L152.828,48.697L152.828,48.697z"/>
			<path fill="#FFFFFF" stroke="#FFFFFF" stroke-width="0.6946" stroke-miterlimit="10" d="M188.085,49.215
				c-1.912-1.098-3.421-2.604-4.519-4.518c-1.1-1.912-1.648-4.05-1.648-6.402c0-2.351,0.549-4.479,1.648-6.379
				c1.098-1.896,2.604-3.387,4.519-4.471c1.915-1.082,4.049-1.624,6.403-1.624c2.352,0,4.486,0.542,6.401,1.624
				c1.912,1.082,3.412,2.574,4.496,4.471c1.083,1.9,1.625,4.026,1.625,6.379c0,2.354-0.542,4.488-1.625,6.402
				c-1.084,1.914-2.583,3.42-4.496,4.518c-1.915,1.1-4.05,1.648-6.401,1.648C192.134,50.861,190,50.314,188.085,49.215z
				 M188.3,44.037c0.611,1.664,1.457,2.961,2.54,3.885c1.082,0.926,2.315,1.389,3.696,1.389c1.348,0,2.559-0.463,3.624-1.389
				c1.068-0.924,1.897-2.221,2.494-3.885c0.596-1.662,0.896-3.576,0.896-5.743c0-2.166-0.301-4.071-0.896-5.719
				c-0.597-1.646-1.427-2.934-2.494-3.86c-1.066-0.924-2.276-1.389-3.624-1.389c-1.38,0-2.613,0.464-3.696,1.389
				c-1.082,0.927-1.929,2.215-2.54,3.86c-0.615,1.648-0.921,3.555-0.921,5.719C187.379,40.462,187.685,42.377,188.3,44.037z"/>
			<path fill="#F48723" stroke="#F48723" stroke-width="0.6946" stroke-miterlimit="10" d="M211.246,57.904V56.66h0.424
				c0.532,0,0.9-0.227,1.105-0.684c0.203-0.455,0.305-1.605,0.305-2.895V22.949c0-1.318-0.102-2.196-0.305-2.637
				c-0.205-0.438-0.574-0.657-1.105-0.657h-0.424v-1.412l5.93-1.083h1.177v36.148c0,1.287,0.102,2.191,0.307,2.645
				c0.204,0.457,0.588,0.684,1.153,0.684h0.377v1.268h-1.837h-5.272H211.246L211.246,57.904z"/>
			<path fill="#FFFFFF" stroke="#FFFFFF" stroke-width="0.6946" stroke-miterlimit="10" d="M228.826,49.969
				c-1.176-0.596-2.104-1.418-2.778-2.471c-0.676-1.049-1.013-2.234-1.013-3.555c0-1.789,0.455-3.209,1.364-4.258
				c0.91-1.053,2-1.82,3.273-2.307c1.271-0.487,2.925-0.967,4.964-1.435c1.447-0.315,2.576-0.606,3.391-0.872
				c0.813-0.265,1.498-0.645,2.046-1.129c0.551-0.485,0.825-1.124,0.825-1.908V31.33c0-1.38-0.327-2.408-0.987-3.083
				c-0.658-0.675-1.709-1.013-3.152-1.013c-1.225,0-2.26,0.4-3.108,1.2c-0.85,0.8-1.272,1.751-1.272,2.847
				c0,1.101-0.296,1.984-0.893,2.66c-0.598,0.676-1.383,1.012-2.354,1.012c-0.847,0-1.602-0.281-2.26-0.846
				c-0.658-0.565-0.989-1.288-0.989-2.167c0-1.255,0.479-2.345,1.439-3.27c0.954-0.927,2.22-1.641,3.788-2.143
				c1.567-0.501,3.233-0.753,4.988-0.753c3.264,0,5.745,0.619,7.438,1.86c1.698,1.238,2.576,3.005,2.637,5.296v11.391
				c0,1.381,0.063,2.386,0.19,3.014c0.123,0.629,0.454,0.941,0.987,0.941c0.754,0,1.426-0.754,2.024-2.26l1.365,0.471
				c-0.535,1.57-1.217,2.691-2.047,3.367c-0.832,0.676-1.813,1.012-2.942,1.012c-1.539,0-2.708-0.463-3.507-1.389
				c-0.8-0.926-1.245-2.376-1.342-4.353c-0.692,1.757-1.702,3.151-3.036,4.188c-1.335,1.035-3.004,1.553-5.014,1.553
				C231.345,50.861,230.005,50.566,228.826,49.969z M231.556,47.029c0.831,0.83,1.924,1.244,3.271,1.244
				c1.912,0,3.405-0.806,4.473-2.424c1.066-1.616,1.601-3.6,1.601-5.955v-4.943c-0.409,0.41-0.928,0.778-1.553,1.108
				c-0.63,0.328-1.444,0.697-2.448,1.105c-1.383,0.565-2.519,1.101-3.415,1.6c-0.892,0.504-1.645,1.171-2.257,2.001
				c-0.612,0.832-0.921,1.876-0.921,3.131C230.309,45.153,230.727,46.195,231.556,47.029z"/>
			<path fill="#FFFFFF" stroke="#FFFFFF" stroke-width="0.6946" stroke-miterlimit="10" d="M269.169,48.439h0.501
				c0.632,0,1.068-0.27,1.311-0.81c0.239-0.538,0.363-1.568,0.363-3.093V15.772c0-1.076-0.13-1.848-0.393-2.313
				c-0.259-0.465-0.687-0.698-1.281-0.698h-0.501v-1.673h14.827c4.941,0.039,8.585,1.051,10.926,3.04
				c2.342,1.987,3.512,5.064,3.512,9.226c0,4.199-1.152,7.313-3.458,9.337c-2.304,2.025-5.889,3.076-10.757,3.15h-6.635v8.697
				c0,1.523,0.12,2.554,0.363,3.093c0.238,0.54,0.677,0.808,1.309,0.808h0.503v1.674h-10.593v-1.674H269.169z M283.605,34.113
				c2.898,0,5.018-0.883,6.357-2.648c1.337-1.765,2.005-4.468,2.005-8.11c0-3.606-0.668-6.263-2.005-7.973
				c-1.338-1.707-3.459-2.564-6.357-2.564h-6.019v21.296H283.605z"/>
			<path fill="#F48723" stroke="#F48723" stroke-width="0.6946" stroke-miterlimit="10" d="M304.218,57.805v-1.111l0.427-0.016
				c0.531,0,0.897-0.303,1.104-0.758c0.202-0.455,0.304-1.328,0.304-2.611V32.363c0-1.318-0.102-2.196-0.304-2.636
				c-0.207-0.438-0.574-0.66-1.108-0.66h-0.423v-1.411l5.932-1.082h1.176v26.732c0,1.285,0.102,2.158,0.306,2.609
				c0.204,0.459,0.581,0.777,1.148,0.777h0.383v1.033l-1.84,0.031l-5.252,0.047H304.218z M306.146,17.37
				c0.63-0.611,1.382-0.917,2.263-0.917c0.845,0,1.568,0.306,2.165,0.917c0.595,0.612,0.894,1.342,0.894,2.189
				c0,0.878-0.299,1.623-0.894,2.236c-0.597,0.61-1.319,0.918-2.165,0.918c-0.881,0-1.633-0.306-2.263-0.918
				c-0.625-0.613-0.941-1.358-0.941-2.236C305.204,18.714,305.521,17.982,306.146,17.37z"/>
			<path fill="#FFFFFF" stroke="#FFFFFF" stroke-width="0.6946" stroke-miterlimit="10" d="M320.268,28.928l-0.234-0.658h-2.636
				v-1.695h1.979c1.224,0,2.227-0.595,3.012-1.788c0.784-1.192,1.288-2.761,1.505-4.708h1.648v6.496h3.388v1.695h-3.388V44.32
				c0,1.382,0.063,2.387,0.188,3.014c0.124,0.631,0.455,0.941,0.989,0.941c0.752,0,1.427-0.753,2.022-2.26l1.366,0.472
				c-0.533,1.569-1.217,2.69-2.048,3.366c-0.834,0.676-1.813,1.01-2.944,1.01c-1.566,0-2.752-0.475-3.552-1.432
				c-0.801-0.957-1.232-2.457-1.297-4.496V28.928L320.268,28.928z"/>
			<path fill="#FFFFFF" stroke="#FFFFFF" stroke-width="0.6946" stroke-miterlimit="10" d="M334.816,48.697h0.423
				c0.535,0,0.902-0.225,1.104-0.682c0.206-0.456,0.307-1.326,0.307-2.612V22.949c0-1.318-0.101-2.196-0.307-2.637
				c-0.202-0.438-0.571-0.657-1.104-0.657h-0.423v-1.412l5.931-1.083h1.178v12.944c0.753-1.318,1.843-2.362,3.271-3.13
				c1.427-0.769,3.005-1.153,4.729-1.153c2.386,0,4.223,0.645,5.51,1.93c1.288,1.288,1.945,3.421,1.977,6.402v11.25
				c0,1.288,0.101,2.157,0.303,2.612c0.206,0.457,0.59,0.682,1.155,0.682h0.378v1.414h-1.836h-5.273h-1.837v-1.414h0.424
				c0.535,0,0.902-0.225,1.104-0.682c0.206-0.456,0.309-1.326,0.309-2.612V34.342c0-1.979-0.371-3.505-1.104-4.592
				c-0.739-1.081-1.86-1.622-3.365-1.622c-1.698,0-3.078,0.58-4.146,1.742c-1.066,1.161-1.6,2.651-1.6,4.472v11.062
				c0,1.288,0.102,2.157,0.306,2.612c0.206,0.457,0.574,0.682,1.108,0.682h0.423v1.414h-8.943L334.816,48.697L334.816,48.697z"/>
		</g>
	</g>
	<g>
		<path fill="#FFFFFF" d="M116.713,71.502c0.604-1.027,1.425-1.83,2.461-2.41c1.035-0.578,2.169-0.865,3.402-0.865
			c1.411,0,2.665,0.346,3.764,1.037c1.101,0.693,1.898,1.674,2.395,2.947h-2.611c-0.343-0.699-0.82-1.221-1.43-1.564
			c-0.611-0.344-1.316-0.516-2.117-0.516c-0.877,0-1.659,0.199-2.344,0.592c-0.686,0.395-1.222,0.959-1.612,1.697
			c-0.388,0.736-0.582,1.594-0.582,2.572s0.193,1.838,0.582,2.576c0.388,0.736,0.926,1.305,1.612,1.705
			c0.685,0.402,1.467,0.6,2.344,0.6c0.801,0,1.505-0.17,2.117-0.516c0.61-0.34,1.086-0.861,1.43-1.563h2.611
			c-0.496,1.273-1.294,2.25-2.395,2.936c-1.099,0.688-2.353,1.031-3.764,1.031c-1.245,0-2.382-0.289-3.413-0.867
			c-1.028-0.578-1.847-1.383-2.449-2.412c-0.604-1.029-0.905-2.191-0.905-3.488C115.806,73.695,116.109,72.533,116.713,71.502z"/>
		<path fill="#FFFFFF" d="M134.708,71.418c0.526-0.299,1.153-0.449,1.877-0.449v2.25h-0.552c-0.852,0-1.496,0.217-1.936,0.648
			c-0.437,0.432-0.656,1.18-0.656,2.248v5.529h-2.174V71.141h2.174v1.525C133.757,72.133,134.18,71.717,134.708,71.418z"/>
		<path fill="#FFFFFF" d="M138.522,73.543c0.438-0.813,1.037-1.445,1.793-1.896c0.754-0.449,1.592-0.676,2.507-0.676
			c0.825,0,1.547,0.164,2.162,0.486c0.616,0.322,1.11,0.727,1.478,1.211v-1.525h2.193v10.502h-2.193v-1.563
			c-0.369,0.494-0.871,0.91-1.506,1.24s-1.361,0.494-2.173,0.494c-0.901,0-1.729-0.23-2.478-0.695
			c-0.75-0.463-1.345-1.111-1.783-1.943c-0.439-0.832-0.658-1.775-0.658-2.832C137.864,75.291,138.082,74.357,138.522,73.543z
			 M146.012,74.496c-0.297-0.535-0.69-0.939-1.172-1.219c-0.482-0.281-1.004-0.42-1.563-0.42c-0.56,0-1.08,0.135-1.563,0.408
			c-0.484,0.273-0.875,0.674-1.173,1.201s-0.448,1.154-0.448,1.879s0.15,1.359,0.448,1.906s0.693,0.963,1.182,1.246
			c0.491,0.287,1.007,0.43,1.555,0.43c0.561,0,1.08-0.139,1.563-0.418c0.481-0.279,0.873-0.689,1.172-1.23s0.449-1.172,0.449-1.896
			C146.463,75.66,146.311,75.029,146.012,74.496z"/>
		<path fill="#FFFFFF" d="M155.916,72.914h-1.943v8.73h-2.193v-8.73h-1.239v-1.771h1.239v-0.744c0-1.207,0.319-2.086,0.961-2.641
			c0.642-0.553,1.649-0.83,3.022-0.83v1.813c-0.662,0-1.126,0.123-1.391,0.373c-0.267,0.246-0.401,0.676-0.401,1.285v0.744h1.944
			L155.916,72.914L155.916,72.914z"/>
		<path fill="#FFFFFF" d="M160.375,72.914v5.814c0,0.395,0.094,0.676,0.277,0.848c0.185,0.174,0.499,0.258,0.943,0.258h1.334v1.811
			h-1.716c-0.979,0-1.729-0.229-2.249-0.686c-0.521-0.457-0.783-1.199-0.783-2.23v-5.813h-1.237v-1.773h1.237v-2.611h2.193v2.611
			h2.555v1.773h-2.555V72.914z"/>
		<path fill="#FFFFFF" d="M165.046,69.348c-0.268-0.266-0.4-0.596-0.4-0.99c0-0.393,0.133-0.723,0.4-0.99
			c0.268-0.266,0.597-0.398,0.991-0.398c0.383,0,0.704,0.133,0.972,0.398c0.269,0.268,0.401,0.598,0.401,0.99
			c0,0.395-0.133,0.725-0.401,0.99c-0.268,0.268-0.589,0.402-0.972,0.402C165.643,69.75,165.315,69.615,165.046,69.348z
			 M167.107,71.143v10.502h-2.174V71.143H167.107z"/>
		<path fill="#FFFFFF" d="M177.485,71.484c0.654,0.344,1.166,0.852,1.534,1.525c0.37,0.674,0.553,1.486,0.553,2.439v6.195h-2.153
			v-5.873c0-0.939-0.235-1.66-0.708-2.162c-0.469-0.502-1.11-0.754-1.924-0.754c-0.815,0-1.458,0.252-1.934,0.754
			c-0.478,0.502-0.716,1.223-0.716,2.162v5.873h-2.173V71.141h2.173v1.199c0.354-0.432,0.809-0.768,1.363-1.012
			c0.553-0.24,1.141-0.359,1.762-0.359C176.09,70.971,176.83,71.143,177.485,71.484z"/>
		<path fill="#FFFFFF" d="M188.732,71.457c0.63,0.322,1.122,0.727,1.478,1.211v-1.525h2.192v10.674c0,0.967-0.204,1.826-0.61,2.584
			s-0.993,1.352-1.764,1.783c-0.771,0.43-1.687,0.648-2.754,0.648c-1.425,0-2.605-0.336-3.546-1.002
			c-0.941-0.668-1.475-1.572-1.601-2.717h2.153c0.165,0.547,0.518,0.988,1.06,1.326c0.54,0.336,1.184,0.506,1.936,0.506
			c0.875,0,1.583-0.268,2.125-0.801c0.539-0.535,0.812-1.311,0.812-2.326v-1.754c-0.371,0.496-0.869,0.91-1.498,1.248
			c-0.63,0.336-1.345,0.504-2.145,0.504c-0.915,0-1.751-0.23-2.508-0.695c-0.756-0.463-1.353-1.111-1.791-1.943
			c-0.439-0.832-0.658-1.775-0.658-2.832c0-1.055,0.219-1.988,0.658-2.803c0.438-0.813,1.035-1.445,1.791-1.896
			c0.756-0.449,1.593-0.676,2.508-0.676C187.381,70.971,188.102,71.131,188.732,71.457z M189.762,74.496
			c-0.299-0.535-0.691-0.939-1.173-1.219c-0.484-0.281-1.006-0.42-1.563-0.42c-0.559,0-1.079,0.135-1.563,0.408
			c-0.484,0.273-0.873,0.674-1.174,1.201c-0.297,0.527-0.446,1.154-0.446,1.879s0.149,1.359,0.446,1.906
			c0.301,0.547,0.694,0.963,1.183,1.246c0.49,0.287,1.007,0.43,1.555,0.43c0.561,0,1.079-0.139,1.564-0.418
			c0.48-0.279,0.873-0.689,1.172-1.23c0.298-0.541,0.449-1.172,0.449-1.896C190.212,75.66,190.06,75.029,189.762,74.496z"/>
		<path fill="#FFFFFF" d="M209.672,71.143l-6.442,15.439h-2.249l2.135-5.107l-4.139-10.332h2.422l2.956,8.004l3.068-8.004H209.672z"
			/>
		<path fill="#FFFFFF" d="M213.18,81.141c-0.801-0.453-1.431-1.088-1.888-1.908c-0.458-0.818-0.687-1.768-0.687-2.85
			c0-1.066,0.235-2.014,0.704-2.842c0.469-0.824,1.113-1.459,1.927-1.904s1.723-0.668,2.728-0.668c1.002,0,1.911,0.223,2.726,0.668
			c0.813,0.445,1.454,1.08,1.925,1.904c0.471,0.828,0.706,1.775,0.706,2.842c0,1.068-0.242,2.016-0.724,2.84
			c-0.486,0.828-1.141,1.465-1.973,1.916c-0.835,0.449-1.752,0.676-2.756,0.676C214.875,81.816,213.979,81.592,213.18,81.141z
			 M217.44,79.529c0.49-0.266,0.886-0.666,1.19-1.203c0.305-0.531,0.459-1.18,0.459-1.941s-0.146-1.408-0.438-1.936
			c-0.293-0.529-0.682-0.924-1.165-1.191c-0.48-0.266-1.003-0.398-1.563-0.398c-0.559,0-1.077,0.133-1.554,0.398
			c-0.476,0.268-0.856,0.666-1.134,1.191c-0.28,0.527-0.419,1.172-0.419,1.936c0,1.131,0.289,2.006,0.868,2.621
			c0.577,0.615,1.307,0.926,2.182,0.926C216.427,79.93,216.951,79.797,217.44,79.529z"/>
		<path fill="#FFFFFF" d="M232.987,71.143v10.502h-2.174v-1.238c-0.344,0.432-0.792,0.773-1.344,1.02
			c-0.554,0.246-1.142,0.371-1.767,0.371c-0.824,0-1.564-0.17-2.218-0.514c-0.654-0.344-1.171-0.852-1.544-1.525
			c-0.375-0.674-0.563-1.488-0.563-2.439v-6.176h2.153v5.85c0,0.941,0.234,1.662,0.704,2.164c0.471,0.504,1.111,0.752,1.927,0.752
			c0.813,0,1.456-0.248,1.934-0.752c0.478-0.502,0.716-1.223,0.716-2.164v-5.85H232.987z"/>
		<path fill="#FFFFFF" d="M239.285,71.418c0.528-0.299,1.152-0.449,1.878-0.449v2.25h-0.554c-0.851,0-1.498,0.217-1.935,0.648
			c-0.438,0.432-0.657,1.18-0.657,2.248v5.529h-2.174V71.141h2.174v1.525C238.336,72.133,238.756,71.717,239.285,71.418z"/>
		<path fill="#FFFFFF" d="M248.237,69.348c-0.269-0.266-0.4-0.596-0.4-0.99c0-0.393,0.132-0.723,0.4-0.99
			c0.266-0.266,0.597-0.398,0.989-0.398c0.382,0,0.706,0.133,0.974,0.398c0.267,0.268,0.399,0.598,0.399,0.99
			c0,0.395-0.133,0.725-0.399,0.99c-0.268,0.268-0.591,0.402-0.974,0.402C248.831,69.75,248.502,69.615,248.237,69.348z
			 M250.294,71.143v10.502h-2.174V71.143H250.294z"/>
		<path fill="#FFFFFF" d="M268.089,71.484c0.653,0.344,1.167,0.852,1.544,1.525c0.375,0.674,0.562,1.486,0.562,2.439v6.195h-2.155
			v-5.873c0-0.939-0.233-1.66-0.705-2.162c-0.469-0.502-1.111-0.754-1.923-0.754c-0.815,0-1.459,0.252-1.938,0.754
			c-0.478,0.502-0.715,1.223-0.715,2.162v5.873h-2.153v-5.873c0-0.939-0.235-1.66-0.706-2.162s-1.112-0.754-1.925-0.754
			s-1.459,0.252-1.935,0.754c-0.478,0.502-0.715,1.223-0.715,2.162v5.873h-2.174V71.141h2.174v1.199
			c0.355-0.432,0.806-0.768,1.353-1.012c0.547-0.24,1.129-0.359,1.753-0.359c0.839,0,1.59,0.176,2.25,0.531
			c0.659,0.357,1.17,0.871,1.525,1.545c0.319-0.637,0.812-1.141,1.487-1.516c0.674-0.377,1.397-0.564,2.173-0.564
			C266.695,70.971,267.435,71.143,268.089,71.484z"/>
		<path fill="#FFFFFF" d="M272.894,73.543c0.437-0.813,1.034-1.445,1.792-1.896c0.756-0.449,1.591-0.676,2.507-0.676
			c0.825,0,1.547,0.164,2.164,0.486c0.614,0.322,1.108,0.727,1.476,1.211v-1.525h2.192v10.502h-2.192v-1.563
			c-0.369,0.494-0.871,0.91-1.505,1.24c-0.636,0.33-1.36,0.494-2.173,0.494c-0.902,0-1.729-0.23-2.479-0.695
			c-0.749-0.463-1.343-1.111-1.781-1.943c-0.44-0.832-0.658-1.775-0.658-2.832C272.237,75.291,272.453,74.357,272.894,73.543z
			 M280.383,74.496c-0.298-0.535-0.688-0.939-1.171-1.219c-0.484-0.281-1.005-0.42-1.563-0.42c-0.558,0-1.079,0.135-1.563,0.408
			c-0.481,0.273-0.874,0.674-1.171,1.201c-0.299,0.527-0.448,1.154-0.448,1.879s0.149,1.359,0.448,1.906
			c0.297,0.547,0.691,0.963,1.182,1.246c0.491,0.287,1.008,0.43,1.554,0.43c0.559,0,1.08-0.139,1.564-0.418
			c0.482-0.279,0.872-0.689,1.17-1.23c0.299-0.541,0.448-1.172,0.448-1.896C280.832,75.66,280.683,75.029,280.383,74.496z"/>
		<path fill="#FFFFFF" d="M292.279,71.457c0.63,0.322,1.121,0.727,1.477,1.211v-1.525h2.192v10.674c0,0.967-0.201,1.826-0.609,2.584
			c-0.405,0.758-0.994,1.352-1.764,1.783c-0.769,0.43-1.686,0.648-2.752,0.648c-1.425,0-2.606-0.336-3.547-1.002
			c-0.941-0.668-1.477-1.572-1.603-2.717h2.154c0.166,0.547,0.519,0.988,1.059,1.326c0.541,0.336,1.187,0.506,1.937,0.506
			c0.876,0,1.584-0.268,2.123-0.801c0.539-0.535,0.81-1.311,0.81-2.326v-1.754c-0.367,0.496-0.868,0.91-1.496,1.248
			c-0.63,0.336-1.345,0.504-2.145,0.504c-0.915,0-1.752-0.23-2.507-0.695c-0.756-0.463-1.354-1.111-1.793-1.943
			c-0.438-0.832-0.657-1.775-0.657-2.832c0-1.055,0.219-1.988,0.657-2.803c0.439-0.813,1.036-1.445,1.793-1.896
			c0.755-0.449,1.592-0.676,2.507-0.676C290.93,70.971,291.65,71.131,292.279,71.457z M293.31,74.496
			c-0.299-0.535-0.689-0.939-1.173-1.219c-0.483-0.281-1.003-0.42-1.563-0.42c-0.561,0-1.081,0.135-1.563,0.408
			s-0.874,0.674-1.173,1.201c-0.298,0.527-0.447,1.154-0.447,1.879s0.149,1.359,0.447,1.906c0.299,0.547,0.693,0.963,1.184,1.246
			c0.488,0.287,1.007,0.43,1.555,0.43c0.559,0,1.079-0.139,1.563-0.418c0.482-0.279,0.874-0.689,1.172-1.23
			c0.299-0.541,0.446-1.172,0.446-1.896C293.758,75.66,293.608,75.029,293.31,74.496z"/>
		<path fill="#FFFFFF" d="M298.922,69.348c-0.267-0.266-0.399-0.596-0.399-0.99c0-0.393,0.133-0.723,0.399-0.99
			c0.268-0.266,0.598-0.398,0.991-0.398c0.382,0,0.705,0.133,0.973,0.398c0.266,0.268,0.401,0.598,0.401,0.99
			c0,0.395-0.134,0.725-0.401,0.99c-0.268,0.268-0.591,0.402-0.973,0.402C299.52,69.75,299.19,69.615,298.922,69.348z
			 M300.982,71.143v10.502h-2.173V71.143H300.982z"/>
		<path fill="#FFFFFF" d="M311.362,71.484c0.653,0.344,1.165,0.852,1.534,1.525c0.368,0.674,0.554,1.486,0.554,2.439v6.195h-2.156
			v-5.873c0-0.939-0.234-1.66-0.705-2.162s-1.113-0.754-1.925-0.754c-0.813,0-1.457,0.252-1.934,0.754
			c-0.478,0.502-0.716,1.223-0.716,2.162v5.873h-2.173V71.141h2.173v1.199c0.354-0.432,0.81-0.768,1.363-1.012
			c0.552-0.24,1.139-0.359,1.763-0.359C309.965,70.971,310.706,71.143,311.362,71.484z"/>
		<path fill="#FFFFFF" d="M316.145,73.543c0.44-0.813,1.036-1.445,1.793-1.896c0.755-0.449,1.593-0.676,2.507-0.676
			c0.826,0,1.547,0.164,2.165,0.486c0.616,0.322,1.107,0.727,1.477,1.211v-1.525h2.192v10.502h-2.192v-1.563
			c-0.369,0.494-0.871,0.91-1.507,1.24s-1.359,0.494-2.173,0.494c-0.902,0-1.728-0.23-2.479-0.695
			c-0.751-0.463-1.343-1.111-1.783-1.943c-0.438-0.832-0.658-1.775-0.658-2.832C315.487,75.291,315.706,74.357,316.145,73.543z
			 M323.638,74.496c-0.298-0.535-0.691-0.939-1.173-1.219c-0.484-0.281-1.005-0.42-1.563-0.42c-0.558,0-1.078,0.135-1.563,0.408
			c-0.483,0.273-0.874,0.674-1.172,1.201s-0.448,1.154-0.448,1.879s0.15,1.359,0.448,1.906s0.693,0.963,1.183,1.246
			c0.49,0.287,1.006,0.43,1.553,0.43c0.56,0,1.08-0.139,1.563-0.418s0.875-0.689,1.173-1.23s0.447-1.172,0.447-1.896
			C324.086,75.66,323.936,75.029,323.638,74.496z"/>
		<path fill="#FFFFFF" d="M331.672,72.914v5.814c0,0.395,0.092,0.676,0.276,0.848c0.183,0.174,0.499,0.258,0.943,0.258h1.334v1.811
			h-1.716c-0.979,0-1.729-0.229-2.25-0.686c-0.521-0.457-0.78-1.199-0.78-2.23v-5.813h-1.241v-1.773h1.241v-2.611h2.19v2.611h2.555
			v1.773h-2.553V72.914z"/>
		<path fill="#FFFFFF" d="M336.343,69.348c-0.268-0.266-0.402-0.596-0.402-0.99c0-0.393,0.135-0.723,0.402-0.99
			c0.267-0.266,0.595-0.398,0.989-0.398c0.382,0,0.707,0.133,0.974,0.398c0.268,0.268,0.4,0.598,0.4,0.99
			c0,0.395-0.133,0.725-0.4,0.99c-0.267,0.268-0.592,0.402-0.974,0.402C336.938,69.75,336.61,69.615,336.343,69.348z
			 M338.401,71.143v10.502h-2.174V71.143H338.401z"/>
		<path fill="#FFFFFF" d="M343.128,81.141c-0.801-0.453-1.43-1.088-1.888-1.908c-0.457-0.818-0.687-1.768-0.687-2.85
			c0-1.066,0.234-2.014,0.704-2.842c0.469-0.824,1.113-1.459,1.926-1.904s1.721-0.668,2.725-0.668c1.006,0,1.913,0.223,2.726,0.668
			c0.815,0.445,1.457,1.08,1.927,1.904c0.47,0.828,0.706,1.775,0.706,2.842c0,1.068-0.242,2.016-0.725,2.84
			c-0.483,0.828-1.141,1.465-1.973,1.916c-0.832,0.449-1.75,0.676-2.754,0.676C344.826,81.816,343.928,81.592,343.128,81.141z
			 M347.389,79.529c0.489-0.266,0.885-0.666,1.192-1.203c0.304-0.531,0.455-1.18,0.455-1.941s-0.144-1.408-0.436-1.936
			c-0.293-0.529-0.682-0.924-1.164-1.191c-0.482-0.266-1.005-0.398-1.563-0.398c-0.56,0-1.077,0.133-1.554,0.398
			c-0.477,0.268-0.854,0.666-1.135,1.191c-0.281,0.527-0.419,1.172-0.419,1.936c0,1.131,0.289,2.006,0.866,2.621
			c0.578,0.615,1.307,0.926,2.184,0.926C346.375,79.93,346.898,79.797,347.389,79.529z"/>
		<path fill="#FFFFFF" d="M360.945,71.484c0.652,0.344,1.163,0.852,1.534,1.525c0.367,0.674,0.551,1.486,0.551,2.439v6.195h-2.154
			v-5.873c0-0.939-0.235-1.66-0.703-2.162c-0.469-0.502-1.113-0.754-1.927-0.754c-0.815,0-1.458,0.252-1.934,0.754
			c-0.479,0.502-0.716,1.223-0.716,2.162v5.873h-2.175V71.141h2.175v1.199c0.354-0.432,0.81-0.768,1.36-1.012
			c0.556-0.24,1.142-0.359,1.765-0.359C359.548,70.971,360.287,71.143,360.945,71.484z"/>
	</g>
</g>
</svg>
