<?xml version="1.0" encoding="utf-8"?>
<!-- Generator: Adobe Illustrator 16.0.0, SVG Export Plug-In . SVG Version: 6.00 Build 0)  -->
<!DOCTYPE svg PUBLIC "-//W3C//DTD SVG 1.1//EN" "http://www.w3.org/Graphics/SVG/1.1/DTD/svg11.dtd">
<svg version="1.1" id="Layer_1" xmlns="http://www.w3.org/2000/svg" xmlns:xlink="http://www.w3.org/1999/xlink" x="0px" y="0px"
	 width="44.548px" height="44.548px" viewBox="0 0 44.548 44.548" enable-background="new 0 0 44.548 44.548" xml:space="preserve">
<g>
	<path fill-rule="evenodd" clip-rule="evenodd" fill="#be0909" d="M23.666,44.548c-0.928,0-1.856,0-2.784,0
		c-0.096-0.024-0.19-0.064-0.287-0.071c-1.888-0.134-3.736-0.481-5.511-1.139c-8.09-2.997-12.999-8.737-14.731-17.186
		C0.185,25.334,0.115,24.495,0,23.666c0-0.928,0-1.856,0-2.784c0.112-0.815,0.202-1.634,0.34-2.444
		C1.888,9.415,8.959,2.17,17.922,0.439C18.929,0.245,19.953,0.144,20.969,0c0.899,0,1.798,0,2.697,0
		c0.111,0.024,0.222,0.063,0.335,0.071c3.346,0.252,6.49,1.187,9.374,2.901c5.923,3.522,9.556,8.676,10.831,15.463
		c0.151,0.808,0.229,1.63,0.342,2.446c0,0.899,0,1.798,0,2.697c-0.025,0.14-0.055,0.278-0.074,0.418
		c-0.121,0.875-0.197,1.758-0.364,2.623c-1.734,8.968-8.99,16.053-18,17.586C25.299,44.345,24.48,44.436,23.666,44.548z
		 M22.272,13.9c-2.362,0-4.725-0.008-7.088,0.002c-2.757,0.011-4.635,1.898-4.64,4.654c-0.005,2.479-0.005,4.958,0,7.437
		c0.005,2.753,1.885,4.646,4.642,4.652c4.726,0.01,9.451,0.01,14.177,0c2.759-0.006,4.635-1.897,4.64-4.654
		c0.005-2.479,0.006-4.958-0.004-7.437c-0.001-0.389-0.028-0.787-0.112-1.165c-0.477-2.126-2.209-3.476-4.481-3.487
		C27.027,13.89,24.65,13.9,22.272,13.9z"/>
	<path fill-rule="evenodd" clip-rule="evenodd" fill="transparent" d="M23.666,44.548c0.814-0.112,1.633-0.203,2.443-0.342
		c9.01-1.533,16.266-8.618,18-17.586c0.167-0.865,0.243-1.748,0.364-2.623c0.02-0.14,0.049-0.278,0.074-0.418
		c0,6.989,0,13.979,0,20.969C37.587,44.548,30.627,44.548,23.666,44.548z"/>
	<path fill-rule="evenodd" clip-rule="evenodd" fill="transparent" d="M0,23.666c0.115,0.829,0.185,1.668,0.353,2.486
		c1.733,8.448,6.642,14.188,14.731,17.186c1.774,0.657,3.623,1.005,5.511,1.139c0.097,0.007,0.191,0.047,0.287,0.071
		c-6.961,0-13.921,0-20.882,0C0,37.587,0,30.627,0,23.666z"/>
	<path fill-rule="evenodd" clip-rule="evenodd" fill="transparent" d="M44.548,20.882c-0.112-0.816-0.19-1.638-0.342-2.446
		c-1.275-6.787-4.908-11.94-10.831-15.463c-2.884-1.714-6.028-2.649-9.374-2.901C23.888,0.063,23.777,0.024,23.666,0
		c6.961,0,13.921,0,20.882,0C44.548,6.96,44.548,13.921,44.548,20.882z"/>
	<path fill-rule="evenodd" clip-rule="evenodd" fill="#be0909" d="M19.225,18.702c2.058,1.201,4.063,2.371,6.139,3.581
		c-2.074,1.204-4.081,2.369-6.139,3.563C19.225,23.455,19.225,21.112,19.225,18.702z"/>
</g>
</svg>
